<mxfile host="app.diagrams.net" agent="Mozilla/5.0 (Macintosh; Intel Mac OS X 10_15_7) AppleWebKit/537.36 (KHTML, like Gecko) Chrome/129.0.0.0 Safari/537.36" version="24.7.17">
  <diagram name="Page-1" id="qewocp9qWGF084Xped2Q">
    <mxGraphModel dx="3374" dy="1816" grid="1" gridSize="10" guides="1" tooltips="1" connect="1" arrows="1" fold="1" page="1" pageScale="1" pageWidth="850" pageHeight="1100" math="0" shadow="0">
      <root>
        <mxCell id="0" />
        <mxCell id="1" parent="0" />
        <mxCell id="AU1NNC18Ojmz-x1suM1B-1" value="&lt;h1 style=&quot;margin-top: 0px;&quot;&gt;Use Cases/ FR&lt;/h1&gt;&lt;article data-scroll-anchor=&quot;false&quot; data-testid=&quot;conversation-turn-18&quot; dir=&quot;auto&quot; class=&quot;w-full text-token-text-primary focus-visible:outline-2 focus-visible:outline-offset-[-4px]&quot;&gt;&lt;div class=&quot;m-auto text-base py-[18px] px-3 md:px-4 w-full md:px-5 lg:px-4 xl:px-5&quot;&gt;&lt;div class=&quot;mx-auto flex flex-1 gap-4 text-base md:gap-5 lg:gap-6 md:max-w-3xl lg:max-w-[40rem] xl:max-w-[48rem]&quot;&gt;&lt;div class=&quot;group/conversation-turn relative flex w-full min-w-0 flex-col&quot;&gt;&lt;div class=&quot;flex-col gap-1 md:gap-3&quot;&gt;&lt;div class=&quot;flex max-w-full flex-col flex-grow&quot;&gt;&lt;div class=&quot;min-h-8 text-message flex w-full flex-col items-end gap-2 whitespace-normal break-words [.text-message+&amp;amp;]:mt-5&quot; dir=&quot;auto&quot; data-message-id=&quot;aaa2f6ea-3e5b-4962-af3a-48d196b2f359&quot; data-message-author-role=&quot;user&quot;&gt;&lt;div class=&quot;flex w-full flex-col gap-1 empty:hidden items-end rtl:items-start&quot;&gt;&lt;div class=&quot;relative max-w-[70%] rounded-3xl px-5 py-2.5 bg-[#f4f4f4] dark:bg-token-main-surface-secondary&quot;&gt;&lt;div class=&quot;whitespace-pre-wrap&quot;&gt;Design a ticket booking system for an airline company.&lt;br&gt;&lt;/div&gt;&lt;div class=&quot;absolute bottom-0 right-full top-0 -mr-3.5 hidden pr-5 pt-1 [.group\/conversation-turn:hover_&amp;amp;]:block&quot;&gt;&lt;span data-state=&quot;closed&quot; class=&quot;&quot;&gt;&lt;button class=&quot;flex h-9 w-9 items-center justify-center rounded-full text-token-text-secondary transition hover:bg-token-main-surface-tertiary&quot; aria-label=&quot;Edit message&quot;&gt;&lt;svg class=&quot;icon-md&quot; xmlns=&quot;http://www.w3.org/2000/svg&quot; fill=&quot;none&quot; viewBox=&quot;0 0 24 24&quot; height=&quot;24&quot; width=&quot;24&quot;&gt;&lt;path fill=&quot;currentColor&quot; d=&quot;M13.2929 4.29291C15.0641 2.52167 17.9359 2.52167 19.7071 4.2929C21.4784 6.06414 21.4784 8.93588 19.7071 10.7071L18.7073 11.7069L11.6135 18.8007C10.8766 19.5376 9.92793 20.0258 8.89999 20.1971L4.16441 20.9864C3.84585 21.0395 3.52127 20.9355 3.29291 20.7071C3.06454 20.4788 2.96053 20.1542 3.01362 19.8356L3.80288 15.1C3.9742 14.0721 4.46243 13.1234 5.19932 12.3865L13.2929 4.29291ZM13 7.41422L6.61353 13.8007C6.1714 14.2428 5.87846 14.8121 5.77567 15.4288L5.21656 18.7835L8.57119 18.2244C9.18795 18.1216 9.75719 17.8286 10.1993 17.3865L16.5858 11L13 7.41422ZM18 9.5858L14.4142 6.00001L14.7071 5.70712C15.6973 4.71693 17.3027 4.71693 18.2929 5.70712C19.2831 6.69731 19.2831 8.30272 18.2929 9.29291L18 9.5858Z&quot; clip-rule=&quot;evenodd&quot; fill-rule=&quot;evenodd&quot;&gt;&lt;/path&gt;&lt;/svg&gt;&lt;/button&gt;&lt;/span&gt;&lt;/div&gt;&lt;/div&gt;&lt;/div&gt;&lt;/div&gt;&lt;/div&gt;&lt;/div&gt;&lt;/div&gt;&lt;/div&gt;&lt;/div&gt;&lt;/article&gt;&lt;article data-scroll-anchor=&quot;true&quot; data-testid=&quot;conversation-turn-19&quot; dir=&quot;auto&quot; class=&quot;w-full text-token-text-primary focus-visible:outline-2 focus-visible:outline-offset-[-4px]&quot;&gt;&lt;h6 class=&quot;sr-only&quot;&gt;&lt;/h6&gt;&lt;/article&gt;&lt;p&gt;&lt;br&gt;- desktop only support&lt;/p&gt;&lt;p&gt;- Search using source, destination, date,&lt;/p&gt;&lt;p&gt;- book flight&lt;/p&gt;&lt;p&gt;- Notification&lt;/p&gt;&lt;p&gt;- payment service is available&lt;br&gt;- availbilty of flights is provided as existing system&lt;/p&gt;" style="text;html=1;whiteSpace=wrap;overflow=hidden;rounded=0;" parent="1" vertex="1">
          <mxGeometry x="-430" y="10" width="210" height="310" as="geometry" />
        </mxCell>
        <mxCell id="AU1NNC18Ojmz-x1suM1B-2" value="&lt;h1 style=&quot;margin-top: 0px;&quot;&gt;NFR&lt;/h1&gt;&lt;p&gt;- Availability&lt;/p&gt;&lt;p&gt;- Scale&lt;/p&gt;&lt;p&gt;- CC&lt;/p&gt;" style="text;html=1;whiteSpace=wrap;overflow=hidden;rounded=0;" parent="1" vertex="1">
          <mxGeometry x="-630" y="20" width="180" height="410" as="geometry" />
        </mxCell>
        <mxCell id="AU1NNC18Ojmz-x1suM1B-3" value="&lt;h1 style=&quot;margin-top: 0px;&quot;&gt;Size&lt;/h1&gt;&lt;p&gt;- # users&amp;nbsp;&lt;/p&gt;&lt;p&gt;- 60 rqs for booking&amp;nbsp;&lt;/p&gt;&lt;p&gt;- CC&lt;br&gt;&lt;br&gt;&lt;br&gt;&lt;br&gt;&lt;b&gt;APIs&lt;/b&gt;&lt;br&gt;&lt;br&gt;- GET /v1/serach_flights/ {source, desting, l...}&lt;/p&gt;&lt;p&gt;&lt;br&gt;&lt;/p&gt;&lt;p&gt;- POST /v1/book_flight/ { number of travellers, ..}&lt;/p&gt;" style="text;html=1;whiteSpace=wrap;overflow=hidden;rounded=0;" parent="1" vertex="1">
          <mxGeometry x="-630" y="200" width="360" height="280" as="geometry" />
        </mxCell>
        <mxCell id="kW378scqaF27wL95GdWb-78" value="" style="edgeStyle=orthogonalEdgeStyle;rounded=0;orthogonalLoop=1;jettySize=auto;html=1;" parent="1" source="AU1NNC18Ojmz-x1suM1B-4" target="kW378scqaF27wL95GdWb-55" edge="1">
          <mxGeometry relative="1" as="geometry" />
        </mxCell>
        <mxCell id="AU1NNC18Ojmz-x1suM1B-4" value="&lt;h1 style=&quot;margin-top: 0px;&quot;&gt;Assumptions&lt;/h1&gt;&lt;p&gt;- return top k result and go more with pagination for performance&lt;br&gt;- resgisteration is out of scope&lt;/p&gt;&lt;p&gt;- serach is always about city and to travel everywhere&lt;/p&gt;" style="text;html=1;whiteSpace=wrap;overflow=hidden;rounded=0;" parent="1" vertex="1">
          <mxGeometry x="-680" y="500" width="180" height="410" as="geometry" />
        </mxCell>
        <mxCell id="kW378scqaF27wL95GdWb-3" value="" style="edgeStyle=orthogonalEdgeStyle;rounded=0;orthogonalLoop=1;jettySize=auto;html=1;" parent="1" source="AU1NNC18Ojmz-x1suM1B-5" target="AU1NNC18Ojmz-x1suM1B-8" edge="1">
          <mxGeometry relative="1" as="geometry" />
        </mxCell>
        <mxCell id="AU1NNC18Ojmz-x1suM1B-5" value="Actor" style="shape=umlActor;verticalLabelPosition=bottom;verticalAlign=top;html=1;outlineConnect=0;" parent="1" vertex="1">
          <mxGeometry x="180" y="20" width="30" height="60" as="geometry" />
        </mxCell>
        <mxCell id="AU1NNC18Ojmz-x1suM1B-6" value="DNS" style="rounded=1;whiteSpace=wrap;html=1;" parent="1" vertex="1">
          <mxGeometry x="360" y="40" width="90" height="40" as="geometry" />
        </mxCell>
        <mxCell id="AU1NNC18Ojmz-x1suM1B-7" value="CDN" style="rounded=1;whiteSpace=wrap;html=1;" parent="1" vertex="1">
          <mxGeometry x="360" y="120" width="90" height="40" as="geometry" />
        </mxCell>
        <mxCell id="kW378scqaF27wL95GdWb-4" value="" style="edgeStyle=orthogonalEdgeStyle;rounded=0;orthogonalLoop=1;jettySize=auto;html=1;" parent="1" source="AU1NNC18Ojmz-x1suM1B-8" target="AU1NNC18Ojmz-x1suM1B-9" edge="1">
          <mxGeometry relative="1" as="geometry" />
        </mxCell>
        <mxCell id="AU1NNC18Ojmz-x1suM1B-8" value="LB" style="rounded=1;whiteSpace=wrap;html=1;" parent="1" vertex="1">
          <mxGeometry x="150" y="160" width="90" height="40" as="geometry" />
        </mxCell>
        <mxCell id="kW378scqaF27wL95GdWb-5" style="edgeStyle=orthogonalEdgeStyle;rounded=0;orthogonalLoop=1;jettySize=auto;html=1;entryX=0.5;entryY=0;entryDx=0;entryDy=0;" parent="1" source="AU1NNC18Ojmz-x1suM1B-9" target="kW378scqaF27wL95GdWb-2" edge="1">
          <mxGeometry relative="1" as="geometry" />
        </mxCell>
        <mxCell id="kW378scqaF27wL95GdWb-18" style="edgeStyle=orthogonalEdgeStyle;rounded=0;orthogonalLoop=1;jettySize=auto;html=1;entryX=0.5;entryY=0;entryDx=0;entryDy=0;" parent="1" source="AU1NNC18Ojmz-x1suM1B-9" target="kW378scqaF27wL95GdWb-15" edge="1">
          <mxGeometry relative="1" as="geometry" />
        </mxCell>
        <mxCell id="kW378scqaF27wL95GdWb-40" style="edgeStyle=orthogonalEdgeStyle;rounded=0;orthogonalLoop=1;jettySize=auto;html=1;entryX=0.5;entryY=0;entryDx=0;entryDy=0;" parent="1" source="AU1NNC18Ojmz-x1suM1B-9" target="kW378scqaF27wL95GdWb-39" edge="1">
          <mxGeometry relative="1" as="geometry" />
        </mxCell>
        <mxCell id="AU1NNC18Ojmz-x1suM1B-9" value="WEB" style="rounded=1;whiteSpace=wrap;html=1;" parent="1" vertex="1">
          <mxGeometry x="160" y="250" width="90" height="40" as="geometry" />
        </mxCell>
        <mxCell id="kW378scqaF27wL95GdWb-1" value="SSL termination&amp;nbsp;&lt;br&gt;ratelimiting" style="text;html=1;align=center;verticalAlign=middle;whiteSpace=wrap;rounded=0;" parent="1" vertex="1">
          <mxGeometry x="70" y="220" width="60" height="30" as="geometry" />
        </mxCell>
        <mxCell id="kW378scqaF27wL95GdWb-8" style="edgeStyle=orthogonalEdgeStyle;rounded=0;orthogonalLoop=1;jettySize=auto;html=1;" parent="1" source="kW378scqaF27wL95GdWb-22" edge="1">
          <mxGeometry relative="1" as="geometry">
            <mxPoint x="430" y="630" as="targetPoint" />
            <Array as="points">
              <mxPoint x="420" y="550" />
              <mxPoint x="420" y="550" />
            </Array>
          </mxGeometry>
        </mxCell>
        <mxCell id="kW378scqaF27wL95GdWb-33" style="edgeStyle=orthogonalEdgeStyle;rounded=0;orthogonalLoop=1;jettySize=auto;html=1;entryX=0.5;entryY=0;entryDx=0;entryDy=0;" parent="1" source="kW378scqaF27wL95GdWb-2" target="kW378scqaF27wL95GdWb-31" edge="1">
          <mxGeometry relative="1" as="geometry" />
        </mxCell>
        <mxCell id="kW378scqaF27wL95GdWb-2" value="Search API" style="rounded=1;whiteSpace=wrap;html=1;" parent="1" vertex="1">
          <mxGeometry x="380" y="340" width="90" height="40" as="geometry" />
        </mxCell>
        <mxCell id="kW378scqaF27wL95GdWb-7" value="Flights DB" style="shape=cylinder3;whiteSpace=wrap;html=1;boundedLbl=1;backgroundOutline=1;size=15;" parent="1" vertex="1">
          <mxGeometry x="395" y="620" width="60" height="80" as="geometry" />
        </mxCell>
        <mxCell id="kW378scqaF27wL95GdWb-9" value="Flight Seeder" style="ellipse;shape=cloud;whiteSpace=wrap;html=1;" parent="1" vertex="1">
          <mxGeometry x="720" y="480" width="120" height="80" as="geometry" />
        </mxCell>
        <mxCell id="kW378scqaF27wL95GdWb-10" style="edgeStyle=orthogonalEdgeStyle;rounded=0;orthogonalLoop=1;jettySize=auto;html=1;entryX=1;entryY=0;entryDx=0;entryDy=52.5;entryPerimeter=0;" parent="1" source="kW378scqaF27wL95GdWb-9" target="kW378scqaF27wL95GdWb-7" edge="1">
          <mxGeometry relative="1" as="geometry" />
        </mxCell>
        <mxCell id="kW378scqaF27wL95GdWb-11" value="" style="shape=process;whiteSpace=wrap;html=1;backgroundOutline=1;" parent="1" vertex="1">
          <mxGeometry x="580" y="500" width="100" height="40" as="geometry" />
        </mxCell>
        <mxCell id="kW378scqaF27wL95GdWb-12" value="flights worker" style="rounded=1;whiteSpace=wrap;html=1;" parent="1" vertex="1">
          <mxGeometry x="570" y="590" width="90" height="40" as="geometry" />
        </mxCell>
        <mxCell id="kW378scqaF27wL95GdWb-13" value="flights worker" style="rounded=1;whiteSpace=wrap;html=1;" parent="1" vertex="1">
          <mxGeometry x="580" y="600" width="90" height="40" as="geometry" />
        </mxCell>
        <mxCell id="kW378scqaF27wL95GdWb-14" value="flights worker" style="rounded=1;whiteSpace=wrap;html=1;" parent="1" vertex="1">
          <mxGeometry x="590" y="610" width="90" height="40" as="geometry" />
        </mxCell>
        <mxCell id="kW378scqaF27wL95GdWb-32" style="edgeStyle=orthogonalEdgeStyle;rounded=0;orthogonalLoop=1;jettySize=auto;html=1;" parent="1" source="kW378scqaF27wL95GdWb-15" target="kW378scqaF27wL95GdWb-31" edge="1">
          <mxGeometry relative="1" as="geometry" />
        </mxCell>
        <mxCell id="kW378scqaF27wL95GdWb-35" value="TTL on Redis DB" style="edgeLabel;html=1;align=center;verticalAlign=middle;resizable=0;points=[];" parent="kW378scqaF27wL95GdWb-32" vertex="1" connectable="0">
          <mxGeometry x="-0.0596" y="4" relative="1" as="geometry">
            <mxPoint as="offset" />
          </mxGeometry>
        </mxCell>
        <mxCell id="kW378scqaF27wL95GdWb-15" value="Lockingservice" style="rounded=1;whiteSpace=wrap;html=1;" parent="1" vertex="1">
          <mxGeometry x="157.5" y="350" width="90" height="40" as="geometry" />
        </mxCell>
        <mxCell id="kW378scqaF27wL95GdWb-58" style="edgeStyle=orthogonalEdgeStyle;rounded=0;orthogonalLoop=1;jettySize=auto;html=1;" parent="1" source="kW378scqaF27wL95GdWb-16" target="kW378scqaF27wL95GdWb-57" edge="1">
          <mxGeometry relative="1" as="geometry" />
        </mxCell>
        <mxCell id="kW378scqaF27wL95GdWb-16" value="UserManagent" style="rounded=1;whiteSpace=wrap;html=1;" parent="1" vertex="1">
          <mxGeometry x="-210" y="350" width="90" height="40" as="geometry" />
        </mxCell>
        <mxCell id="kW378scqaF27wL95GdWb-21" value="Dijkstra shortest path&amp;nbsp;" style="text;html=1;align=center;verticalAlign=middle;whiteSpace=wrap;rounded=0;" parent="1" vertex="1">
          <mxGeometry x="470" y="400" width="80" height="40" as="geometry" />
        </mxCell>
        <mxCell id="kW378scqaF27wL95GdWb-23" value="" style="edgeStyle=orthogonalEdgeStyle;rounded=0;orthogonalLoop=1;jettySize=auto;html=1;" parent="1" source="kW378scqaF27wL95GdWb-2" target="kW378scqaF27wL95GdWb-22" edge="1">
          <mxGeometry relative="1" as="geometry">
            <mxPoint x="420" y="380" as="sourcePoint" />
            <mxPoint x="420" y="620" as="targetPoint" />
            <Array as="points" />
          </mxGeometry>
        </mxCell>
        <mxCell id="kW378scqaF27wL95GdWb-22" value="Memory Cache" style="shape=parallelogram;perimeter=parallelogramPerimeter;whiteSpace=wrap;html=1;fixedSize=1;" parent="1" vertex="1">
          <mxGeometry x="385" y="430" width="80" height="30" as="geometry" />
        </mxCell>
        <mxCell id="kW378scqaF27wL95GdWb-24" value="Memory Cache" style="shape=parallelogram;perimeter=parallelogramPerimeter;whiteSpace=wrap;html=1;fixedSize=1;" parent="1" vertex="1">
          <mxGeometry x="395" y="440" width="80" height="30" as="geometry" />
        </mxCell>
        <mxCell id="kW378scqaF27wL95GdWb-28" value="NewBookingEvent" style="shape=process;whiteSpace=wrap;html=1;backgroundOutline=1;" parent="1" vertex="1">
          <mxGeometry x="-190" y="630" width="130" height="40" as="geometry" />
        </mxCell>
        <mxCell id="kW378scqaF27wL95GdWb-37" style="edgeStyle=orthogonalEdgeStyle;rounded=0;orthogonalLoop=1;jettySize=auto;html=1;" parent="1" source="kW378scqaF27wL95GdWb-31" target="kW378scqaF27wL95GdWb-36" edge="1">
          <mxGeometry relative="1" as="geometry" />
        </mxCell>
        <mxCell id="kW378scqaF27wL95GdWb-31" value="CurrentLocked&lt;br&gt;Bookings" style="shape=parallelogram;perimeter=parallelogramPerimeter;whiteSpace=wrap;html=1;fixedSize=1;" parent="1" vertex="1">
          <mxGeometry x="225" y="480" width="105" height="40" as="geometry" />
        </mxCell>
        <mxCell id="kW378scqaF27wL95GdWb-36" value="reservedBookings" style="shape=cylinder3;whiteSpace=wrap;html=1;boundedLbl=1;backgroundOutline=1;size=15;" parent="1" vertex="1">
          <mxGeometry x="247.5" y="610" width="60" height="80" as="geometry" />
        </mxCell>
        <mxCell id="kW378scqaF27wL95GdWb-44" style="edgeStyle=orthogonalEdgeStyle;rounded=0;orthogonalLoop=1;jettySize=auto;html=1;entryX=0.5;entryY=0;entryDx=0;entryDy=0;" parent="1" source="kW378scqaF27wL95GdWb-39" target="kW378scqaF27wL95GdWb-42" edge="1">
          <mxGeometry relative="1" as="geometry" />
        </mxCell>
        <mxCell id="kW378scqaF27wL95GdWb-96" style="edgeStyle=orthogonalEdgeStyle;rounded=0;orthogonalLoop=1;jettySize=auto;html=1;entryX=1;entryY=0.5;entryDx=0;entryDy=0;" parent="1" source="kW378scqaF27wL95GdWb-39" target="kW378scqaF27wL95GdWb-95" edge="1">
          <mxGeometry relative="1" as="geometry">
            <Array as="points">
              <mxPoint x="30" y="750" />
            </Array>
          </mxGeometry>
        </mxCell>
        <mxCell id="kW378scqaF27wL95GdWb-97" value="Text" style="edgeLabel;html=1;align=center;verticalAlign=middle;resizable=0;points=[];" parent="kW378scqaF27wL95GdWb-96" vertex="1" connectable="0">
          <mxGeometry x="-0.4177" y="-2" relative="1" as="geometry">
            <mxPoint as="offset" />
          </mxGeometry>
        </mxCell>
        <mxCell id="kW378scqaF27wL95GdWb-101" style="edgeStyle=orthogonalEdgeStyle;rounded=0;orthogonalLoop=1;jettySize=auto;html=1;" parent="1" source="kW378scqaF27wL95GdWb-39" target="kW378scqaF27wL95GdWb-100" edge="1">
          <mxGeometry relative="1" as="geometry">
            <Array as="points">
              <mxPoint x="5" y="400" />
              <mxPoint x="350" y="400" />
            </Array>
          </mxGeometry>
        </mxCell>
        <mxCell id="kW378scqaF27wL95GdWb-102" value="UUID" style="edgeLabel;html=1;align=center;verticalAlign=middle;resizable=0;points=[];" parent="kW378scqaF27wL95GdWb-101" vertex="1" connectable="0">
          <mxGeometry x="-0.9371" y="1" relative="1" as="geometry">
            <mxPoint as="offset" />
          </mxGeometry>
        </mxCell>
        <mxCell id="kW378scqaF27wL95GdWb-39" value="BookingService" style="rounded=1;whiteSpace=wrap;html=1;" parent="1" vertex="1">
          <mxGeometry x="-40" y="350" width="90" height="40" as="geometry" />
        </mxCell>
        <mxCell id="kW378scqaF27wL95GdWb-43" style="edgeStyle=orthogonalEdgeStyle;rounded=0;orthogonalLoop=1;jettySize=auto;html=1;entryX=0;entryY=0.5;entryDx=0;entryDy=0;" parent="1" source="kW378scqaF27wL95GdWb-42" target="kW378scqaF27wL95GdWb-15" edge="1">
          <mxGeometry relative="1" as="geometry" />
        </mxCell>
        <mxCell id="kW378scqaF27wL95GdWb-46" value="Idempotence Key &lt;br&gt;with extend TTL" style="edgeLabel;html=1;align=center;verticalAlign=middle;resizable=0;points=[];" parent="kW378scqaF27wL95GdWb-43" vertex="1" connectable="0">
          <mxGeometry x="-0.6414" y="3" relative="1" as="geometry">
            <mxPoint as="offset" />
          </mxGeometry>
        </mxCell>
        <mxCell id="kW378scqaF27wL95GdWb-47" style="edgeStyle=orthogonalEdgeStyle;rounded=0;orthogonalLoop=1;jettySize=auto;html=1;entryX=1;entryY=0.5;entryDx=0;entryDy=0;" parent="1" source="kW378scqaF27wL95GdWb-42" target="kW378scqaF27wL95GdWb-28" edge="1">
          <mxGeometry relative="1" as="geometry" />
        </mxCell>
        <mxCell id="kW378scqaF27wL95GdWb-48" value="Sending confirmatoin and payment link" style="edgeLabel;html=1;align=center;verticalAlign=middle;resizable=0;points=[];" parent="kW378scqaF27wL95GdWb-47" vertex="1" connectable="0">
          <mxGeometry x="-0.1448" y="-2" relative="1" as="geometry">
            <mxPoint as="offset" />
          </mxGeometry>
        </mxCell>
        <mxCell id="kW378scqaF27wL95GdWb-42" value="PayLater" style="rhombus;whiteSpace=wrap;html=1;" parent="1" vertex="1">
          <mxGeometry x="-20" y="440" width="50" height="40" as="geometry" />
        </mxCell>
        <mxCell id="kW378scqaF27wL95GdWb-49" value="Trans. Status DB" style="shape=cylinder3;whiteSpace=wrap;html=1;boundedLbl=1;backgroundOutline=1;size=15;" parent="1" vertex="1">
          <mxGeometry x="97.5" y="710" width="60" height="80" as="geometry" />
        </mxCell>
        <mxCell id="kW378scqaF27wL95GdWb-50" style="edgeStyle=orthogonalEdgeStyle;rounded=0;orthogonalLoop=1;jettySize=auto;html=1;entryX=0.5;entryY=0;entryDx=0;entryDy=0;entryPerimeter=0;" parent="1" source="kW378scqaF27wL95GdWb-64" target="kW378scqaF27wL95GdWb-49" edge="1">
          <mxGeometry relative="1" as="geometry" />
        </mxCell>
        <mxCell id="kW378scqaF27wL95GdWb-72" style="edgeStyle=orthogonalEdgeStyle;rounded=0;orthogonalLoop=1;jettySize=auto;html=1;" parent="1" source="kW378scqaF27wL95GdWb-75" target="kW378scqaF27wL95GdWb-16" edge="1">
          <mxGeometry relative="1" as="geometry">
            <Array as="points">
              <mxPoint x="-480" y="370" />
            </Array>
          </mxGeometry>
        </mxCell>
        <mxCell id="kW378scqaF27wL95GdWb-85" style="edgeStyle=orthogonalEdgeStyle;rounded=0;orthogonalLoop=1;jettySize=auto;html=1;entryX=0.5;entryY=0;entryDx=0;entryDy=0;" parent="1" source="kW378scqaF27wL95GdWb-55" target="kW378scqaF27wL95GdWb-84" edge="1">
          <mxGeometry relative="1" as="geometry" />
        </mxCell>
        <mxCell id="kW378scqaF27wL95GdWb-86" style="edgeStyle=orthogonalEdgeStyle;rounded=0;orthogonalLoop=1;jettySize=auto;html=1;entryX=0.5;entryY=0;entryDx=0;entryDy=0;" parent="1" source="kW378scqaF27wL95GdWb-55" target="kW378scqaF27wL95GdWb-83" edge="1">
          <mxGeometry relative="1" as="geometry" />
        </mxCell>
        <mxCell id="kW378scqaF27wL95GdWb-55" value="NotificationSrv" style="rounded=1;whiteSpace=wrap;html=1;" parent="1" vertex="1">
          <mxGeometry x="-430" y="685" width="90" height="40" as="geometry" />
        </mxCell>
        <mxCell id="kW378scqaF27wL95GdWb-56" style="edgeStyle=orthogonalEdgeStyle;rounded=0;orthogonalLoop=1;jettySize=auto;html=1;entryX=0.578;entryY=0.025;entryDx=0;entryDy=0;entryPerimeter=0;" parent="1" source="AU1NNC18Ojmz-x1suM1B-9" target="kW378scqaF27wL95GdWb-16" edge="1">
          <mxGeometry relative="1" as="geometry" />
        </mxCell>
        <mxCell id="kW378scqaF27wL95GdWb-57" value="UserDB" style="shape=cylinder3;whiteSpace=wrap;html=1;boundedLbl=1;backgroundOutline=1;size=15;" parent="1" vertex="1">
          <mxGeometry x="-330" y="380" width="60" height="80" as="geometry" />
        </mxCell>
        <mxCell id="kW378scqaF27wL95GdWb-59" value="BookingProcessing" style="rounded=1;whiteSpace=wrap;html=1;" parent="1" vertex="1">
          <mxGeometry x="-230" y="470" width="120" height="40" as="geometry" />
        </mxCell>
        <mxCell id="kW378scqaF27wL95GdWb-60" style="edgeStyle=orthogonalEdgeStyle;rounded=0;orthogonalLoop=1;jettySize=auto;html=1;entryX=0.5;entryY=1;entryDx=0;entryDy=0;" parent="1" source="kW378scqaF27wL95GdWb-28" target="kW378scqaF27wL95GdWb-62" edge="1">
          <mxGeometry relative="1" as="geometry">
            <mxPoint x="-180" y="540" as="targetPoint" />
            <Array as="points">
              <mxPoint x="-210" y="650" />
              <mxPoint x="-210" y="575" />
              <mxPoint x="-161" y="575" />
            </Array>
          </mxGeometry>
        </mxCell>
        <mxCell id="kW378scqaF27wL95GdWb-63" style="edgeStyle=orthogonalEdgeStyle;rounded=0;orthogonalLoop=1;jettySize=auto;html=1;" parent="1" source="kW378scqaF27wL95GdWb-62" target="kW378scqaF27wL95GdWb-57" edge="1">
          <mxGeometry relative="1" as="geometry" />
        </mxCell>
        <mxCell id="kW378scqaF27wL95GdWb-66" style="edgeStyle=orthogonalEdgeStyle;rounded=0;orthogonalLoop=1;jettySize=auto;html=1;entryX=0;entryY=0.5;entryDx=0;entryDy=0;" parent="1" source="kW378scqaF27wL95GdWb-62" target="kW378scqaF27wL95GdWb-64" edge="1">
          <mxGeometry relative="1" as="geometry" />
        </mxCell>
        <mxCell id="kW378scqaF27wL95GdWb-70" style="edgeStyle=orthogonalEdgeStyle;rounded=0;orthogonalLoop=1;jettySize=auto;html=1;" parent="1" source="kW378scqaF27wL95GdWb-62" target="kW378scqaF27wL95GdWb-67" edge="1">
          <mxGeometry relative="1" as="geometry" />
        </mxCell>
        <mxCell id="kW378scqaF27wL95GdWb-62" value="BookingProcessing" style="rounded=1;whiteSpace=wrap;html=1;" parent="1" vertex="1">
          <mxGeometry x="-220" y="480" width="120" height="40" as="geometry" />
        </mxCell>
        <mxCell id="kW378scqaF27wL95GdWb-65" value="" style="edgeStyle=orthogonalEdgeStyle;rounded=0;orthogonalLoop=1;jettySize=auto;html=1;entryX=0.5;entryY=0;entryDx=0;entryDy=0;entryPerimeter=0;" parent="1" source="kW378scqaF27wL95GdWb-42" target="kW378scqaF27wL95GdWb-64" edge="1">
          <mxGeometry relative="1" as="geometry">
            <mxPoint x="30" y="460" as="sourcePoint" />
            <mxPoint x="128" y="710" as="targetPoint" />
          </mxGeometry>
        </mxCell>
        <mxCell id="kW378scqaF27wL95GdWb-64" value="TransactionSrv" style="rounded=1;whiteSpace=wrap;html=1;" parent="1" vertex="1">
          <mxGeometry x="60" y="590" width="120" height="40" as="geometry" />
        </mxCell>
        <mxCell id="kW378scqaF27wL95GdWb-67" value="BookingConfirmedEvent" style="shape=process;whiteSpace=wrap;html=1;backgroundOutline=1;" parent="1" vertex="1">
          <mxGeometry x="-420" y="570" width="130" height="50" as="geometry" />
        </mxCell>
        <mxCell id="kW378scqaF27wL95GdWb-71" style="edgeStyle=orthogonalEdgeStyle;rounded=0;orthogonalLoop=1;jettySize=auto;html=1;entryX=0.611;entryY=0.025;entryDx=0;entryDy=0;entryPerimeter=0;" parent="1" source="kW378scqaF27wL95GdWb-67" target="kW378scqaF27wL95GdWb-55" edge="1">
          <mxGeometry relative="1" as="geometry" />
        </mxCell>
        <mxCell id="kW378scqaF27wL95GdWb-76" value="" style="edgeStyle=orthogonalEdgeStyle;rounded=0;orthogonalLoop=1;jettySize=auto;html=1;" parent="1" source="kW378scqaF27wL95GdWb-55" target="kW378scqaF27wL95GdWb-75" edge="1">
          <mxGeometry relative="1" as="geometry">
            <mxPoint x="-430" y="705" as="sourcePoint" />
            <mxPoint x="-210" y="370" as="targetPoint" />
            <Array as="points">
              <mxPoint x="-480" y="705" />
            </Array>
          </mxGeometry>
        </mxCell>
        <mxCell id="kW378scqaF27wL95GdWb-75" value="Cached user Pref" style="shape=parallelogram;perimeter=parallelogramPerimeter;whiteSpace=wrap;html=1;fixedSize=1;" parent="1" vertex="1">
          <mxGeometry x="-510" y="530" width="90" height="40" as="geometry" />
        </mxCell>
        <mxCell id="kW378scqaF27wL95GdWb-79" value="Iphone" style="rounded=1;whiteSpace=wrap;html=1;" parent="1" vertex="1">
          <mxGeometry x="-480" y="810" width="40" height="50" as="geometry" />
        </mxCell>
        <mxCell id="kW378scqaF27wL95GdWb-90" style="edgeStyle=orthogonalEdgeStyle;rounded=0;orthogonalLoop=1;jettySize=auto;html=1;" parent="1" source="kW378scqaF27wL95GdWb-80" target="kW378scqaF27wL95GdWb-89" edge="1">
          <mxGeometry relative="1" as="geometry" />
        </mxCell>
        <mxCell id="kW378scqaF27wL95GdWb-94" style="edgeStyle=orthogonalEdgeStyle;rounded=0;orthogonalLoop=1;jettySize=auto;html=1;entryX=0.5;entryY=0;entryDx=0;entryDy=0;" parent="1" source="kW378scqaF27wL95GdWb-80" target="kW378scqaF27wL95GdWb-91" edge="1">
          <mxGeometry relative="1" as="geometry" />
        </mxCell>
        <mxCell id="kW378scqaF27wL95GdWb-80" value="SMS" style="rounded=1;whiteSpace=wrap;html=1;" parent="1" vertex="1">
          <mxGeometry x="-575" y="820" width="50" height="50" as="geometry" />
        </mxCell>
        <mxCell id="kW378scqaF27wL95GdWb-81" value="Android" style="rounded=1;whiteSpace=wrap;html=1;" parent="1" vertex="1">
          <mxGeometry x="-420" y="810" width="40" height="50" as="geometry" />
        </mxCell>
        <mxCell id="kW378scqaF27wL95GdWb-82" value="Email" style="rounded=1;whiteSpace=wrap;html=1;" parent="1" vertex="1">
          <mxGeometry x="-350" y="810" width="40" height="50" as="geometry" />
        </mxCell>
        <mxCell id="kW378scqaF27wL95GdWb-87" style="edgeStyle=orthogonalEdgeStyle;rounded=0;orthogonalLoop=1;jettySize=auto;html=1;" parent="1" source="kW378scqaF27wL95GdWb-83" target="kW378scqaF27wL95GdWb-80" edge="1">
          <mxGeometry relative="1" as="geometry" />
        </mxCell>
        <mxCell id="kW378scqaF27wL95GdWb-83" value="SMS Q" style="shape=process;whiteSpace=wrap;html=1;backgroundOutline=1;" parent="1" vertex="1">
          <mxGeometry x="-565" y="725" width="40" height="60" as="geometry" />
        </mxCell>
        <mxCell id="kW378scqaF27wL95GdWb-84" value="..." style="shape=process;whiteSpace=wrap;html=1;backgroundOutline=1;" parent="1" vertex="1">
          <mxGeometry x="-350" y="750" width="40" height="50" as="geometry" />
        </mxCell>
        <mxCell id="kW378scqaF27wL95GdWb-89" value="Trans. Status DB" style="shape=cylinder3;whiteSpace=wrap;html=1;boundedLbl=1;backgroundOutline=1;size=15;" parent="1" vertex="1">
          <mxGeometry x="-690" y="890" width="60" height="80" as="geometry" />
        </mxCell>
        <mxCell id="kW378scqaF27wL95GdWb-91" value="External Provider" style="rounded=1;whiteSpace=wrap;html=1;" parent="1" vertex="1">
          <mxGeometry x="-575" y="970" width="50" height="50" as="geometry" />
        </mxCell>
        <mxCell id="kW378scqaF27wL95GdWb-92" value="External Provider" style="rounded=1;whiteSpace=wrap;html=1;" parent="1" vertex="1">
          <mxGeometry x="-430" y="980" width="50" height="50" as="geometry" />
        </mxCell>
        <mxCell id="kW378scqaF27wL95GdWb-93" value="External Provider" style="rounded=1;whiteSpace=wrap;html=1;" parent="1" vertex="1">
          <mxGeometry x="-370" y="980" width="50" height="50" as="geometry" />
        </mxCell>
        <mxCell id="kW378scqaF27wL95GdWb-95" value="Pamentserv Event" style="shape=process;whiteSpace=wrap;html=1;backgroundOutline=1;" parent="1" vertex="1">
          <mxGeometry x="-160" y="730" width="130" height="40" as="geometry" />
        </mxCell>
        <mxCell id="kW378scqaF27wL95GdWb-98" value="RuleEngine" style="rounded=1;whiteSpace=wrap;html=1;" parent="1" vertex="1">
          <mxGeometry x="-120" y="300" width="90" height="40" as="geometry" />
        </mxCell>
        <mxCell id="kW378scqaF27wL95GdWb-99" style="edgeStyle=orthogonalEdgeStyle;rounded=0;orthogonalLoop=1;jettySize=auto;html=1;entryX=0.433;entryY=1;entryDx=0;entryDy=0;entryPerimeter=0;" parent="1" source="kW378scqaF27wL95GdWb-39" target="kW378scqaF27wL95GdWb-98" edge="1">
          <mxGeometry relative="1" as="geometry" />
        </mxCell>
        <mxCell id="kW378scqaF27wL95GdWb-105" style="edgeStyle=orthogonalEdgeStyle;rounded=0;orthogonalLoop=1;jettySize=auto;html=1;" parent="1" source="kW378scqaF27wL95GdWb-100" target="kW378scqaF27wL95GdWb-103" edge="1">
          <mxGeometry relative="1" as="geometry" />
        </mxCell>
        <mxCell id="kW378scqaF27wL95GdWb-100" value="PSP" style="rounded=1;whiteSpace=wrap;html=1;" parent="1" vertex="1">
          <mxGeometry x="290" y="770" width="120" height="40" as="geometry" />
        </mxCell>
        <mxCell id="kW378scqaF27wL95GdWb-104" style="edgeStyle=orthogonalEdgeStyle;rounded=0;orthogonalLoop=1;jettySize=auto;html=1;exitX=0;exitY=0.5;exitDx=0;exitDy=0;entryX=0.5;entryY=1;entryDx=0;entryDy=0;" parent="1" source="kW378scqaF27wL95GdWb-103" target="kW378scqaF27wL95GdWb-95" edge="1">
          <mxGeometry relative="1" as="geometry">
            <mxPoint x="50" y="860" as="targetPoint" />
            <Array as="points">
              <mxPoint x="-95" y="890" />
            </Array>
          </mxGeometry>
        </mxCell>
        <mxCell id="kW378scqaF27wL95GdWb-103" value="QWEBHock" style="rounded=1;whiteSpace=wrap;html=1;" parent="1" vertex="1">
          <mxGeometry x="180" y="870" width="120" height="40" as="geometry" />
        </mxCell>
        <mxCell id="rA1l54eFfrSu2wpzWJ-t-1" value="" style="shape=image;verticalLabelPosition=bottom;labelBackgroundColor=default;verticalAlign=top;aspect=fixed;imageAspect=0;image=data:image/svg+xml,PHN2ZyB4bWxucz0iaHR0cDovL3d3dy53My5vcmcvMjAwMC9zdmciIGhlaWdodD0iMzMwMC42ODI0Mjk4MjQ5Mjg1IiB3aWR0aD0iNjAwMS43Nzg0NjM0MDMzNTMiIHZpZXdCb3g9IjAgMCAzMDAwLjg4OTIzMTcwMTY3NjYgMTY1MC4zNDEyMTQ5MTI0NjQyIiB2ZXJzaW9uPSIxLjEiPiYjeGE7ICAmI3hhOyAgJiN4YTsgIDxkZWZzPiYjeGE7ICAgIDxzdHlsZSBjbGFzcz0ic3R5bGUtZm9udHMiPiYjeGE7ICAgICAgQGZvbnQtZmFjZSB7JiN4YTsgICAgICAgIGZvbnQtZmFtaWx5OiBWaXJnaWw7JiN4YTsgICAgICAgIHNyYzogdXJsKGRhdGE6Zm9udC93b2ZmMjtiYXNlNjQsZDA5R01nQUJBQUFBQUNtc0FBc0FBQUFBUWdRQUFDbGVBQUVBQUFBQUFBQUFBQUFBQUFBQUFBQUFBQUFBQUFBQUJtQUFnU1FSQ0FyNFdOa0hDNEVRQUFFMkFpUURnaHdFSUFXREhBY2dHK1F3VVpUUVhoalpGd2VaM01YeWJLUzJrVmRFWDJmVnYxL1g4cDdlakpCa2Rvam1ySm5kN0VZZGpSRkVnM2doWWdRTGdlQUZnb2pWS0RXanBUMnE5cHhSOGJ1cm1GeDdYMnBLUlUrQS8yUU1mZmRMN0FEam1SUXdTUUlOcEZnM2xXVmhjQlpZemkyVG5acS92M0lxTDExM3IyOTNaU2xRa0F3cFVOeWtoT2tIdHVQNTQ4OXd1TWJYOUNySmtqRWdzaDBvT0hFYUp3VktDcnpTZnZqSnpmNGYzdXVnamJ4dmF2V1Z0TDhxWjlvNXJTRUpXUmtndHRrcmtUV0pQSk1CZkw0eHQ3eUxNOFBFWHYrQ1NRaWRrcUNkVVBtL2FjdHU2TEpVMzdyeFNKUDl0UHpkVG1rOWc5bzRXbmtlSXhHbVpXZ3AxSW5LQUZleVIzZmdVUDZFRXh6R3FiTmh1c3lqYmtqbnhQejl1WWlid00weXhEeGpqVlNXMjQwQVFXYllCekFBY29oa0F3QVNLWVVCQUhOQk1OOEJRTUNDa2E5ZFVRQ0F2R3JtdEJtTlFJMkVpUUh0LzgwRzJMMFNiQWNBTUh1TTJmQXI4azhQa0tBcHNDSHlyQmMrcFJEb1E0bDRDZFg3S2ZFbW5HamlzV0FsaXp6R1VrVUhYVXowMFlVcFh2aVZqRVZERXJZVUJ6V3VjWC9QMFdHLzYzLzZiYi9oMS8yYVgvVXJmdEV2K0ZrLzQ2ZjlGQkFvQnQyQjhKcXF3bnhYYmhJdnYxbFk4UlNrcmJnVEJXWis1S2xtQUkveGlBK3RMcDRKeU5LVEMzYXlZQ1k4TFpsOXg3bGtybitvdHp2SDAxM2dWY0IwWkZjRk92TjRrVEsveURITWJMNkdKMGpSdWMxUGJpZ29LWW9ySzFMNlIwbHIwMUl6eGpUb2sySjR2c0xnTEpVd04xc3Zja21SVzQzT0VoK2VIOVBmV0dLTnRpYU5EYzFScmZpOW9WZ1h6RDlhRXVMSU5NVHdSZXB6RGw2VmZwQXpHbXdRTCtKS1lBS0UzT1A5bCtsZC9udGc3a25BdFBpRnNueGMrV1kyd0h1QWp1bFlUcm54N1dDR2ZBdVVDWDhVN001VG1ISEpVOFh2ZmZKclhEZEhsSWVLci9URFBQWnFSbXVmaGZmS29TdzVuaVMwdzAvUFZhc3dQY1Q1N202OEdxZXFWT2p6TzlnM1BkTkV4dTdLejZSZGJ6T3BWNm5VNm15S2daRGxrSWlQdUpwRC9STnhuazVrM2FxWDArOEpobHNoRFFodCtHU3NSTk1ZYk5JQSszMjZTRTlLUXphOXNPK1FhNUY0ZW9Sc3VsQk94WTNYb3ZTYWZTRmwwOHo2V014MVh1RlpGd3NZUllDQXRtM2JsSC9kV0N3TGV3cS9GNkQ0U1NxNFdOaUkxeDdRemxFaVJMSHEzS2VweHErVHkvTzN5RXpqU2JSVlovMy9jVTJ4ajB5WE5hZTNKK3l3OUlhQ3B5aXBRcHkxeUZCank0bXNTNmZES1JBRTVLa29wYTN0SUcyOHZoY3BFWnlYMXJ4cG16YlliWFYrNVhiNHZUM2RJUGZPL0NjNDRBWHlmYXRqZFFqNUl2SnZkU0hPWW5weXZnWTZFZUJXMmlKenZyRHB2UGl0dFNaVmkvamZZV1QybGIvb2VwVlZXQjZUS3NDTWhPNUZXUHE4T3pGSlhpZHBEbXliSnN0TWhHQlVwWnlnQXBrNzM1NGZTYWRrYjBBcUt0ZUJhT2M5NEFqN0RsbXVrMXozeGVKdDhPdmc5ZVptZXZQVkNlb0ZydG0xU2wwZWxuclQvRmlKdUlLTzR4QTZ0dzB3QXdNc1ZTYWlMYlIwYUpTckNwa096TGd5SGxVckNFMFA5U1YwWGFLeVZzYUFmcC90bWwyWGZWM2t6WUFXMndIaU5acXNHOUFoNXh2NWZDLzh4QzZUeTVNZ2JmYzVNdW5KNFhSWmFOS21XdnVDVkVNRytTckExSGZXdWJ5cEtNK0RmK0w4ZkhEL05tM1VlVzRjZUlvS21SWlppeGw0czN2c0pCNXhjRStONWNtUXlUdGpmWXdzUjhLWGZjRDM1azRFRG8rSEpZYmllUGYrd29pTHQzZjU5RHdwa3V2aUU5eVZhbGp0MVZuYTZ0cWJkSGVFa2RNb0gxMFFEQ2xjQUhSTUUrRTg1VzR4SFJwaGZwQWl3SWFrSXVBdWZmWDdJa25TRjRlU2R2MEorNndjT2UwTk0rV29jc3dJM2tmdGVRaVpsbVdSOC9nY3hSOVNBeVZDaHZKSCt1SFRTdFlWdWF0N09KUk1DREUrbDVRRExkUURjN2FEN0NCQS84ZmVydTBRbDJJS3FsVWNBdmxXT3dRajcwZ3RNOXBIZ1huWlI0YVBJdnBLZnFJcHJReFpLajdKazhmSmhQbEl1VnRiVTMxWHNSMkdGZWtSV2FiSVdZSFcyejg4ZTFlM2xHMjdWaDYrdUNBc1ZaWnZMSjFZb2NDNXR5WmtueXVWOVY0bnhFMkE0dlZKRlVVUnRGeGZ1UkpGWU5NZERvSmFNY3hYbGVocDJuUnQxVS9XZjY5VlJoM0xkV1k0SE9ET0R1QjdNSEoyb3ZkWVRvaFlmL2hRMDIwNnpRaUdqcUs0Z2dzT0hDNXdpVEFRUUViSUJKd3VGYkZFVGRjQnZFclM4ZFMrUEl1bm9VRjQxd2haOXh2K2N4ODV6UGpoY3ExMTYzOWhOcXVUUkl3TCszWmc3a0IxalVMMmRaVlYrM244S281eitQQUR2bk9SdnBCcTdRVXZ1S3FaTlFrdGdpNDkrdnRPRlFsTEhueWY3Y3VGeTlsNThnc0YxVzRaN29YRGRhMVc4VHBKbTBtTXk0MHY4K0RqRUh3V1NwMlZLVW9SdWE4b1I0clFTdjQrWDNZb29kd053UFM5eUZ3Qng0cEVRR1JLREs4SXpjRUkzSlZKTGw4a1kvV2xoQVA4blp4ODV6c2w3aGpLYTdWRTlqTXh4ajNXNmRSNVRVMHhrSFpPcXY5aXRWeU5vUk01a2JsbGJzRW04c2wvL2pPd3g1UGZ0MzVUeEYrZGlmejVMSGw4dVZaQUpJNlZpbFVqVnRRWnZTeC9vYWVyVmRuWGJUbVZmVzdKMmJpRUlWc3lHSVR2bU93TnNPUi8xY2JibG9jZTVjZFFBL2tXdEJTWFBIU2xFb2VsRUJsRDNTRG5TcXpqSnRyRmdwd2pzSHVtaHFZREtJWEFlbEs5U2lsd1EzSUJZY0YxZlBrU3NFLy9XVkFFTzhIcWt6ZC9uSDF2TGFiZU00VUREQVIyRlhJQUVkT3RnWDJFMFBMVUtKQi9FVlo0bXFMTjJ3VGtZTGx1dGlENGRzc052RU1kOVFsbG1mOHRKNlNlZllrMlM0TFhsSU41RHczNHROTW1YNjdkV0hyaHNEcGtmK2lXbWZKUjZ2RE8xYzNBYnIzM1BzTVZIejJNYjIxZHJxc1RXaVNVN1JyTE1qVHdmVUtZWXBMSEc2K00vRm5LQWUrdFFNc2d0R3UwL3FyUlF0T0Z3NHMyUGRHT3h2MDU0M3ExeDdxeXpQU3k3T3VXck5jelpTNmVBK1NObExJdzdCbjc3WklKYTZTM21aYkhsSUo4UkpsU3RORGdRSXR1QTRJZFMvQ2dKRG5USzFrcXRHYUNrZWtqUjJjb3h2aEpwalRDa2ttUGxTU1VVUGVCWU9yb2VhWTVQNCtNYnVDYjE0eE1xYzlIY01GSktZczAyeEJBN0JGeXdCWU0vQkxSSWh0ODI3NkV4ZkdlcmpKZmhnWXh0MC9hZVd5QVg2MnlWTzVtaVhha01XSWJHWTRzdlpBRmtNbDd4V0ZlL0ZhT3hhaW1uOEdxZ3BHbjEwMkUxa0VjUzNHY2lxSjkyT2hpbGoyYlRuN3J4SytEVFZvOEh6ODYwWGdvTkYyeDZaQ3RNYVJjLzRBRE9rMmcvQkxEbEQvcThDMC8yTjNCa3J4SUQwenk3eVJST1ZFMVpjQ1ZlekNhdlBESTB4RUhCOStwRHNYcFJKdmVFTEV1dERSeFlDQjVKMFVXYVQ5VFJBUjdYZUo2ajRGUDJvSFVSa3ppdVZSRmVrWW9rakNneGRwU1NTcE0ydkszSVZrV0ZqcWNFcXVEeVhMSklCNmxSVUl1QXpTN3ZmU2hhQXVtbDdYalRQbE1JV05RSnFEalNLN2Y1L0FpYTlOS2FrQ1RSTVVWWndFaXA2bTQvTHF0bXBXYjhxT3dGQWJGeGp1cHFGYWxsb0lTeXNvaGVOS3BqZWwzYTlXTUpXVzVKTjd0NU1ZNlpwVk5oNTllYU0zRVBEbS9RdVlpUnBMMXRwU3JkQXd3bkg4OFc5Q0pscVFjaEVFNHg1V2MwRjNMZ2RuMEdkY1haemRUUnpmaEtnZkhpSWx6cnRJWGN1UGdLblprSkNSNmcxVFVTQjdRVlpJMmdZNjVBY2pMM05Ma1F2ZVZscjR6eG1RN0RlUlg1QmNtNGxXSkhJa2h3Zlk1ZUdNbndUWXJRUHBlSjZXYVRuejIzaTZ1VDVLSkQ1Vm9TWjFKL2pvUGU0TkJadm9nL2E1V3lCVFVLbkdrbUF4R29wMzBRcTNWT09teGRZNXk1N2NnRnBsYk5VbG9yVlYzSWptY1hvQUJwaW5va1BTdS9NRC8rUjI1ampSTG13Q3g1NEhsNEthOCtGRk1LcjRjNmZQSnQrVlUwSXMvNitXS3lyVGVlb3B3TnZsdWo3WG10ckVNUWdhK253RlJJdkVxUjY1SjBJUmlYamQ5RkJDbElTTEJSQmFQZXBoRlpxZjJPQXVxazdJV1RPcDFKaUdoVlFYdk5hNE8zVmxNbmV3YU9RWW1nNUNDYnNKVUk0bmFpcXBiY25KaG5hTlZ3TVU1UmZHamlKYkpIUkNacy9YSnpXd21mbjFLc3dhWDRHbEE1Q0ZyM0N5V3JOd2dzVU00c0FNT2ZhNm9ob1NBV2J1cDhsaVNqR1dKeXJVMW12MU10MlZmWmlyem1KOCtNY3BMYjFCTWlFQ3FOYWpKUStZVmppUjNiazZLRnBwS2pJVU4wc05TK1F0bTNTK1VHSXo5OWtWYzZkOGozVm1VUlR1Z3pKK3RTN2xXYTFGTlIxeEIwNk1ZMkRYS3Z6ZWMydHU3SmxOZmpraTd6VktoMXBQWjZlU3dWS3RFcG5wcnRwMlBwbTI2S0tBSmd6am1YUEd1UzNtNHgvSVBTcnlpQjdoNVpqZ2pZbytWN0xiVWF5YllwcXVDMlE5T1hpMXRjQk11ZjA3MVNjRVJPYVA0eUFDOEV5V0tzdGp2d3lMTkwxR3IxYkszZVlJcnYwZmw0M2piSnVraW1BbktVRHk1SU93V1E5R1dnRGVNT0tkZFFoMkxDQmdHYTVQR0RPeUFkaWJKYjhZWU11K2RQbzUwTy9aUXZsODVPaW9mczFTY3h3UVRES05vRU93Qy9vNmtNdFR2TE9PUitGNlVkZHFJbU1sa3VtOWorV1E1MDB5bXo5TUZNdDlIMHl3TlgxeTVGZm55VVNjM1BoQ0I4V3o2aXZJbTJKMG9xeG91T2NtZkYzMmVGRVVIdmx2djFCZnprdCtVNHZMTGlESURlSGZMc2IrTGdUWFdXaStWVTFyT1paWm02QkVoMXlHNEtLbEN4QldQcERiNVdid2FremphOFV4SXpGaXRSWkg3aHJ2TjZPdlRKQ2szM29kdE9uakliMXBrZmpoQkRIZWRLcFZvTDl4ajY1bFFMT0pkM2NTWFhqL3RWT3RJbElDUTc5KzlpL2VMVXNPSHcreEhXV1dXbWRhanBHZklCdE9KbkFpV3ROZXRHR0VzNHpoM2NreGNFam9tdFdvaWMwSTVTUmM3STQ3dFpaeC9aNTRpbjJPZTBCVXl1dmVXMUk5VHl2U0FiMU1ucldub0ZNODZCckR5b1Fob29XQVRXRzlmSkdORGNlRVN3elhsbWlidzdSM1F0T0Fra21NUW43VGhWRWpBTnpjSE1WY2MzTkpNUi8xZEZVRlh6WDV2MzBjY1p0TXFhNGx0MnRHMVNwVU54VktpcG9ubWN4aS9LS3UraWlVdkZCSGJFN25yK0dEVnQzMG15S1RucCt0bS9TWTlRNnc5M3IxTmw4aUZ3RzYrcFVYcjU1d2tOTkhTUEtWVTAxMGtxdUZJWmQrb1QweEtHZFVvVUZ5WjZRdDFmcWFzYXpMMlp0SnFxMktVcDFTelNXTEpJM2I1TGd3ek1xeTZ0bWZWcTBmZGd3V1E2WG43MDE1RnlwUmtYQmlkclgwc3hvLytmeWpGa0ZQa0dVbnVyMENMYnJOSktMM2xtanlvVmNxZnc0TzM0MVAxMHNpUGVlMmVZS2VaWmU1bE1kcVBtWUllTFZTdXRld2xPVUVZaGVNZlgzMFNSdWJERlF6SWZzREJNb3dXQ3Juc3B4ZzZmNTZPY1NWSy96bU1DNmJwNTg4SjNTT1FpaU5XTHZuR3BOZGpVcTNleGVLdldxbXE4a3cxcFJqUVE5RW9PNjBudUVVbjFKUjhyakFaRHRrbGh2aGF0WmIrSGVHOVJydnY3YlVTcmQ0K1F6RXVsWm9kMExwcWRJUVJHSDRJU1FQbDQyL2Z3K1FHRlQ5Qm45OWVKSmNEeFNYSFdEa0hTMDZsdFhSU0VXMVJwTjJkakowWUpwYzU5TUZaUVdVU3Z3L3cvWmJ1K2hPclpLeDIrWU9XcnlweDlvNk9aS243YjUxSGk0bGFtbjZaWitOSG1YMjVZV3pFYUlPejh2REZsVXNNNTZwajVacGd6L0oyNE03ZDlEeG9YU2x4WXpGRnJtTXFpUmFMTGttZGJZOXBZOFBmd3pBbGRWcDRLRFB1MW1oMlFRUnJEUDVkQzZoa2tEVXZ6YjduQVRvMmp2bjhTenc5NHYzSlRUNi9Ldlgwb1lTNlBkT25yS3BFbS8xaDcyN0oyU3hGTVFFTGwzdGgvbGZMa1ZGZ3ZhcGxKMXRxb1psU3g4WUVtQUN5SEs3VUVDdjF1UU9ZUmUvdllCK3RKdmhCUzBzU3luOXVEeldNanNYeVNUeWlqdmJqM01rWjhBVUJ2VGgweFc4dTNuYlBKMnV0MnJJc3NzK0hwY2RrQXpNcTVFakUwNXBKMGYzY0VrTkdlcjMxK2pyVDliTFVxMVVzblVpSllkWHRrSncxbTZrNElubnFTT3JvVHllUStlREhDM1ZxYkRwNXZEWldUeVN6V1piSUhXdzZSU2Rkb3BvdWpBcjlVY0lpV0ZmMkdtY2dyV0tXMm5qNlFqQzU4VVJDbjQyUE9qaGNvZFZwYVc0dzNxNG9wNU9sdHVycjJzLzk5SGRzMUdHd1lKMTRWMGxsV1doRERHU3NZUGFnR0g4d0pBekFBOU9IN2ZFajlqQ0NPekMrT2l1Z0l5R0hQajhaTlJhVVNNZDVPaStsNGdRSDI1VGhtejgxTkJ4cDlralh0dW5ENXZDVHlJallFMFpPL21MZ2VVemNFVFlKZFh5WHFBWTV6OStPOGNMS0R4M2thRFQrWUpBZlR6WklzWTNWU08veW9lUmhLVldUcGJiUVVzTzQ1RmtIQmhLVlE2d0hoQnAwOUZRaVNZZkIwU2pTaTIyTjIrMVM4ZS9MTSttWVM2NjFhS1ZhbThrbkpzdjQ0ajNCYituTmlYTXBUS1RpWUZHUlVqMkttaGdyNUVSUzNtb2dtMHphVVdxNnE2VGFtdzBxcjVFQisxak8vajVCLytKcWYvS0M0YmFhcnZlZXNGSmtxdjF4L0NGZlVxWitZaUlHbWZ3QVJ1QytSL3EvN3hNUG9La3p6TlZtVWxkVmM4MHl4Q0V5akJ2ODI4M3JWcENYbjhQVU5JbnJsRnc1WnpSdURTMlVISmQ4TVByZTUySlB1RUZwdEg0VHFhaEllOG8vZ3h4RnBCYndxWjY0V0xQYUJSbGN3Y2hDRFB5NWVYMzR0dDBHd2M5ZWM4aGpBUGxqNkQ2dCtkL0FHZXlZNm5ESWd4eFdzRWJhYWc5Yk5xQW81a1daczl0a0hkNmpHY05pYWdGWlcvVHA0b0ZMcmhKQVZDbmIzKzdUMGhFamJ4azNhRnQzanNVRzN3RXI3dTR1UHAyNG5yRDhGa211UzViWnBzZ3lYV2JTelViTlpQUzYrM1hCd3NOazRrZVVDZndXeGZuUlU1SXdsUXVCeXZXTWRQZWlIMnNadzBlOWVJMHNic3Q2bUI5Uk9WVU5XSHlXa1ZBdndBc1dtajhJZVYrd3ZxZFhpdGF1THo2YU0xemVzMGhRNU5sM1NuK2Z2WHdRNk9NRmliQ3I1SW15UDVWYVdIaVUzN082RHV5ZXN2VGxyVjJMLzNQVGRLNUt0ck96ZTVIMGVSd2I2Y1l1ZjZzNWQrc1BIOHA2WnFVU2RvVTBCVFYxNkZZQ0NwTWFvOVlZcUpvcGQ2RW5DU3YyeXRCb09tWERjcnZmekQwYlNnbEthOUk5dzRTeHNYTmhqcWpRZnp6bkd6SDNQM2QxeFA1T2IvMjZEMkJuL3RGa1JjRGtiOHV1YnB3Y3V4aVV0eWlwUEUreEtQTXRqZmRCa040VkJwMG8yeDBVaE1ZazFETG9CV2hGUWhlQnhuMEo5ZkNRR3dMeWpxL2Y2eUJXNFR2ZDBPN1ljUlN0eHpiaXlrNVJVMmJkc3Q1YUxoUkFEeGdpc1duVW9RYzhBaDJ5bDdaTVNkUjlNbWlQcXA0Z1QvZldYaW52dnQ2ejVMaVdGWi9oVnZsTHJJUllzdmd5ZTN5RE5UWWRMN3h5WnZrdk8rRVZ2dWVHMkxkLzYrY1Fock4yYzZVc2lOSk9DTVR5UytBVGl1T0J4cG5GdlhteUQyazhpenBaK3V1cDFEOGlZOGdEdDdZbmlYL01vNWM2RE1YTExZYzkvOWxoRmFqNVg1c0x5Y01wUEY2eDJESS9idTdWS3dGRno2ZTgyOG91SEVPb0FNYUt6UFdEaE9rbXZMWUFkQmVhYzU0V1RnK2pFdlRwK3BXMXhMWHZoeGVYZlRVTWcwbi9UanhNNFowclcyc1JreGpJT1YyV3dmRGpvcUhaRDIyNW43QlA2OElXVjNBN2ZBSy9FTU1nYXhua1NSMjMyVVlobTg1SjM4bm4rNjlEWk40enAvNjZoYm1HeG5yUGdUZUNHWkZ6bmZrU1h4QzBySklaOGxra0RQVWpnTmNoTE93NjIrN0lSemNlanlwWm5jYTZlOVN2WWZzR3VqaEE2a3JLbG5kZUdObDlOWlVwZE5weU9PUGNNRnR2Sis2aGtKUWVrZWNPQmhObnAxRE0yczZhbTlORW1uUzY2NzZNclkxOHZrT2pna09vcEl5T2ZmZDBicEJGRVlSZW10WnNIdGQzSmZrQ0R6aitCbVpudU5sY2dYWTRjR0ZQWi90bGwvTk5KdmFXWjF1ajBrZ2ZFeWY4RTBML0wyVHVIeUdKVEszOStaL1M2RVM1bm5iQjlaalNXRzI1dksxRGYvTWtaOWJNVm5EbUZEeHF2bnAxeXV4endhZFNBNnBtM0pvanlXMWhiN3IwRWFSMk83dHRZYnJNcEc2a1FtMzRMRnd0Q0JyeUlSenNpV0hSWDVRUWZhR2hDMkZNTzl5N1ZEd1dnTzdpWFBjRWwvRzVWdGExRDJaOSt0NWJZVmN6QjUrWjF0RTIvMUZsaUR6N2NZUzd0MVNJY2F1NXkwSFJWWGpSMXl4NSs4cmpwN1BkR2J2WksyVlRnYTJmNm9tUUNTaktoNDhBUDBGY3owSExCT2pxMEFNWkE3aFhiRkRRUXhUaUxyL2hDdVYzQTJLSElhMWNBWnpTRFAxUmxsNGRoZWNPRU5oVXRPZVNwenRqMFh0SW51b21lVzlsQllQY01vdzlsYjd1OE1DSDFMQTdaUHFmNWxBYmN0MnUvL3RkVGpXdWFDOHBaaUhVM1kyOXplVjlIY3ZtdUpTWFJ0cVQ3NlRwbm81SUxqWnZlRlhWRDVvU0tLZC9sVTA3UFUzV3hzNUs2UGlKYjlQVDZIN3Jkdld6RUlpVGhPYnB1MlMwVnJyWFJLUHhhdzBXZVc3Ly92MkYrZ040S1NaekM3bXRhMm1odXU4c2FPSStQVEFoT3FPUzJkNndsTWE3QjU1blUzNnd3OFg2bVlKbFBDcnRJUjY4djdSMEMydXJuR3U5V3BEMXVXM2R4OVgrQnQwM1hqN3NoUTJOUFNqdkFNQ0RMQ0ttM0EySEVDbDJXc1pBT0F1UHp2Q0FWUGkvSjBFaHlld0VqSlRCWFg1NkU0Tys2MlZyQXUzeWlXNmdFOTRvMGJiYzNGa2FGQUN5c3I1SmRYZURjaHJCdjdFQzh0d3U5QWpqRUJXZEI0eUI5YVh1L0dzVWxFTzZ2L0NZemg4TFFmN1NKRUpyY0RPOUs1ZHJjdjlVbTRIcjA5MU5rYXdEbnk1R1pxelkyNmpYWWxaNlhwSWVKeG93dGJTdE1lbk1nRGErbFV3MUk3ZUw0SmZKU0w4dDZKaE5IRCtEYjJ6TGk5NnFjT0dWb3V6Smk3emVLSUw1TEYwNXI2dkRoTXJJSzhTczVhRGdqelpYNDFMUmdqZGlPTkxPSWlBUHBZYXY5Wk04SjV4S0pkQ1FnMDZWT2pZTHdKODdEWlVaYzhaZVpsUHlYNzM5Yk1oZG1tSU4xZFM3OUFPMEUxK01jaGxHZTVlNE02MG5VWVRHVHZPNnZGZHJYODJ2QXZicGE5dVJJV3VUYmNjT0hHTzNmYyt0b0JnUmlwQjB4RVErQm9HOFdXajEzQjUxejVtNjRhdE9NbFBKbUpsbU45cU1jdlcrd3R1bSsxZHVGeDEvb0hFdlpjOWxLanFNOUhla2ZhN0czNnhyS09WeHdSeWpuWWlscVN4WkpkUHo2bDJJK3ZEZm9DWU81aEswM0lSNmk1SU1Lb056TVM1SlJ5QmhrSXNYSXFWWVljZ0RUSzFYa25lelRKZjV6N2Z1N0QveXkzU250V0hLSHdhV1hzRGlJMDZ1VjNsc2F5QVloUnQxZ3AzL2xoR3hSSnlJbENEbDNuNW9nWXVlT1VRWk9xUTdlcjRpL0k1dEl1Rm1tekRWZVFQbFU5ZG0xVmJWWkROQms4eEJ5T0ZVOWxBeU9zVG1nTkpWSEV0Qk01alhuc1YxYittYno3eGNkRHBuUTA5ZDJpdmVxUDNHUm54dU1OQzkvVzNCRDI2U1d0cHRSTW1WSFV6eEV1RzRySmdieDdidjNaSmhuVTYvWUN5WmovUXVPeGVmWEVvdTRoYVJrVHBYdVo1SUZZZUxWYStlRmpHYTdreVhlcUJGYk9Kak8xNXdsdWo4ODlZcDY1TjQrRmhRSGkrZnc5dWluSTRiUFdsSXZGRFRFc3hjaTMxeExpc3IxRXlBYmJYaHlZYml5RHJQdk43Y3dkM3huYzllcW15L3hiN1U3VjZmNzdRK21OdmVoTktleWdaODlUN3FkRDNiczFTWkU3N3h3QUt2Qk9xakF5dnNybTYvTmNLZ21iUHN4TFFNOWhLT21YaDhqZVhYS0FhN1NwbGdJWGw5czJLSTQrUTdOdFNCMGljdDFxMDRaNlR3U0lXSFd1SXI1Znhlck5KWFpPMWt5Zkxqc2dPcE9kQ0dIRUs1RzFtZnhiWE5KQWJaSkhXRGVramZ5eUZwK2VCYmdNc0UxQ3dNekt1eUtpSkt4WUlmVDBJVXlXcHdocWtNc3NIWk81WGJ1bDJDOTVLdEhtZ1JlRlVoenZEZnl0NW5ZRGFaSHpOSWVrb3BrNzB6T1pRVTZ1dVlsTVFIck43R2JhdjkxbVdvTHZYZEZ5WDhaYnRlNGJGOUJPZWlUc0VvUzhkQ29SNzJTbDQya3RRNEFUbGxyYVd6NGFJallZTkVyOW1PTzgwOExBZ053dmpGN2o4QW44dUk4VUI4UUdCZ2VJQ2UxWGprV1dsY2NJa28zU2NIWFRoMFcrUWh3MFRJUFg0RzJ3QWxEaWovSDBKUXJWL3RUUFF4eTFlRXN0a2N5SkprOEVmVVRqMTk4NUZ0VGFqZ1VhaS9vMXpXeG5vNFdWYm1DN1NCVTV6a2xEbG1xVjJvT202VC81bkdVR3ZlMjh2QVVyU2FiRU9HTkdrUlQxNG5CQ2x5d3pyNUZwVnZnUjhKTDRUUEIveXAzQTEweStaWDJSKzl4N3B3eVRuMWQwTGt4MlpRZXRiYTV0Z21BSFpTK1VReVdoT0FrS2N6UUZydUlOZXh6SitZMlFwWXVXQ0Z1U3EvdmlWYnBna1BqSVlEUFc0RmZML09tQWF3WDNvYXZSRmN4Si84UTllNmxFUjVPb212ejlkeCsvOTRTQ1ZlTjgwOGdZeFhlTVNkUkp1M3VLdXpCL0JzUWFNQUVKWVdybU50Tk93aHF5SFkxa3VzaVZnaklHQ21HSGo1NFZtTDlRdElhSWdYNVNLZENDbXdmNGJ2TVhlZHBTYkIrbVVLTkZsQythMjBCUTcrZ3lSK3UzTEMwdFlpcGZaVUxqZmhJQ2M3amorZk5PZmw4Smo1Q04rRVlza2tZcFFjeWlmTTNUZG1SZUdpQjByRDVmMVA1eXN1eUZyU3BpT3pyd29PNUpLVm1FVytBM09lK0JyNEhybWFpenQ3ZmVCWVFVOS9qc0FGMStrRDFEQ0F4TStHS0FRd0U3b1d5c3psWTVQOWJlNUp4cG4xNGR5eG50T2IzQ0pRSkY2UFZIVDFIUHFnWkNnTkZ4ekRuVUxWQldmOVpkK3NsTDR1cDZCR1pRM2MvTC9Nb1dRLy9xcjRaT0QxeStJOFAra0prdTYxcnlzeU1zeUp2c3UrMG82dnhPdTR4WW9GdnNZQy9vNUVrRlg3OWVGcFVXbURWakV2UkpRVUl3U1NLRHcrY1NFQ09rYjhvYmJuTzhYWlJPUzBzQitxUHgxdEYwNERWSXdkc2IreUZZc0NOeEEwdzJIeSs0Q1dXQXlVSDMrTjVmM1NidGU4SlhnN1FuYVZKMkpXdVJXYkxNLzF0NXZDYnJzd2Y5cng3Y1hNWU9vZExUWVp6NTRlWnpXTjBjOEVISU9TOGg2TTVXMW9ZMTBQdS91azBtNXRTVEorNTBxUC96Y2d2UkxKbDF6Nmo3N09ZekJ3Z3M5ZHZ4QXRoMzZOUm1raURIR3hsRENwak9mSjVSeWdaQkR6U01jQVpZVVZNS3djVU1IQmowbzF0SkJmOUEya0cxVDJPczl4c2N5YnE0YWFyRUZ3SExyMy9wd2VFMmcrK2E0OXZLUjR1cHFLOVUxSDhxR1ZXeG4weS9qUVhja3VGUHp3aWtUM2xyNncrSlJwQlo4MHNYVmxkYkFGU1pGdEdjd0RpYzJNL0NCckJraTFpVTF1bzcxeVBqUFc5WHV4OTBDNk1KK294c3Ftb1dzYldWZ2p4UXlITFFSZjNDaDFKOEZsck1aMWpiUk5OQzZtZnFqR1hoQ3p3Q1VTaGJ4OFBTcWFKRHZBT3E3VmhaVEJGSXhMT0ExaUxsQ1BSaVhxSFI0eSsrMmh6KzBxdnZiclBUS1JZblczVFBlb2YzN1dXL2FzbnhaZTMxbGUvcGYzZ2czeUNSWWhrdXJEWlNPSDBLWGVoS1paM21LR1BhREl6MnRCMjd4UEZiTVl1dTN0d2wwZUxrZFNSQzRIdWJsRitHd2dMSjc4dFdqbmI4YmpVRFlvSzZ0Mnk3eHd1ckxUY2NndFdXQkpvRDlDZGsxNi8zNC9ZdmNMVTJZbzdBZnk5LzZFV2hHdmtIK1RTMmZzU3VpY0U5eTFjTHRpUnFmenk3U0lJUEFDcHFGZGFKR0FsaStLZVZKb3o4b1FSbEFhOE1Ma0FEMXFxMlJ4RXh1Q0ZzVFAzK0hFKy9sc1ZqRmRoSnU5M0dnMjRxSHJ5elRkUDArcVVhUTJFMEZnOVVjM3NkQ3ROWVhQcjR3c3JCMEpudmxEd21MVjhPZm1kVmtTeDg0ekdaRFR2Uy9FSnNMU3d0VDI5Mi91dmhydUpjNjZKc3NCalpHTXVjUkxDMDlWdnA0UkcrSk1YdFVUNXdmcEZmN01qc2g1VjYrTHZCYjgyN2NXVHNYaDJvWFRVNUUxdmV4Q09tc1dKUEovUk5QUUhGS0xNeXNzQzF0ckxWdDdPTmVpS1ZheG13K0N3dS9jSVRPOGVoVnVxbWRYY2dab1MyT1F2eVFQS2ttb0REMjE3ZWdGZnM2V05peU5ENHNibVgzbEh4bXkybjg5aGVSTzZNdTdCU2M0aVEzaTl2SFRPd1dISEh1SEd6TlIxUlpWeE9WMzlob3BHRmpRdGo2aFZMLzJvVWFrbkZkOUs5WE85NEUraG4xK3BiS0ZabVlxa1YyMVBQTGMzWEdxc3JHaDYwUGJTci8xc1FZUnJ4aTRXa1RyVlJiSGFGVlRNOHQ5K0U0SzlrMDR2c3lNZGhKRExZU1EvdXdkalFRZ0xOcEhjZWEvb2ZPcjc3SUhLQzRqR0hPR0MyczJTU3RCMFU5cVFock9OaTkzRDdES0lodG5EU1NGRnNGU2s3Y2xnSndQemJWcWN1UjI1WWlCQWI3cmJld2RYVHUzOHJpNkhRTmx5WUQ1b1g1QnI2RFE4NW42cExTOFB2N2tJWFQ3NDZqUVRjK2IzclZkcTAxQ0hiNGJQOGV1cmVOMGlzdE9ZYkhQUDVaY3F1VmFITzcvZmdmWU5aR2NPcVU3aGFiWmdGQjIyb0trTzh0Q2dIVmhsMVQ0cFRyQ3NGb0EwUzRvSUJXdG9rL3NKY2J1SGJFNUovb0xtWGc5N2tHclViZ25LOVFBYVVJQ3MxeWMxUmEzbDJGRWJHaVp6eTdjK2cvdlpIUlNpQ25oNkVtNjZ2U2RYNzdoYWFBODJaUm5keTVITCtjWi9RaVpXYnB3WWVoakdhNlNRakpGM1phclFmc0ZhTUFpLzM2aVl4L1pJMUs3ZnNHSko1SXMxQnFVNE9FNTlvVm5RemVmLzJBcW9aY2toL0UwSDdYenA2MXBJcWZiNVRBY3BJUjFiOG5oVDVLN3MvcWlkK0N3VUloVDg2amM3YU8xWEcvdWw0WWtkWFpCeVU2bFNVckc1SVBuTnBhOXpSRHBvOVgyMHF4a3hiTVRWc1kwUnRXSjB6OXdzNjRPeFBtQ0Qzem5HdjVhcFZEY1RzSklrUzZUcU1TN3lkS0ZYMmYwZW5mek9UcVE5TnNoNUJ6UUwvb2lRMEZDSEo0WUY4Vm9TNkRHQkFjbHpvZzJVMkxTTTQrbVJKZ0FIa283Y0dpMzRlR1lCSDFNVE1KZytYNzJud3FKbGxmb1BtY2x5bm9ZdEVNelZXRWtVZ2l1a1pVRzMzbXNtYmk5NDY3Zk13N1hHSkZidDBJdEJ0SHZCN3hyUWhNcTZiUWJWTUVpem9wUUJVcWdCNFlFSVlrY05BOFJrNXRFVWRRcHpXRDB3eUNuSGpJRjIwRG00dTF0bmVVQ2dkVE1jODllNDVMdDQ4RmpaMUpKeW10bW9aSEMxQUY2UnNFRGFGMjRLZjNuNE95c0tIWVZwVU9BZU05amtUZWFuenNUcmNSc29wUHJjK1h4aS95NmhxditKRmtnUkFLOXE3VWJBWjNWODRkS0lFSkN5TVViVWljWVRnNkcrTytuVWlwY3RUNWNiSDdRYmdXaXFTSG15YnZNeld1L1ZpM0ZORUZQTnRQWWVBV0tHNzhlYWJXT2RRQmQrRUZmRnU3YlluQmRtSDE1b29HaHZZTlVCNERFUnlyMURCR1FJL3k3QkM3dWRBcHFvdERoV0Y0VnROQ2pmQ29QcmFGM24rUUpUMEwrbURUUW1GN285NjdyWGJiMzNrKzhpTUl5ZVd4eTE2MWZGMXNPa1hKZzFrSFhGVXBheDVHTTBmcWZadnVQUjBySXFuUjlKM3RWS3NjZ2h5RkpyL3VSdS9GWjFHcEVCZlRqSHRvNWhJMUZpdFhJaDJnQmJTSGd4bWdpd216Y2dKU21kZnJmM0JPb1Mxd3hOQXJGQ0N6ZGlPUm90UytaQXR0QTFueEsrQjNqalVNczBvYnF2cHJ0YmlZN0p3MDlESjFlU0NweGlwaFRYc0hSNUN0L01ac2NKT0N5WFZ2dFUvV2k0Ky9OUytNdE0rTlBoaGgvanErYjRQS3ByREdJNUZQMVIwS0tiOTNJOWhwZnIweEJRcVNSeWppeXpEMDBJOEJQRU5tNzdNd1VHWFAvTDFpdXN4S293a2RPY3cxMFluK2JXNUQ1WDlyRU4vVnhzanUyMEZVRU1qSmRTcXlPTGwyMExIeGJZK09kek4vWm5pYktGaElvVDRTMmZMSytmMnhZWjNxaVM2enphU2V0N3V6dG1adjZuUk13c2hRVTF4Q2VUUDZTc1F2eGFuYVhHWWpNcEVxZnRNaHV0eW5VeU43MDJPNDIyRURLckJockNIUWpjaDFVNU4zdlNWR01hVVFzREJ1SkRPOXZEUzVNVXNCcHlHZkt3NDZBSVNDUHFQbi9FbFdVOFdSR2FBZ3FETFIrWkxTR2ltOWZJZ1dwcisrMng4OXlqZlBOckJIOGJsazNoODU0T2ZIV2FxQ3A0VjczaUF4KzZicHhtNW9xOE9zUGFmZGZuYXd0YzB1TU1oWmZjY2JyTkRydXQzeEZPb1pJMFhlcUhmcDJNOTgyRFVzYjJkbjI5ODFyMDc3OGYwY2FRcURRRXZLYms3aFhSOWhOMG9rVHdaWURNTTAxTVZPbklVaklydHVLLzd5dmkrSm0wNExLT1JWd1phVmdZNEFIekNxSG54RFZuVzJheTV0K0JKTWRYNHlzYmF3K3FwR21GT2grZFZLTmtLOEVmYkR1MEV3MWRGU05OeEhhZUw4Y3Vud3ZUVjAwTGlMWjJpU1pTTDJjNTNGbHR3Y2s2a2dBckJPckk4Ly9URVFKUlJzWTBtOEt4SytVbkZUdit5R0tpbU01UVJFL2RKdVY5OUNuTitPdndBcU9nR0tuNHdHZnVUTFY1SnRJMDZ3QUdrcEFGQjdSZ2Q2Zmk3OVQrWlpQeDJSVCtsYUZZU2dRM3NsR1NwNVFydjJuUVJPZHF2bnVaMzUrTC84M3YvN21kcThpZktic3NBOFQ5MDNvVlZzTkJTdk5yN1diMlh2aEV2WVJGWHZIUHEwcjY1M0lmTmFoVUxzQlFScE9ZMmxDTkJWRk4yYjhKU1BuWVBWRW9wb2pFaEJ2cWpTeVBLUk96d2tuM2E0Nnp0bkhQOGZkL0VpYi9aTzVqRjBHMDlSRmpPeVdNZVlBdlZFdkNiN1lWaWJXbTVlakV1clY0TFhrTE44NE54ZVlEem9tYWMyVzQ3K0xOY1pMbHlTN1dXNGJ5cVI1dFJvSHhTenM4V0ovNlRIaHZpTm9FYzM4Wk1oazNmOVRLTy9DOXMwRWZleTg5UEVpRjFseXQ0ZHZZdWdiSk5xalVUUVU5M1B3NVBMOE1DZktZOGtTRHpEbDRJZlNBaDJKcmxZOSs5Q3RlVG9oK1VoSEZEdFdnZVVndmZJaGVhSjd5cU1jdDBBem8rL2I3Nm5PdkJ2UmYrNVlHTEQvMStMelpkZm9YK25ZTkowby9VYnJDaVdTV2YvdWFwTGwrOHMzTCs4OUxmNjdlZ0RoSUpXRjk1ekV2emQwZE1yUkd1QjBMQlpabU43RUFwRVdUdEFLQnlVM3J1RWt1N0JNaXNDcFhPZ0U3UWo3SkdFeWp0czV3em1wQXE3bHRsemZUUGVrc0tLQWR6T0JLN0dVSkVRdFdRSGFQbmxpODNpcThhdUdWOE96SnNGdU9qdFpIYWdkTjMzWllicllYZk5jYjQwSnliM1pHTWhYR09IcnhWYlA4UHhKQ1RFYlg4RTJNckVkVTFkVHVJeVF3R3VuY3kzc1ZNdWpjN0NNeEg0a2JlUFBCWjc3RGk3OTZabWZId1FBUWxJU2phV1A2TXpFRTJQV20xbVAxT0dhNlBDalRNR2tXeVUycmZ4Z1dxOGQzZ0FiK3VvaUQyWVZPZ0Q0NEwrbHFmY09oYTRyWk1aK0lsSFJaOU1HN3RUVW5lMm9QbGovWnNQbzE3L2ZDUzhJRTJ3UENXU0RtbjloaDRJVUowbWp1VEN4RUY3V1pBWUE0SDhBa0s4ZzF0WUFpdGtBMnlCUTJnckFOUTdRMnNmUmR3MkJJR09PT3JJUGRQb2ZnT29CVkZVRFdmdlNrYndIR28wRmlLcUF4QjRERjdzQ3FPb0RGTjBjL2FpcEFBMmdBYnJXQTZIaUFDdUFQL3BNbnNCTlVzQlhOK0FwYXgvL3M0NU9CU3JkQUFBNUJ5N2FERVFxQXVRQXhlZzVuUUVCd2dCSkw0RFlYZ0tCZlFSTW5STCtNNzdjWjBCV0ZFQWtCeHg3TXZyQVBnR0d2UUZpL2dTWVBSMzlZRVNRcEM3Z2ExZUJVRDVBWUsrQlNMTFJmKzJYZWJUY0FVTmhvNWNWQ1R4RkJTdzVnTkN1QTQ3R2dEaTJBbzZOQUZKQUF1QWdsV1BpTDRBalFsNDQyYUlHSW9ua2dnSUR5V05HTHppVUI2R3hNdytCd2VZOGxFeXNlUVFFUk9kaHVPR0NPQkJveHF0b3BxS1cxK0tQalRJdnRLRmpSOXdYeW9RV2VRUDFTQWlTTGhVQm5ZVWI3VTBJT2FSaXhMaDZNR2FWN2NSczJoNURzSU1HeHZqT0pDSUdDMDlwNFVaeUhRMDAwalhIS2xLcnBCVUpYcFRnM2NJZHFrVDA3Y1YwQVhOMDJBYlJkYWJTY1dKZTR3bjZXM3ZZUmxoNkp1b3dnTm8xMU1wNnlVNjlMU05ZMWdwbDJBNHNWYldnUUZVWSk7JiN4YTsgICAgICAgICAgfSYjeGE7ICAgIDwvc3R5bGU+JiN4YTsgICAgJiN4YTsgIDwvZGVmcz4mI3hhOyAgPHJlY3QgZmlsbD0iI2ZmZmZmZiIgaGVpZ2h0PSIxNjUwLjM0MTIxNDkxMjQ2NDIiIHdpZHRoPSIzMDAwLjg4OTIzMTcwMTY3NjYiIHk9IjAiIHg9IjAiLz48ZyB0cmFuc2Zvcm09InRyYW5zbGF0ZSgxMCAxMCkgcm90YXRlKDAgMTQwLjkyMzk1MDE5NTMxMjUgMTcuNSkiPjx0ZXh0IGRpcmVjdGlvbj0ibHRyIiBzdHlsZT0id2hpdGUtc3BhY2U6IHByZTsiIHRleHQtYW5jaG9yPSJzdGFydCIgZmlsbD0iIzFlMWUxZSIgZm9udC1zaXplPSIyOHB4IiBmb250LWZhbWlseT0iVmlyZ2lsLCBTZWdvZSBVSSBFbW9qaSIgeT0iMjQuNjY4IiB4PSIwIj5EZXNpZ24gVGlja2V0bWFzdGVyPC90ZXh0PjwvZz48ZyB0cmFuc2Zvcm09InRyYW5zbGF0ZSgxMi4zODM1NTg1MzQ2Nzg3NDEgNTMuMzk0NTMxMjUpIHJvdGF0ZSgwIDM1MS42OTU3Mzk3NDYwOTM3NSAyMCkiPjx0ZXh0IGRpcmVjdGlvbj0ibHRyIiBzdHlsZT0id2hpdGUtc3BhY2U6IHByZTsiIHRleHQtYW5jaG9yPSJzdGFydCIgZmlsbD0iIzFlMWUxZSIgZm9udC1zaXplPSIxNnB4IiBmb250LWZhbWlseT0iVmlyZ2lsLCBTZWdvZSBVSSBFbW9qaSIgeT0iMTQuMDk2IiB4PSIwIj5UaWNrZXRtYXN0ZXIgaXMgYW4gb25saW5lIHBsYXRmb3JtIHRoYXQgYWxsb3dzIHVzZXJzIHRvIHB1cmNoYXNlIHRpY2tldHMgZm9yIGNvbmNlcnRzLCA8L3RleHQ+PHRleHQgZGlyZWN0aW9uPSJsdHIiIHN0eWxlPSJ3aGl0ZS1zcGFjZTogcHJlOyIgdGV4dC1hbmNob3I9InN0YXJ0IiBmaWxsPSIjMWUxZTFlIiBmb250LXNpemU9IjE2cHgiIGZvbnQtZmFtaWx5PSJWaXJnaWwsIFNlZ29lIFVJIEVtb2ppIiB5PSIzNC4wOTYwMDAwMDAwMDAwMDQiIHg9IjAiPnNwb3J0cyBldmVudHMsIHRoZWF0ZXIsIGFuZCBvdGhlciBsaXZlIGVudGVydGFpbm1lbnQuIEhhcyB+MTAwTSBEQVU8L3RleHQ+PC9nPjxnIHRyYW5zZm9ybT0idHJhbnNsYXRlKDM4LjIxMzM5ODgyMjYyNTMyIDMwMi4zMjEzNTYxNTA2OTIyKSByb3RhdGUoMCA3Ni45ODgyODEyNSA1OS4wMDE5NTMxMjUpIiBzdHJva2UtbGluZWNhcD0icm91bmQiPjxwYXRoIGZpbGw9IiNmZmZmZmYiIHN0cm9rZS13aWR0aD0iMCIgc3Ryb2tlPSJub25lIiBkPSJNMjkuNSAwIEM1Ny45OCAtMS40NywgOTEuNDEgMy4yNCwgMTI0LjQ4IDAgQzE0Ny40NiAtMS41OCwgMTUxLjg1IDExLjMsIDE1My45OCAyOS41IEMxNTYuMDUgNDQuOTIsIDE1MS4xOCA1Ny40MywgMTUzLjk4IDg4LjUgQzE1NC42NiAxMDkuODIsIDE0Ni45OCAxMjAuMDksIDEyNC40OCAxMTggQzkyLjk4IDEyMS45NSwgNjEuOSAxMjAuODksIDI5LjUgMTE4IEMxMS4xIDExOC42OCwgMi40IDEwOC43LCAwIDg4LjUgQzIuNDEgNzUuODUsIDEuMTYgNTkuMDIsIDAgMjkuNSBDMC45MSAxMS44NiwgMTEuOTcgLTEuNTIsIDI5LjUgMCIvPjxwYXRoIGZpbGw9Im5vbmUiIHN0cm9rZS13aWR0aD0iMSIgc3Ryb2tlPSIjMWUxZTFlIiBkPSJNMjkuNSAwIEM2OC42MSAyLjM5LCAxMDUuNjcgMi40MiwgMTI0LjQ4IDAgTTI5LjUgMCBDNjQuMzEgLTAuMTMsIDk4LjQ4IDAuNDksIDEyNC40OCAwIE0xMjQuNDggMCBDMTQyLjg1IDAuMTUsIDE1My44IDEwLjU1LCAxNTMuOTggMjkuNSBNMTI0LjQ4IDAgQzE0Ni4wOSAtMS43NSwgMTUyLjQ0IDkuODMsIDE1My45OCAyOS41IE0xNTMuOTggMjkuNSBDMTU1LjQ1IDQ5LjQyLCAxNTEuNTQgNzMuNTIsIDE1My45OCA4OC41IE0xNTMuOTggMjkuNSBDMTU0LjQ1IDUyLjYzLCAxNTQuNDEgNzcuMSwgMTUzLjk4IDg4LjUgTTE1My45OCA4OC41IEMxNTUuMzIgMTA5LjE3LCAxNDUuMzQgMTE2LjA0LCAxMjQuNDggMTE4IE0xNTMuOTggODguNSBDMTUzLjk5IDExMC40LCAxNDIuMjUgMTE4LjczLCAxMjQuNDggMTE4IE0xMjQuNDggMTE4IEMxMDIuMjMgMTE2LjY1LCA3OS42OSAxMTcuOTksIDI5LjUgMTE4IE0xMjQuNDggMTE4IEM4OC44MyAxMTguNTksIDUyLjgxIDExOS4yNSwgMjkuNSAxMTggTTI5LjUgMTE4IEMxMC4zNSAxMTYuMjQsIDEuNDMgMTA2LjI5LCAwIDg4LjUgTTI5LjUgMTE4IEM4LjQxIDExOC41OCwgLTAuMTMgMTA4LjIyLCAwIDg4LjUgTTAgODguNSBDMC40OSA2OS42NCwgMi4wNCA1NC44MywgMCAyOS41IE0wIDg4LjUgQzEuMDkgNzIuNDUsIDEuMTEgNTcuODksIDAgMjkuNSBNMCAyOS41IEMtMS4zNiAxMC40MiwgMTAuNyAtMS4xNCwgMjkuNSAwIE0wIDI5LjUgQy0xLjA5IDEwLjIyLCA5Ljg3IC0wLjIyLCAyOS41IDAiLz48L2c+PGcgdHJhbnNmb3JtPSJ0cmFuc2xhdGUoNTIuMzAxNzM5NTgxOTAyNjY2IDM0OC44MjMzMDkyNzU2OTIyKSByb3RhdGUoMCA2Mi44OTk5NDA0OTA3MjI2NTYgMTIuNSkiPjx0ZXh0IGRpcmVjdGlvbj0ibHRyIiBzdHlsZT0id2hpdGUtc3BhY2U6IHByZTsiIHRleHQtYW5jaG9yPSJtaWRkbGUiIGZpbGw9IiMxZTFlMWUiIGZvbnQtc2l6ZT0iMjBweCIgZm9udC1mYW1pbHk9IlZpcmdpbCwgU2Vnb2UgVUkgRW1vamkiIHk9IjE3LjYxOTk5OTk5OTk5OTk5NyIgeD0iNjIuODk5OTQwNDkwNzIyNjU2Ij5SZXF1aXJlbWVudHM8L3RleHQ+PC9nPjxnIHRyYW5zZm9ybT0idHJhbnNsYXRlKDIwLjAyOTgwNTA3MjYyNTMyMiAyODAuMTA2NTEyNDAwNjkyMikgcm90YXRlKDAgMjQuOTA4MjAzMTI1IDI0LjkwODIwMzEyNSkiIHN0cm9rZS1saW5lY2FwPSJyb3VuZCI+PHBhdGggZmlsbD0ibm9uZSIgc3Ryb2tlLXdpZHRoPSIwLjUiIHN0cm9rZT0iIzI5OWE4ZCIgZD0iTTYuMzYgOC4xNyBDNi4zNiA4LjE3LCA2LjM2IDguMTcsIDYuMzYgOC4xNyBNNi4zNiA4LjE3IEM2LjM2IDguMTcsIDYuMzYgOC4xNywgNi4zNiA4LjE3IE0yLjE2IDE5LjEgQzguMzUgMTIuMDUsIDEzLjQ2IDYuODUsIDE2LjU5IDIuNSBNMi4xNiAxOS4xIEM1LjcxIDE1LCA5LjI5IDEwLjc4LCAxNi41OSAyLjUgTTEuOSAyNS41IEM4LjcgMTkuMjcsIDE1LjI0IDEwLjg4LCAyMy41NSAwLjU5IE0xLjkgMjUuNSBDNi45NSAxOS42MywgMTIuNiAxMy45MSwgMjMuNTUgMC41OSBNMi45NSAzMC4zOSBDOS4wMyAyNC41OSwgMTQuODYgMTcuNTQsIDI3Ljg4IDEuNzEgTTIuOTUgMzAuMzkgQzEyLjI2IDIwLjA5LCAyMS4wOSA5LjksIDI3Ljg4IDEuNzEgTTQgMzUuMjggQzEyLjE3IDI0LjMzLCAyMS4wNiAxNS4wNywgMzIuMjEgMi44MiBNNCAzNS4yOCBDMTMuMjIgMjUuMTYsIDIyLjUyIDE0LjE3LCAzMi4yMSAyLjgyIE01LjA1IDQwLjE2IEMxMy4wNSAzMS4xNiwgMjIuMzcgMjEuMjgsIDM2LjU0IDMuOTQgTTUuMDUgNDAuMTYgQzEyLjE0IDMxLjc2LCAyMC4zMiAyMi42NCwgMzYuNTQgMy45NCBNOC4wNyA0Mi43OSBDMjAuMDggMjkuMjEsIDMyLjE1IDE2LjgyLCA0MC4yMSA1LjgxIE04LjA3IDQyLjc5IEMxOS4zNCAzMC42LCAzMC4wNSAxNy43NiwgNDAuMjEgNS44MSBNMTEuNzQgNDQuNjYgQzE3LjcgMzcuNDUsIDI0Ljc5IDI4LjAxLCA0Mi41OCA5LjE5IE0xMS43NCA0NC42NiBDMjAuNTggMzQuNTMsIDI5LjU2IDI0LjI3LCA0Mi41OCA5LjE5IE0xNC43NiA0Ny4yOCBDMjcuMzggMzIuNDIsIDM5LjA1IDIwLjEsIDQ0Ljk0IDEyLjU2IE0xNC43NiA0Ny4yOCBDMjYuMzQgMzQuMiwgMzYuNjggMjIuMDcsIDQ0Ljk0IDEyLjU2IE0xOC40NCA0OS4xNSBDMjcuMzEgMzkuMzIsIDM0LjczIDI5LCA0Ny4zIDE1Ljk0IE0xOC40NCA0OS4xNSBDMjcuNDkgMzguODEsIDM3LjY2IDI3LjU0LCA0Ny4zIDE1Ljk0IE0yNC4wOCA0OC43NiBDMzMuMTMgMzguNjYsIDQyLjU5IDI2LjczLCA0OS4wMSAyMC4wOCBNMjQuMDggNDguNzYgQzMzLjggMzguMDMsIDQzLjA1IDI2LjcsIDQ5LjAxIDIwLjA4IE0yOS43MiA0OC4zNiBDMzYuMDcgNDIuMjcsIDQxLjY2IDM0LjIxLCA0OC43NSAyNi40OCBNMjkuNzIgNDguMzYgQzM2LjE4IDQxLjIyLCA0Mi4xMyAzMy44MSwgNDguNzUgMjYuNDggTTM2LjAyIDQ3LjIxIEMzOS45NiA0MC44OSwgNDYuMzcgMzUuMTcsIDQ4LjQ5IDMyLjg3IE0zNi4wMiA0Ny4yMSBDMzguNzEgNDMuMzcsIDQyLjcyIDQwLjQxLCA0OC40OSAzMi44NyBNNC43NSA0MC4yNiBDNC43NSA0MC4yNiwgNC43NSA0MC4yNiwgNC43NSA0MC4yNiBNNC43NSA0MC4yNiBDNC43NSA0MC4yNiwgNC43NSA0MC4yNiwgNC43NSA0MC4yNiBNMjAuOTYgNDkuMDUgQzE1LjM5IDQzLjIzLCAxMC42IDM5LjE3LCAyLjg1IDMzLjMgTTIwLjk2IDQ5LjA1IEMxNS4zNyA0NC4yNSwgOC43OCAzOS4xMywgMi44NSAzMy4zIE0yNS44NSA0OCBDMTguNDggNDEuODIsIDEwLjM5IDM0LCAxLjcgMjcgTTI1Ljg1IDQ4IEMxNy4xMSA0MC4zMSwgNy44MiAzMi4xNSwgMS43IDI3IE0zMC43NCA0Ni45NSBDMTkuNTEgMzcuNzcsIDEwLjQ2IDI5LjQ0LCAxLjMxIDIxLjM2IE0zMC43NCA0Ni45NSBDMjMuODIgNDAuNjIsIDE2LjA5IDM0LjczLCAxLjMxIDIxLjM2IE0zNi4zOCA0Ni41NSBDMjYuNjQgMzguMjYsIDE1LjMyIDI5LjM1LCAzLjE4IDE3LjY5IE0zNi4zOCA0Ni41NSBDMjUuMTEgMzYuNzgsIDEzLjcxIDI2LjYxLCAzLjE4IDE3LjY5IE0zOS4wMSA0My41MyBDMjguMzQgMzMuNzIsIDE3Ljc0IDI2LjI0LCA0LjI5IDEzLjM1IE0zOS4wMSA0My41MyBDMjYuOTMgMzMuMzYsIDE0LjU4IDIxLjk5LCA0LjI5IDEzLjM1IE00MS42MyA0MC41MSBDMzQuMjYgMzQuMjYsIDI2LjU0IDI2Ljk3LCA2LjE2IDkuNjggTTQxLjYzIDQwLjUxIEMyOC42NiAyOC43NiwgMTUuMjUgMTcuNTIsIDYuMTYgOS42OCBNNDUuMDEgMzguMTUgQzM1LjExIDI5LjIxLCAyNC40NSAyMC41MiwgOC43OCA2LjY2IE00NS4wMSAzOC4xNSBDMzUuMTQgMjguOTcsIDI1LjU2IDIwLjg3LCA4Ljc4IDYuNjYgTTQ3LjY0IDM1LjEzIEMzOC42NiAyNy42OSwgMzEuNzMgMjAuNDEsIDEyLjE2IDQuMyBNNDcuNjQgMzUuMTMgQzM0LjAxIDIyLjk3LCAxOS44MyAxMC4yNCwgMTIuMTYgNC4zIE00OCAzMC4xNSBDMzkuNjEgMjMuMDksIDMyLjc0IDE2LjQzLCAxNi4zIDIuNTkgTTQ4IDMwLjE1IEMzNy45OCAyMS4zNCwgMjcuNzcgMTIuODQsIDE2LjMgMi41OSBNNDguMzYgMjUuMTYgQzM4Ljc5IDE3LjA1LCAyOS43MSA4LjIzLCAyMC40MyAwLjg4IE00OC4zNiAyNS4xNiBDMzguNDcgMTYuOTYsIDI4LjM5IDcuOTksIDIwLjQzIDAuODggTTQ4LjcyIDIwLjE3IEMzOS4zNyAxMS45MiwgMzEuOTUgNC43MywgMjYuMDcgMC40OSBNNDguNzIgMjAuMTcgQzQxLjQgMTQuNjMsIDM1LjE1IDguMjUsIDI2LjA3IDAuNDkgTTQzLjc5IDEwLjU5IEM0MC4wNyA4LjA3LCAzNi42NCA0LjYxLCAzNC43NCAyLjcyIE00My43OSAxMC41OSBDNDAuMzcgNy40NCwgMzcuMzQgNC42MSwgMzQuNzQgMi43MiIvPjxwYXRoIGZpbGw9Im5vbmUiIHN0cm9rZS13aWR0aD0iMSIgc3Ryb2tlPSIjMWUxZTFlIiBkPSJNMjIuMDMgLTAuMjUgQzI3LjA4IC0xLjE2LCAzNC40MSAwLjg2LCAzOC44OSAzLjg5IEM0My4zNiA2LjkyLCA0Ny4zNyAxMi42NywgNDguODcgMTcuOTIgQzUwLjM2IDIzLjE3LCA1MC4xIDMwLjU1LCA0Ny44OCAzNS4zOSBDNDUuNjUgNDAuMjIsIDQwLjM0IDQ0LjU5LCAzNS41MiA0Ni45MiBDMzAuNyA0OS4yNiwgMjQuMTUgNTAuNTUsIDE4Ljk2IDQ5LjM5IEMxMy43OCA0OC4yMywgNy40OCA0NC4zNywgNC40MSAzOS45NiBDMS4zNCAzNS41NSwgMC4yIDI4LjI1LCAwLjU0IDIyLjk0IEMwLjg4IDE3LjYyLCAyLjQzIDExLjg1LCA2LjQ0IDguMDggQzEwLjQ1IDQuMywgMjEuMjggMS41NCwgMjQuNTggMC4yOSBDMjcuODggLTAuOTYsIDI2LjMyIDAuMjEsIDI2LjIyIDAuNTkgTTI5LjMyIC0wLjQyIEMzNC4zIDAuMTMsIDQwLjQ1IDUuMTUsIDQzLjc2IDkuMzUgQzQ3LjA3IDEzLjU1LCA0OS4yIDE5LjUyLCA0OS4yIDI0Ljc4IEM0OS4xOSAzMC4wNSwgNDcuMDYgMzYuODIsIDQzLjc0IDQwLjkzIEM0MC40MiA0NS4wNCwgMzQuNTEgNDguNDcsIDI5LjI5IDQ5LjQzIEMyNC4wNiA1MC4zOCwgMTcgNDkuMTgsIDEyLjQxIDQ2LjY2IEM3LjgyIDQ0LjE1LCAzLjUgMzkuMTksIDEuNzcgMzQuMzIgQzAuMDQgMjkuNDYsIDAuMzIgMjIuNjMsIDIuMDQgMTcuNDYgQzMuNzUgMTIuMjgsIDcuNjcgNi4wOSwgMTIuMDcgMy4yNyBDMTYuNDcgMC40NiwgMjUuNjIgMS4wOSwgMjguNDQgMC41NyBDMzEuMjYgMC4wNSwgMjguODkgLTAuMSwgMjguOTkgMC4xNSIvPjwvZz48ZyB0cmFuc2Zvcm09InRyYW5zbGF0ZSg0Mi4xMTUyNDk3NzYyOTMyMSAyOTIuNDAxOTU2MTg4ODMyOCkgcm90YXRlKDAgMi43MDk5OTkwODQ0NzI2NTYyIDEyLjUpIj48dGV4dCBkaXJlY3Rpb249Imx0ciIgc3R5bGU9IndoaXRlLXNwYWNlOiBwcmU7IiB0ZXh0LWFuY2hvcj0ibWlkZGxlIiBmaWxsPSIjMWUxZTFlIiBmb250LXNpemU9IjIwcHgiIGZvbnQtZmFtaWx5PSJWaXJnaWwsIFNlZ29lIFVJIEVtb2ppIiB5PSIxNy42MTk5OTk5OTk5OTk5OTciIHg9IjIuNzA5OTk5MDg0NDcyNjU2MiI+MTwvdGV4dD48L2c+PGcgdHJhbnNmb3JtPSJ0cmFuc2xhdGUoMjI0Ljg5MzA4NjMyMjYyNTMyIDMwMi41NzkxNjg2NTA2OTIyKSByb3RhdGUoMCA3Ni45ODgyODEyNSA1OS4wMDE5NTMxMjUpIiBzdHJva2UtbGluZWNhcD0icm91bmQiPjxwYXRoIGZpbGw9IiNmZmZmZmYiIHN0cm9rZS13aWR0aD0iMCIgc3Ryb2tlPSJub25lIiBkPSJNMjkuNSAwIEM1MC45NyAtMS40OCwgNzguNSAxLjYxLCAxMjQuNDggMCBDMTQ2LjU2IC0yLjU2LCAxNTUuOSAxMC41MiwgMTUzLjk4IDI5LjUgQzE1NS45MSA1Mi4wNywgMTU2Ljg3IDcwLjE5LCAxNTMuOTggODguNSBDMTU2Ljk1IDEwOC4zNywgMTQ2LjA1IDExOS4yNywgMTI0LjQ4IDExOCBDOTEuNjQgMTE2LjE3LCA2MS4wNCAxMjAuMDUsIDI5LjUgMTE4IEMxMC42OCAxMTguNTUsIC0yLjQ5IDEwOS4wOCwgMCA4OC41IEMtMS43OSA2NS44NSwgLTIuMjIgNDQuNTksIDAgMjkuNSBDMi4yNyAxMS4xNywgMTEuNDcgLTIuMTYsIDI5LjUgMCIvPjxwYXRoIGZpbGw9Im5vbmUiIHN0cm9rZS13aWR0aD0iMSIgc3Ryb2tlPSIjMWUxZTFlIiBkPSJNMjkuNSAwIEM1My4xMiAtMS41MiwgNzguNzUgLTEuMjIsIDEyNC40OCAwIE0yOS41IDAgQzU5LjU1IC0xLjEsIDg3LjI0IC0wLjM0LCAxMjQuNDggMCBNMTI0LjQ4IDAgQzE0NS4zMiAtMS41NywgMTU1LjM2IDExLjc3LCAxNTMuOTggMjkuNSBNMTI0LjQ4IDAgQzE0Mi42OSAtMi4yNywgMTU1Ljg3IDEyLjA5LCAxNTMuOTggMjkuNSBNMTUzLjk4IDI5LjUgQzE1My42IDUwLjY3LCAxNTUuNTggNzIuNzUsIDE1My45OCA4OC41IE0xNTMuOTggMjkuNSBDMTU0LjM0IDUxLjEzLCAxNTMuNTEgNzEuMTMsIDE1My45OCA4OC41IE0xNTMuOTggODguNSBDMTUyLjY5IDEwOC45NSwgMTQzLjMzIDExOC4xNSwgMTI0LjQ4IDExOCBNMTUzLjk4IDg4LjUgQzE1Mi44NyAxMDguMTgsIDE0NC41OCAxMTkuNzEsIDEyNC40OCAxMTggTTEyNC40OCAxMTggQzg2Ljk5IDExNi43NCwgNTEuNDggMTE4LjQyLCAyOS41IDExOCBNMTI0LjQ4IDExOCBDMTAzLjc1IDExNy4zNiwgODQuMiAxMTcuMTMsIDI5LjUgMTE4IE0yOS41IDExOCBDOS44MiAxMTYuMjksIC0wLjI4IDEwOC4xNSwgMCA4OC41IE0yOS41IDExOCBDOC40NiAxMTkuNzcsIDEuOTEgMTA3LjM3LCAwIDg4LjUgTTAgODguNSBDLTAuMjQgNzUuMzIsIDEuOTIgNTcuNDcsIDAgMjkuNSBNMCA4OC41IEMtMC43MyA2OS4yNCwgLTAuMjQgNDkuNTUsIDAgMjkuNSBNMCAyOS41IEMwLjMgOC44OCwgOS41NSAtMC44MSwgMjkuNSAwIE0wIDI5LjUgQy0xLjA5IDExLjEzLCAxMS43NSAyLjEyLCAyOS41IDAiLz48L2c+PGcgdHJhbnNmb3JtPSJ0cmFuc2xhdGUoMjM3LjE0MTQzMDc0NDAxMjA0IDM0OS4wODExMjE3NzU2OTIyKSByb3RhdGUoMCA2NC43Mzk5MzY4Mjg2MTMyOCAxMi41KSI+PHRleHQgZGlyZWN0aW9uPSJsdHIiIHN0eWxlPSJ3aGl0ZS1zcGFjZTogcHJlOyIgdGV4dC1hbmNob3I9Im1pZGRsZSIgZmlsbD0iIzFlMWUxZSIgZm9udC1zaXplPSIyMHB4IiBmb250LWZhbWlseT0iVmlyZ2lsLCBTZWdvZSBVSSBFbW9qaSIgeT0iMTcuNjE5OTk5OTk5OTk5OTk3IiB4PSI2NC43Mzk5MzY4Mjg2MTMyOCI+Q29yZSBFbnRpdGllczwvdGV4dD48L2c+PGcgdHJhbnNmb3JtPSJ0cmFuc2xhdGUoMjA2LjcwOTQ5MjU3MjYyNTMyIDI4MC4zNjQzMjQ5MDA2OTIyKSByb3RhdGUoMCAyNC45MDgyMDMxMjUgMjQuOTA4MjAzMTI1KSIgc3Ryb2tlLWxpbmVjYXA9InJvdW5kIj48cGF0aCBmaWxsPSJub25lIiBzdHJva2Utd2lkdGg9IjAuNSIgc3Ryb2tlPSIjMjk5YThkIiBkPSJNOC45IDYuNDEgQzguOSA2LjQxLCA4LjkgNi40MSwgOC45IDYuNDEgTTguOSA2LjQxIEM4LjkgNi40MSwgOC45IDYuNDEsIDguOSA2LjQxIE0wLjc2IDIxLjg2IEM0Ljk2IDE3LjA2LCA4Ljg5IDExLjgsIDE3LjgyIDIuMjQgTTAuNzYgMjEuODYgQzUuNjUgMTcuMTksIDkuNDQgMTEuMzQsIDE3LjgyIDIuMjQgTTEuODEgMjYuNzUgQzkuODMgMTguNDIsIDE4LjIzIDguMDcsIDI0Ljc4IDAuMzQgTTEuODEgMjYuNzUgQzEwLjMgMTcuNjUsIDE4LjE4IDguMzMsIDI0Ljc4IDAuMzQgTTIuODYgMzEuNjQgQzEyLjI5IDIxLjI4LCAyMS45NiAxMC4xNiwgMjkuMTEgMS40NSBNMi44NiAzMS42NCBDMTIuMTcgMjAuMjcsIDIyLjMzIDkuNzIsIDI5LjExIDEuNDUgTTMuOTIgMzYuNTMgQzEzLjY5IDI2LjYyLCAyMS44IDE1LjI1LCAzMi43OCAzLjMyIE0zLjkyIDM2LjUzIEMxMS42NiAyOC4zMywgMTguOTMgMTkuMzgsIDMyLjc4IDMuMzIgTTYuMjggMzkuOTEgQzE3Ljg3IDI3LjksIDI4LjAxIDE1LjM3LCAzNy4xMSA0LjQ0IE02LjI4IDM5LjkxIEMxMy41NiAzMS44MywgMjEuMzQgMjMuMjgsIDM3LjExIDQuNDQgTTkuMyA0Mi41MyBDMjAuMDcgMzEuNCwgMjkuNDcgMTguNSwgNDAuNzkgNi4zMSBNOS4zIDQyLjUzIEMxOS45IDMwLjU1LCAyOS4zOCAxOS4yNiwgNDAuNzkgNi4zMSBNMTIuMzIgNDUuMTYgQzIyLjUxIDMzLjU4LCAzMi40NSAyNC4xNywgNDMuMTUgOS42OSBNMTIuMzIgNDUuMTYgQzE5LjQ4IDM2LjI3LCAyNy45NSAyNy42OCwgNDMuMTUgOS42OSBNMTUuOTkgNDcuMDMgQzIzLjIgMzcuMzcsIDMyLjIxIDI4LjkyLCA0NC44NiAxMy44MiBNMTUuOTkgNDcuMDMgQzIyLjA1IDM5LjYzLCAyNy44IDMzLjI0LCA0NC44NiAxMy44MiBNMTkuMDEgNDkuNjUgQzI5LjUxIDM5LjY0LCAzOC4yMSAyOC4zNSwgNDcuMjIgMTcuMiBNMTkuMDEgNDkuNjUgQzI5Ljk1IDM3LjM4LCA0MC4wMiAyNS41NCwgNDcuMjIgMTcuMiBNMjQuNjUgNDkuMjYgQzMxLjA4IDQxLjg4LCAzNi40IDM1LjY0LCA0OS41OCAyMC41OCBNMjQuNjUgNDkuMjYgQzMxLjQgNDEuODEsIDM3LjIgMzQuNzcsIDQ5LjU4IDIwLjU4IE0zMC4zIDQ4Ljg2IEMzNC41IDQzLjgsIDM4LjE1IDQwLjE5LCA0OC42NyAyNy43MyBNMzAuMyA0OC44NiBDMzYuOTMgNDEuMiwgNDMuOSAzMi40OSwgNDguNjcgMjcuNzMgTTM5LjIyIDQ0LjY5IEM0MS4xNiA0Mi43MSwgNDQuMyAzOC45MywgNDcuNzUgMzQuODggTTM5LjIyIDQ0LjY5IEM0MS41OSA0MS41NCwgNDQuMjcgMzguOTEsIDQ3Ljc1IDM0Ljg4IE00LjA0IDM4LjAzIEM0LjA0IDM4LjAzLCA0LjA0IDM4LjAzLCA0LjA0IDM4LjAzIE00LjA0IDM4LjAzIEM0LjA0IDM4LjAzLCA0LjA0IDM4LjAzLCA0LjA0IDM4LjAzIE0yMS43NiA0OC4xNCBDMTUuOTIgNDEuNTIsIDkuMjIgMzYuOTMsIDIuMTQgMzEuMDggTTIxLjc2IDQ4LjE0IEMxNy4yIDQ0LjE1LCAxMS45NCA0MC4yLCAyLjE0IDMxLjA4IE0yOC4xNiA0OC40IEMxOC4zNyAzOS4xOCwgNy4yNyAzMS4yNCwgMC45OSAyNC43OCBNMjguMTYgNDguNCBDMjIuMDQgNDMuMTIsIDE2LjI2IDM3LjM1LCAwLjk5IDI0Ljc4IE0zMy44IDQ4IEMyNy4wOSA0MS40MiwgMjAuOTkgMzYuMTUsIDEuMzUgMTkuNzkgTTMzLjggNDggQzIzLjQ2IDM4LjUyLCAxMi44OCAzMCwgMS4zNSAxOS43OSBNMzcuMTggNDUuNjQgQzI3LjQ4IDM3LjUzLCAxNy4wNiAyOC4yNSwgMy4yMiAxNi4xMiBNMzcuMTggNDUuNjQgQzI1LjM0IDM1LjQ1LCAxNC42MyAyNS44NSwgMy4yMiAxNi4xMiBNMzkuOCA0Mi42MiBDMjYuNzIgMzEuMDcsIDExLjQgMTcuOTIsIDUuMDggMTIuNDQgTTM5LjggNDIuNjIgQzMyLjA4IDM1Ljk2LCAyMy42OCAyOC43OCwgNS4wOCAxMi40NCBNNDMuMTggNDAuMjYgQzI5LjMgMjkuMDMsIDE2LjI2IDE2Ljc2LCA3LjcxIDkuNDIgTTQzLjE4IDQwLjI2IEMzMy4yMSAzMi4wOCwgMjMuNDcgMjIuNzUsIDcuNzEgOS40MiBNNDUuOCAzNy4yNCBDMzEuNTYgMjYuMiwgMTkuMDMgMTMuMjksIDkuNTggNS43NSBNNDUuOCAzNy4yNCBDMzIuMDQgMjUuNzEsIDE4LjM3IDEzLjksIDkuNTggNS43NSBNNDcuNjcgMzMuNTYgQzM3LjYgMjUuMTUsIDI1Ljk4IDE0LjY1LCAxMy43MSA0LjA0IE00Ny42NyAzMy41NiBDMzQuODUgMjIuMjksIDIyLjA2IDExLjQsIDEzLjcxIDQuMDQgTTQ4LjAzIDI4LjU4IEMzNi45MyAxOS4yLCAyNi42MyAxMC4yMywgMTcuODUgMi4zMyBNNDguMDMgMjguNTggQzQxLjE1IDIyLjU3LCAzMy45MiAxNi43OCwgMTcuODUgMi4zMyBNNDkuMTUgMjQuMjUgQzQ0LjE0IDE4LjIyLCAzNy4zMiAxNC42MiwgMjEuOTggMC42MyBNNDkuMTUgMjQuMjUgQzQwLjMxIDE2Ljk0LCAzMS44NyA5LjE4LCAyMS45OCAwLjYzIE00Ny4yNSAxNy4yOSBDNDEuMzIgMTEuMjYsIDMzLjQ2IDYuMTksIDI3LjYyIDAuMjMgTTQ3LjI1IDE3LjI5IEM0MC40MyAxMSwgMzIuODkgNC45OSwgMjcuNjIgMC4yMyBNNDEuNTcgNy4wNiBDNDAuMjQgNi4yNSwgMzkuMTYgNS4yLCAzNy43OSAzLjc3IE00MS41NyA3LjA2IEM0MC43MyA2LjQ4LCAzOS45NyA1LjcyLCAzNy43OSAzLjc3Ii8+PHBhdGggZmlsbD0ibm9uZSIgc3Ryb2tlLXdpZHRoPSIxIiBzdHJva2U9IiMxZTFlMWUiIGQ9Ik0yMy45OSAtMC4zMyBDMjkuMDIgLTAuNzgsIDM2LjM0IDIuMzMsIDQwLjUgNS43OCBDNDQuNjYgOS4yMywgNDcuODMgMTUuMjYsIDQ4Ljk1IDIwLjQgQzUwLjA3IDI1LjUzLCA0OS44MSAzMS44OSwgNDcuMjMgMzYuNTcgQzQ0LjY1IDQxLjI2LCAzOC40MSA0Ni41LCAzMy40NCA0OC41NCBDMjguNDcgNTAuNTcsIDIyLjMxIDUwLjU0LCAxNy4zOSA0OC43NyBDMTIuNDYgNDcsIDYuNzcgNDIuNSwgMy44OSAzNy45IEMxLjAxIDMzLjMsIC0wLjcxIDI2LjQsIDAuMTEgMjEuMTcgQzAuOTMgMTUuOTQsIDQuNTkgOS45OSwgOC44MSA2LjUxIEMxMy4wMiAzLjA0LCAyMi42NCAxLjMsIDI1LjQxIDAuMyBDMjguMTggLTAuNywgMjUuNCAwLjIzLCAyNS40NCAwLjUyIE0yNi41NyAwLjEzIEMzMS42NyAwLjE3LCAzOC4xMyAzLjMzLCA0Mi4wMSA3LjE1IEM0NS44OSAxMC45OCwgNDkuMTcgMTcuNjYsIDQ5Ljg0IDIzLjA5IEM1MC41MiAyOC41MiwgNDkuMTUgMzUuNDksIDQ2LjA5IDM5Ljc1IEM0My4wMyA0NC4wMSwgMzYuOCA0Ny4zMiwgMzEuNDggNDguNjcgQzI2LjE1IDUwLjAxLCAxOC45NCA1MC4xLCAxNC4xMyA0Ny44MiBDOS4zMiA0NS41MywgNC43NSAzOS45NCwgMi42MSAzNC45NiBDMC40OCAyOS45OCwgMC4xIDIyLjk4LCAxLjMzIDE3Ljk2IEMyLjU2IDEyLjkzLCA1Ljc0IDcuNzksIDkuOTkgNC44MSBDMTQuMjQgMS44MywgMjQuMDIgMC45MSwgMjYuODMgMC4wOSBDMjkuNjQgLTAuNzIsIDI2Ljg3IC0wLjQ4LCAyNi44MyAtMC4wNyIvPjwvZz48ZyB0cmFuc2Zvcm09InRyYW5zbGF0ZSgyMjQuMzg0OTQxMjQzNTc4MzcgMjkyLjY1OTc2ODY4ODgzMjgpIHJvdGF0ZSgwIDcuMTE5OTk1MTE3MTg3NSAxMi41KSI+PHRleHQgZGlyZWN0aW9uPSJsdHIiIHN0eWxlPSJ3aGl0ZS1zcGFjZTogcHJlOyIgdGV4dC1hbmNob3I9Im1pZGRsZSIgZmlsbD0iIzFlMWUxZSIgZm9udC1zaXplPSIyMHB4IiBmb250LWZhbWlseT0iVmlyZ2lsLCBTZWdvZSBVSSBFbW9qaSIgeT0iMTcuNjE5OTk5OTk5OTk5OTk3IiB4PSI3LjExOTk5NTExNzE4NzUiPjI8L3RleHQ+PC9nPjxnIHRyYW5zZm9ybT0idHJhbnNsYXRlKDQxOS4wMTgwODYzMjI2MjU0NCAzMDMuMzU2NTEyNDAwNjkyMikgcm90YXRlKDAgNzYuOTg4MjgxMjUgNTkuMDAxOTUzMTI1KSIgc3Ryb2tlLWxpbmVjYXA9InJvdW5kIj48cGF0aCBmaWxsPSIjZmZmZmZmIiBzdHJva2Utd2lkdGg9IjAiIHN0cm9rZT0ibm9uZSIgZD0iTTI5LjUgMCBDNTIuODkgMi41MSwgNzUuMDcgMC43NywgMTI0LjQ4IDAgQzE0Ni4zMSAyLjA1LCAxNTMuODcgMTIuOCwgMTUzLjk4IDI5LjUgQzE1NS4yMSA0OS45MiwgMTU1LjA3IDYyLjk4LCAxNTMuOTggODguNSBDMTUxLjg5IDEwNS4yNywgMTQ1LjkzIDExOC44NSwgMTI0LjQ4IDExOCBDOTYuNTggMTIwLjU3LCA2My4xMSAxMTcuMjgsIDI5LjUgMTE4IEM4LjIxIDExNi40MiwgLTEuODcgMTEwLjQ0LCAwIDg4LjUgQzEuNTQgNjkuMDQsIC0zLjA5IDUxLCAwIDI5LjUgQzEuODYgOS4wNiwgMTIuMDYgLTIuMjksIDI5LjUgMCIvPjxwYXRoIGZpbGw9Im5vbmUiIHN0cm9rZS13aWR0aD0iMSIgc3Ryb2tlPSIjMWUxZTFlIiBkPSJNMjkuNSAwIEM1NS42NSAtMi4xNCwgODQuODMgMC4zOCwgMTI0LjQ4IDAgTTI5LjUgMCBDNDkuOTIgLTEuOTEsIDcyLjQzIDAuMDYsIDEyNC40OCAwIE0xMjQuNDggMCBDMTQ1LjI1IDEuMSwgMTU0LjI3IDkuMTMsIDE1My45OCAyOS41IE0xMjQuNDggMCBDMTQ0LjM5IDEuNDcsIDE1NS41MiAxMC45OSwgMTUzLjk4IDI5LjUgTTE1My45OCAyOS41IEMxNTUuMzMgNDkuMDgsIDE1NC4wMyA3MC42NywgMTUzLjk4IDg4LjUgTTE1My45OCAyOS41IEMxNTMuMjYgNDkuNSwgMTUzLjkyIDcwLjI0LCAxNTMuOTggODguNSBNMTUzLjk4IDg4LjUgQzE1NS43MyAxMTAuMTEsIDE0My45NCAxMTcuMzQsIDEyNC40OCAxMTggTTE1My45OCA4OC41IEMxNTIuNjQgMTA4LjkzLCAxNDQuNzMgMTE1Ljk3LCAxMjQuNDggMTE4IE0xMjQuNDggMTE4IEM4OS42OCAxMTcuMywgNTMuOTQgMTE3LjQxLCAyOS41IDExOCBNMTI0LjQ4IDExOCBDMTAzLjU0IDExOC43NiwgODQuNjQgMTE3LjY1LCAyOS41IDExOCBNMjkuNSAxMTggQzguODYgMTE2LjAzLCAxLjYgMTA3LjM0LCAwIDg4LjUgTTI5LjUgMTE4IEMxMS43NCAxMTkuNTQsIC0xLjU2IDEwOC44NCwgMCA4OC41IE0wIDg4LjUgQzAuNjcgNjguMjksIDAuMTQgNDguMzEsIDAgMjkuNSBNMCA4OC41IEMtMC4zOSA3NC4xOSwgMC45MiA1OS42NywgMCAyOS41IE0wIDI5LjUgQy0wLjg4IDguNjUsIDEwLjY1IC0xLjU5LCAyOS41IDAgTTAgMjkuNSBDLTAuNSAxMC4wNCwgMTEuMzEgMS41NCwgMjkuNSAwIi8+PC9nPjxnIHRyYW5zZm9ybT0idHJhbnNsYXRlKDQ3Ny4zODYzODAwODQ4MzI0NyAzNDkuODU4NDY1NTI1NjkyMikgcm90YXRlKDAgMTguNjE5OTg3NDg3NzkyOTcgMTIuNSkiPjx0ZXh0IGRpcmVjdGlvbj0ibHRyIiBzdHlsZT0id2hpdGUtc3BhY2U6IHByZTsiIHRleHQtYW5jaG9yPSJtaWRkbGUiIGZpbGw9IiMxZTFlMWUiIGZvbnQtc2l6ZT0iMjBweCIgZm9udC1mYW1pbHk9IlZpcmdpbCwgU2Vnb2UgVUkgRW1vamkiIHk9IjE3LjYxOTk5OTk5OTk5OTk5NyIgeD0iMTguNjE5OTg3NDg3NzkyOTciPkFQSTwvdGV4dD48L2c+PGcgdHJhbnNmb3JtPSJ0cmFuc2xhdGUoNDAwLjgzNDQ5MjU3MjYyNTQ0IDI4MS4wMjQ0ODExNTA2OTIyKSByb3RhdGUoMCAyNC45MDgyMDMxMjUgMjQuOTA4MjAzMTI1KSIgc3Ryb2tlLWxpbmVjYXA9InJvdW5kIj48cGF0aCBmaWxsPSJub25lIiBzdHJva2Utd2lkdGg9IjAuNSIgc3Ryb2tlPSIjMjk5YThkIiBkPSJNMTIuNjEgMy4wMSBDMTIuNjEgMy4wMSwgMTIuNjEgMy4wMSwgMTIuNjEgMy4wMSBNMTIuNjEgMy4wMSBDMTIuNjEgMy4wMSwgMTIuNjEgMy4wMSwgMTIuNjEgMy4wMSBNMS44NSAyMS40OCBDNy4wMiAxNi4wMiwgOS44MSAxMS45MSwgMTguOSAxLjg2IE0xLjg1IDIxLjQ4IEM1Ljk1IDE3LjQ4LCA5LjAzIDEzLjA5LCAxOC45IDEuODYgTTEuNTkgMjcuODggQzkuNDMgMTkuNjYsIDE2Ljc4IDExLjUsIDI0LjU1IDEuNDYgTTEuNTkgMjcuODggQzguNTYgMjAuMjEsIDE1LjIxIDEyLjUyLCAyNC41NSAxLjQ2IE0xLjMyIDM0LjI4IEM5LjUxIDI0LjY0LCAxOS40MyAxNC4wOSwgMjkuNTMgMS44MiBNMS4zMiAzNC4yOCBDOC4wOSAyNi41LCAxNC4xNCAxOC45OSwgMjkuNTMgMS44MiBNNC4zNCAzNi45IEMxMi4xOSAyOC43NiwgMTguNiAyMC4zNywgMzMuMjEgMy42OSBNNC4zNCAzNi45IEMxMy43MiAyNi4zNSwgMjIuNzggMTUuNzgsIDMzLjIxIDMuNjkgTTYuNzEgNDAuMjggQzEzLjgxIDMzLjU3LCAxOS45MyAyNS43LCAzNi44OCA1LjU2IE02LjcxIDQwLjI4IEMxNy45MiAyNy41LCAyOC4zMyAxNC44LCAzNi44OCA1LjU2IE05LjcyIDQyLjkgQzE3LjY2IDMyLjI0LCAyNy4xNCAyMi45OSwgNDAuNTYgNy40MyBNOS43MiA0Mi45IEMxOC40NiAzMi45NywgMjguMjMgMjEuOTMsIDQwLjU2IDcuNDMgTTEyLjA5IDQ2LjI4IEMyMy4wNyAzNC40MiwgMzQuNTkgMjAuOTEsIDQ0LjIzIDkuMyBNMTIuMDkgNDYuMjggQzIzLjc5IDMyLjc2LCAzNi4xOSAxNy45NCwgNDQuMjMgOS4zIE0xNi40MiA0Ny40IEMyMi43NiAzOC40LCAzMS4wOCAzMS4yMSwgNDYuNiAxMi42OCBNMTYuNDIgNDcuNCBDMjQuNjUgMzguNDIsIDMyLjE5IDMwLjA2LCA0Ni42IDEyLjY4IE0yMC43NSA0OC41MSBDMzAuMTEgMzcuMTQsIDQwLjM1IDI2LjI2LCA0Ny42NSAxNy41NyBNMjAuNzUgNDguNTEgQzI1Ljk5IDQxLjk3LCAzMS44MSAzNS42LCA0Ny42NSAxNy41NyBNMjUuNzQgNDguODcgQzMzLjQ3IDM5LjM4LCA0MS45NyAyOS42MywgNDkuMzUgMjEuNyBNMjUuNzQgNDguODcgQzMyLjkgNDAuMjEsIDQwLjgxIDMyLjQxLCA0OS4zNSAyMS43IE0zMC4wNyA0OS45OSBDMzcuNDggNDEuNjEsIDQyLjg1IDM0LjU1LCA0OS4wOSAyOC4xIE0zMC4wNyA0OS45OSBDMzcuNzggNDIuMjQsIDQ0LjAzIDMzLjUxLCA0OS4wOSAyOC4xIE00MS42MSA0Mi44IEM0Mi41MiA0MS41OCwgNDMuODMgMzkuOTcsIDQ0Ljg5IDM5LjAzIE00MS42MSA0Mi44IEM0Mi41OCA0MS44LCA0My4zNyA0MC43MywgNDQuODkgMzkuMDMgTTEyLjUgNDYuNTkgQzEyLjUgNDYuNTksIDEyLjUgNDYuNTksIDEyLjUgNDYuNTkgTTEyLjUgNDYuNTkgQzEyLjUgNDYuNTksIDEyLjUgNDYuNTksIDEyLjUgNDYuNTkgTTIwLjQxIDQ4LjE2IEMxMy40OSA0MS42NCwgNi43NSAzNi41NSwgMS41NCAzMS43NiBNMjAuNDEgNDguMTYgQzE2LjM3IDQ0LjU5LCAxMy4wMiA0MS4yLCAxLjU0IDMxLjc2IE0yOC4zMSA0OS43NCBDMjIuMDggNDQuNDksIDE0LjQ3IDM3LjE5LCAxLjkgMjYuNzggTTI4LjMxIDQ5Ljc0IEMyMS43NCA0NC43OCwgMTUuOSAzOS4xLCAxLjkgMjYuNzggTTMyLjQ1IDQ4LjAzIEMyMS42NyAzOS44LCAxMyAzMC44LCAyLjI2IDIxLjc5IE0zMi40NSA0OC4wMyBDMjMuMzIgMzkuOTUsIDEzLjY5IDMyLjAyLCAyLjI2IDIxLjc5IE0zNS44MyA0NS42NyBDMjYuMiAzOC4zNCwgMTcuNjggMzAuMjksIDIuNjIgMTYuOCBNMzUuODMgNDUuNjcgQzI0LjggMzUuOCwgMTMuMTIgMjYuMTUsIDIuNjIgMTYuOCBNMzkuMjEgNDMuMzEgQzMxLjcgMzYuNzcsIDIzLjQxIDI5Ljk3LCA0LjQ5IDEzLjEzIE0zOS4yMSA0My4zMSBDMzAuMjcgMzUuNDcsIDIxLjAxIDI3LjQ2LCA0LjQ5IDEzLjEzIE00My4zNCA0MS42IEMzMS44OSAzMi4wMSwgMTguNTYgMjEuMTgsIDcuMTEgMTAuMTEgTTQzLjM0IDQxLjYgQzM2IDM0Ljc1LCAyNy43NiAyOC41NiwgNy4xMSAxMC4xMSBNNDUuMjEgMzcuOTIgQzM1LjMgMjguMiwgMjQuNTUgMTkuMTQsIDkuNzQgNy4wOSBNNDUuMjEgMzcuOTIgQzM3Ljc0IDMxLjAzLCAyOS40MyAyNS4wNSwgOS43NCA3LjA5IE00Ni4zMiAzMy41OSBDMzguNjEgMjYuMjksIDMxLjI3IDIwLjc2LCAxMi4zNiA0LjA3IE00Ni4zMiAzMy41OSBDMzQuNTcgMjMuNDksIDIzLjA3IDEyLjg2LCAxMi4zNiA0LjA3IE00OC4xOSAyOS45MiBDMzguODYgMjEuMTQsIDI5Ljg0IDEyLjY5LCAxNi41IDIuMzYgTTQ4LjE5IDI5LjkyIEM0MC41MSAyMy43MSwgMzMuOTcgMTcuMzksIDE2LjUgMi4zNiBNNTAuMDYgMjYuMjQgQzQ0LjYzIDIwLjU3LCAzOC4wMiAxNi4xMywgMjIuMTQgMS45NyBNNTAuMDYgMjYuMjQgQzQ0LjI5IDIxLjE3LCAzOC44MiAxNi40MywgMjIuMTQgMS45NyBNNDguMTYgMTkuMjkgQzQxLjE2IDEzLjYyLCAzNC42OCA3LjA4LCAyNy4wMyAwLjkyIE00OC4xNiAxOS4yOSBDNDMuMjUgMTQuMzIsIDM3LjgxIDkuNSwgMjcuMDMgMC45MiBNNDUuNSAxMS42OCBDNDMuOTYgOS43NSwgNDEuNjUgOC4yNSwgMzcuMiA0LjQ2IE00NS41IDExLjY4IEM0My4xNiA5Ljc2LCA0MC45NSA3LjU0LCAzNy4yIDQuNDYiLz48cGF0aCBmaWxsPSJub25lIiBzdHJva2Utd2lkdGg9IjEiIHN0cm9rZT0iIzFlMWUxZSIgZD0iTTI4LjcxIDAuNzggQzMzLjc2IDEuNDQsIDQwLjg5IDUuMTIsIDQ0LjQ2IDkuMTUgQzQ4LjAyIDEzLjE3LCA1MC4xOSAxOS42NSwgNTAuMDkgMjQuOTUgQzQ5Ljk5IDMwLjI1LCA0Ny4yNSAzNi44MSwgNDMuODQgNDAuOTUgQzQwLjQyIDQ1LjA4LCAzNC43NyA0OC43OSwgMjkuNTkgNDkuNzcgQzI0LjQgNTAuNzQsIDE3LjUgNDkuNTEsIDEyLjczIDQ2LjggQzcuOTcgNDQuMDgsIDIuODIgMzguNTksIDEuMDIgMzMuNDYgQy0wLjc3IDI4LjMzLCAwLjA1IDIxLjA4LCAxLjk3IDE2LjAxIEMzLjkgMTAuOTQsIDcuOTEgNS42NiwgMTIuNTggMy4wMyBDMTcuMjUgMC40MSwgMjcuMDMgMC42NCwgMjkuOTggMC4yOCBDMzIuOTMgLTAuMDksIDMwLjQxIDAuMzksIDMwLjI5IDAuODUgTTI5LjQzIDAuMTggQzM0LjI5IDAuNzIsIDQwLjMgNS4zLCA0My43MyA5LjM2IEM0Ny4xNiAxMy40MSwgNDkuOSAxOS4zNCwgNTAuMDEgMjQuNTIgQzUwLjExIDI5LjcsIDQ3LjkzIDM2LjIzLCA0NC4zNSA0MC40MiBDNDAuNzYgNDQuNjIsIDMzLjg2IDQ4LjY4LCAyOC41IDQ5LjY3IEMyMy4xNCA1MC42NiwgMTYuNjkgNDkuMjIsIDEyLjE3IDQ2LjM2IEM3LjY2IDQzLjUsIDMuMTkgMzcuNTYsIDEuNDEgMzIuNTIgQy0wLjM3IDI3LjQ5LCAtMC4zMSAyMC45MiwgMS40OSAxNi4xMyBDMy4zIDExLjMzLCA3LjQ3IDYuNDQsIDEyLjI1IDMuNzggQzE3LjAyIDEuMTIsIDI3LjMzIDAuNzcsIDMwLjEzIDAuMTcgQzMyLjkzIC0wLjQzLCAyOS4xMyAtMC4yMiwgMjkuMDUgMC4xOCIvPjwvZz48ZyB0cmFuc2Zvcm09InRyYW5zbGF0ZSg0MTguODE5OTM4ODAyMTcyMjYgMjkzLjMxOTkyNDkzODgzMjgpIHJvdGF0ZSgwIDYuODA5OTk3NTU4NTkzNzUgMTIuNSkiPjx0ZXh0IGRpcmVjdGlvbj0ibHRyIiBzdHlsZT0id2hpdGUtc3BhY2U6IHByZTsiIHRleHQtYW5jaG9yPSJtaWRkbGUiIGZpbGw9IiMxZTFlMWUiIGZvbnQtc2l6ZT0iMjBweCIgZm9udC1mYW1pbHk9IlZpcmdpbCwgU2Vnb2UgVUkgRW1vamkiIHk9IjE3LjYxOTk5OTk5OTk5OTk5NyIgeD0iNi44MDk5OTc1NTg1OTM3NSI+MzwvdGV4dD48L2c+PGcgdHJhbnNmb3JtPSJ0cmFuc2xhdGUoNjE0LjIwNTU4NjMyMjYyNTUgMzAyLjY0OTQ4MTE1MDY5MjIpIHJvdGF0ZSgwIDc2Ljk4ODI4MTI1IDU5LjAwMTk1MzEyNSkiIHN0cm9rZS1saW5lY2FwPSJyb3VuZCI+PHBhdGggZmlsbD0iI2ZmZmZmZiIgc3Ryb2tlLXdpZHRoPSIwIiBzdHJva2U9Im5vbmUiIGQ9Ik0yOS41IDAgQzYzLjYxIDAuNSwgOTguNiAtMC43NCwgMTI0LjQ4IDAgQzE0Ni41NCAwLjUzLCAxNTEuNDEgNy43NSwgMTUzLjk4IDI5LjUgQzE1NS4wNSAzOS45NiwgMTU1LjQyIDU3LjQzLCAxNTMuOTggODguNSBDMTU2LjExIDEwNi42NSwgMTQyLjk5IDExNi4zOCwgMTI0LjQ4IDExOCBDMTAxLjUgMTIwLjcyLCA3My43MSAxMjEuMTEsIDI5LjUgMTE4IEMxMC4yNiAxMTUuNCwgMi4yNyAxMTAuMDMsIDAgODguNSBDLTMuNzcgNzMuMDQsIC0xLjg2IDU4LjE5LCAwIDI5LjUgQzIuMzQgMTEuMiwgMTAuNTQgMi40MSwgMjkuNSAwIi8+PHBhdGggZmlsbD0ibm9uZSIgc3Ryb2tlLXdpZHRoPSIxIiBzdHJva2U9IiMxZTFlMWUiIGQ9Ik0yOS41IDAgQzYyLjYgMi4yNSwgMTAxLjYgMS43LCAxMjQuNDggMCBNMjkuNSAwIEM2My4zMSAwLjk3LCA5Ny41NiAwLjg0LCAxMjQuNDggMCBNMTI0LjQ4IDAgQzE0NS4zNCAtMS45NiwgMTUzLjk5IDExLjc3LCAxNTMuOTggMjkuNSBNMTI0LjQ4IDAgQzE0Mi4yNSAwLjczLCAxNTIuNSAxMC43MywgMTUzLjk4IDI5LjUgTTE1My45OCAyOS41IEMxNTQuMDMgNDUuMTgsIDE1NS41MSA2MS44NSwgMTUzLjk4IDg4LjUgTTE1My45OCAyOS41IEMxNTMuMzQgNTMuMjQsIDE1NC4xNyA3NS40NCwgMTUzLjk4IDg4LjUgTTE1My45OCA4OC41IEMxNTUuNDEgMTA2LjI5LCAxNDIuOTEgMTE4LjUxLCAxMjQuNDggMTE4IE0xNTMuOTggODguNSBDMTUzLjg0IDEwOC4yMiwgMTQ0LjEzIDExNi4wMywgMTI0LjQ4IDExOCBNMTI0LjQ4IDExOCBDOTguODMgMTE5LjEsIDY5LjQzIDExNi40NywgMjkuNSAxMTggTTEyNC40OCAxMTggQzEwNi4xOSAxMTguMjgsIDg1LjU3IDExNy45LCAyOS41IDExOCBNMjkuNSAxMTggQzEwLjcgMTE2Ljg2LCAtMC45NSAxMDguNTEsIDAgODguNSBNMjkuNSAxMTggQzkuODcgMTE3Ljc4LCAwLjM1IDEwNy4wNywgMCA4OC41IE0wIDg4LjUgQzEuMzYgNzMuMzEsIDIuMDggNTMuOTEsIDAgMjkuNSBNMCA4OC41IEMtMC40NiA3NC4zNywgMC40IDYwLjczLCAwIDI5LjUgTTAgMjkuNSBDLTEuNDIgMTAuOSwgMTAuMjIgMC45MSwgMjkuNSAwIE0wIDI5LjUgQzEuODEgMTEuMTcsIDEwLjUzIDEuMzksIDI5LjUgMCIvPjwvZz48ZyB0cmFuc2Zvcm09InRyYW5zbGF0ZSg2NDMuMDAzOTE4NTM2OTgxIDMzNi42NTE0MzQyNzU2OTIyKSByb3RhdGUoMCA0OC4xODk5NDkwMzU2NDQ1MyAyNSkiPjx0ZXh0IGRpcmVjdGlvbj0ibHRyIiBzdHlsZT0id2hpdGUtc3BhY2U6IHByZTsiIHRleHQtYW5jaG9yPSJtaWRkbGUiIGZpbGw9IiMxZTFlMWUiIGZvbnQtc2l6ZT0iMjBweCIgZm9udC1mYW1pbHk9IlZpcmdpbCwgU2Vnb2UgVUkgRW1vamkiIHk9IjE3LjYxOTk5OTk5OTk5OTk5NyIgeD0iNDguMTg5OTQ5MDM1NjQ0NTMiPkhpZ2gtbGV2ZWwgPC90ZXh0Pjx0ZXh0IGRpcmVjdGlvbj0ibHRyIiBzdHlsZT0id2hpdGUtc3BhY2U6IHByZTsiIHRleHQtYW5jaG9yPSJtaWRkbGUiIGZpbGw9IiMxZTFlMWUiIGZvbnQtc2l6ZT0iMjBweCIgZm9udC1mYW1pbHk9IlZpcmdpbCwgU2Vnb2UgVUkgRW1vamkiIHk9IjQyLjYyIiB4PSI0OC4xODk5NDkwMzU2NDQ1MyI+RGVzaWduPC90ZXh0PjwvZz48ZyB0cmFuc2Zvcm09InRyYW5zbGF0ZSg1OTYuMTQ2OTkyNTcyNjI1NSAyODAuMTk2MzU2MTUwNjkyMikgcm90YXRlKDAgMjQuOTA4MjAzMTI1IDI0LjkwODIwMzEyNSkiIHN0cm9rZS1saW5lY2FwPSJyb3VuZCI+PHBhdGggZmlsbD0ibm9uZSIgc3Ryb2tlLXdpZHRoPSIwLjUiIHN0cm9rZT0iIzI5OWE4ZCIgZD0iTTkuODEgNS44OCBDOS44MSA1Ljg4LCA5LjgxIDUuODgsIDkuODEgNS44OCBNOS44MSA1Ljg4IEM5LjgxIDUuODgsIDkuODEgNS44OCwgOS44MSA1Ljg4IE0xLjY4IDIxLjMzIEM2LjcyIDE1LjUzLCAxMC45NiAxMS40LCAxNy40MiAzLjIyIE0xLjY4IDIxLjMzIEM3LjIgMTUuMzMsIDEyLjc4IDguNzUsIDE3LjQyIDMuMjIgTTIuMDcgMjYuOTggQzExLjIgMTcsIDIwLjMgNi44NiwgMjUuMDMgMC41NiBNMi4wNyAyNi45OCBDNy42NSAyMS4xNSwgMTIuNzMgMTQuNjQsIDI1LjAzIDAuNTYgTTMuMTIgMzEuODcgQzExLjE1IDIxLjY0LCAxOS42NiAxMS43LCAyOS4zNyAxLjY4IE0zLjEyIDMxLjg3IEM5Ljc2IDI0LjAzLCAxNi4zMiAxNi45LCAyOS4zNyAxLjY4IE0zLjUyIDM3LjUxIEM5LjkyIDMwLjMyLCAxNi4yMSAyMS4xMSwgMzMuMDQgMy41NSBNMy41MiAzNy41MSBDMTMuNTUgMjYuNDksIDIyLjk4IDE1LjUzLCAzMy4wNCAzLjU1IE02LjU0IDQwLjEzIEMxOC41NCAyNS41MiwgMzAuNTkgMTIuMjcsIDM3LjM3IDQuNjYgTTYuNTQgNDAuMTMgQzEyLjMgMzMuMTEsIDE4Ljg1IDI1Ljk1LCAzNy4zNyA0LjY2IE05LjU2IDQyLjc2IEMxOC40NSAzNC41OSwgMjUuMDQgMjQuNzYsIDQxLjA1IDYuNTMgTTkuNTYgNDIuNzYgQzIxLjAxIDMwLjQzLCAzMS41NSAxNy44NSwgNDEuMDUgNi41MyBNMTIuNTcgNDUuMzggQzI1LjQ4IDMxLjUzLCAzNS44NyAxNy4xMSwgNDMuNDEgOS45MSBNMTIuNTcgNDUuMzggQzIyLjIyIDM0LjE3LCAzMi43NSAyMi4zMywgNDMuNDEgOS45MSBNMTUuNTkgNDguMDEgQzIyLjU1IDQwLjMyLCAzMC42NCAzMS43OCwgNDUuMTIgMTQuMDQgTTE1LjU5IDQ4LjAxIEMyMy41OCAzOC44MSwgMzEuOSAyOC4zLCA0NS4xMiAxNC4wNCBNMjEuMjQgNDcuNjEgQzI5LjEgMzguMzMsIDM3LjMgMjkuMDEsIDQ3LjQ4IDE3LjQyIE0yMS4yNCA0Ny42MSBDMjkuNSAzOC4wMSwgMzcuNzIgMjguMTUsIDQ3LjQ4IDE3LjQyIE0yNi4yMiA0Ny45NyBDMzMuMzYgNDAuMTgsIDQyLjIyIDMxLjAyLCA0OS4xOSAyMS41NiBNMjYuMjIgNDcuOTcgQzMwLjY4IDQyLjEzLCAzNS43MyAzNy4yNCwgNDkuMTkgMjEuNTYgTTMxLjIxIDQ4LjMzIEMzNS42NCA0My4zMywgMzguMTIgNDAuNywgNDguMjcgMjguNzEgTTMxLjIxIDQ4LjMzIEMzNi41MyA0Mi40MSwgNDEuMDQgMzYuMzksIDQ4LjI3IDI4LjcxIE00MS40NSA0Mi42NSBDNDIuNTEgNDEuNCwgNDMuMzYgNDAuMTEsIDQ2LjY5IDM2LjYyIE00MS40NSA0Mi42NSBDNDIuOTkgNDAuOSwgNDQuNjUgMzguOSwgNDYuNjkgMzYuNjIgTTE1LjU3IDQ3LjYzIEMxNS41NyA0Ny42MywgMTUuNTcgNDcuNjMsIDE1LjU3IDQ3LjYzIE0xNS41NyA0Ny42MyBDMTUuNTcgNDcuNjMsIDE1LjU3IDQ3LjYzLCAxNS41NyA0Ny42MyBNMjEuOTcgNDcuOSBDMTQuODggNDIuNzcsIDguMjggMzYuMTcsIDMuMSAzMS40OSBNMjEuOTcgNDcuOSBDMTguNDIgNDQuMzEsIDEzLjg1IDQwLjkyLCAzLjEgMzEuNDkgTTI4LjM2IDQ4LjE2IEMyMC4zMyA0MC40MSwgMTAuODYgMzIuOTQsIDEuOTUgMjUuMiBNMjguMzYgNDguMTYgQzE5LjUgNDAuNDcsIDEwLjMzIDMyLjQ5LCAxLjk1IDI1LjIgTTM0LjAxIDQ3Ljc2IEMyMi42NyAzOC4wNywgMTEuOCAyOC4wNywgMC44IDE4LjkgTTM0LjAxIDQ3Ljc2IEMyNS4xMSAzOS43NiwgMTUuNyAzMS40NiwgMC44IDE4LjkgTTM2LjYzIDQ0Ljc0IEMyMy44OCAzMy42NiwgMTEuOTUgMjMuMzcsIDMuNDIgMTUuODggTTM2LjYzIDQ0Ljc0IEMyNS4wMyAzNS4wNSwgMTMuNDggMjQuMywgMy40MiAxNS44OCBNNDAuMDEgNDIuMzggQzI3LjEzIDMxLjAzLCAxMy43MSAyMC4wNSwgNS4yOSAxMi4yIE00MC4wMSA0Mi4zOCBDMjcuMjYgMzAuOTMsIDEzLjk2IDE5LjE3LCA1LjI5IDEyLjIgTTQzLjM5IDQwLjAyIEMzMi40MyAyOS45LCAyMi4yOSAyMS4wNCwgNy45MiA5LjE4IE00My4zOSA0MC4wMiBDMzQuNTEgMzMuMDIsIDI1LjkyIDI0LjQ5LCA3LjkyIDkuMTggTTQ2Ljc3IDM3LjY2IEMzMS42OCAyNC42MSwgMTguNjEgMTEuOTcsIDkuNzkgNS41MSBNNDYuNzcgMzcuNjYgQzM4LjM4IDMwLjYxLCAzMC43NyAyMy42MywgOS43OSA1LjUxIE00Ny4xMyAzMi42NyBDMzYuODYgMjMuODgsIDI1LjM5IDE0LjM0LCAxNC42NyA0LjQ2IE00Ny4xMyAzMi42NyBDMzcuODcgMjUuMTUsIDI4Ljc5IDE2Ljc2LCAxNC42NyA0LjQ2IE00OC4yNCAyOC4zNCBDNDAuMjIgMjIuMTIsIDMyLjM3IDEzLjU0LCAxOC44MSAyLjc1IE00OC4yNCAyOC4zNCBDNDEuMzQgMjIuNDgsIDM0LjkyIDE2LjExLCAxOC44MSAyLjc1IE00OC42IDIzLjM1IEM0My4yNiAxOS44MywgMzguOSAxNC43NSwgMjIuOTQgMS4wNCBNNDguNiAyMy4zNSBDNDEuNDUgMTcuNDEsIDM0LjAzIDEwLjUzLCAyMi45NCAxLjA0IE00Ni43IDE2LjQgQzQxLjQ5IDEyLjg1LCAzNi4zNyA3LjYsIDI5LjM0IDEuMzEgTTQ2LjcgMTYuNCBDNDAuOSAxMS42MiwgMzUuNDIgNi41MiwgMjkuMzQgMS4zMSBNNDIuNTMgNy40NyBDNDEuOTggNi45OSwgNDEuMyA2LjQzLCA0MS4wMiA2LjE2IE00Mi41MyA3LjQ3IEM0Mi4wMyA3LjExLCA0MS41OCA2LjY5LCA0MS4wMiA2LjE2Ii8+PHBhdGggZmlsbD0ibm9uZSIgc3Ryb2tlLXdpZHRoPSIxIiBzdHJva2U9IiMxZTFlMWUiIGQ9Ik0yNi4xMyAwLjM1IEMzMS4yOCAwLjI2LCAzOC4wMiAzLjIsIDQxLjg1IDYuNzIgQzQ1LjY3IDEwLjI0LCA0OC4zMSAxNi4zMSwgNDkuMDkgMjEuNDggQzQ5Ljg2IDI2LjY0LCA0OS4yMyAzMy4yNSwgNDYuNSAzNy43MiBDNDMuNzcgNDIuMTksIDM3Ljg2IDQ2LjYxLCAzMi43MyA0OC4yOSBDMjcuNjEgNDkuOTYsIDIwLjcxIDQ5Ljc4LCAxNS43NCA0Ny43OSBDMTAuNzggNDUuOCwgNS40NyA0MSwgMi45NCAzNi4zMyBDMC40MSAzMS42NywgLTAuNjIgMjQuOSwgMC41NSAxOS43OSBDMS43MiAxNC42OSwgNS40MiA4Ljk5LCA5Ljk3IDUuNyBDMTQuNTIgMi40MSwgMjQuNzMgMC45MywgMjcuODQgMC4wNyBDMzAuOTYgLTAuNzksIDI4Ljc1IDAuMDgsIDI4LjY1IDAuNTIgTTE4Ljk5IDAuNzkgQzIzLjc3IC0wLjUxLCAzMS41IDAuNDksIDM2LjMxIDIuOCBDNDEuMTMgNS4xMiwgNDUuODUgOS43NSwgNDcuODkgMTQuNjggQzQ5Ljk0IDE5LjYsIDUwLjI0IDI3LjA0LCA0OC41OCAzMi4zMyBDNDYuOTEgMzcuNjMsIDQyLjI3IDQzLjYyLCAzNy45IDQ2LjQ2IEMzMy41MiA0OS4yOSwgMjcuNjIgNTAuMjUsIDIyLjM0IDQ5LjM1IEMxNy4wNiA0OC40NSwgOS44NCA0NC45NywgNi4yMiA0MS4wNCBDMi42IDM3LjExLCAwLjcxIDMwLjg3LCAwLjYzIDI1Ljc1IEMwLjU1IDIwLjYyLCAyLjY4IDE0LjQ1LCA1LjczIDEwLjI5IEM4Ljc4IDYuMTQsIDE2LjU5IDIuNDMsIDE4Ljk1IDAuODIgQzIxLjMxIC0wLjc4LCAxOS43NyAwLjI3LCAxOS44OSAwLjY2Ii8+PC9nPjxnIHRyYW5zZm9ybT0idHJhbnNsYXRlKDYxNC41NDI0NDI0NjQyODE3IDI5Mi40OTE3OTk5Mzg4MzI4KSByb3RhdGUoMCA2LjM5OTk5Mzg5NjQ4NDM3NSAxMi41KSI+PHRleHQgZGlyZWN0aW9uPSJsdHIiIHN0eWxlPSJ3aGl0ZS1zcGFjZTogcHJlOyIgdGV4dC1hbmNob3I9Im1pZGRsZSIgZmlsbD0iIzFlMWUxZSIgZm9udC1zaXplPSIyMHB4IiBmb250LWZhbWlseT0iVmlyZ2lsLCBTZWdvZSBVSSBFbW9qaSIgeT0iMTcuNjE5OTk5OTk5OTk5OTk3IiB4PSI2LjM5OTk5Mzg5NjQ4NDM3NSI+NDwvdGV4dD48L2c+PGcgdHJhbnNmb3JtPSJ0cmFuc2xhdGUoODExLjUyOTgwNTA3MjYyNTUgMzA0Ljk4NTQxODY1MDY5MjIpIHJvdGF0ZSgwIDc2Ljk4ODI4MTI1IDU5LjAwMTk1MzEyNSkiIHN0cm9rZS1saW5lY2FwPSJyb3VuZCI+PHBhdGggZmlsbD0iI2ZmZmZmZiIgc3Ryb2tlLXdpZHRoPSIwIiBzdHJva2U9Im5vbmUiIGQ9Ik0yOS41IDAgQzU2LjQ4IDIuNzgsIDkwLjExIDEuNTMsIDEyNC40OCAwIEMxNDEuNjUgMC45MSwgMTU2IDExLjk3LCAxNTMuOTggMjkuNSBDMTUyLjA1IDQyLjgzLCAxNTUuOTEgNjEuMjQsIDE1My45OCA4OC41IEMxNTUuNjEgMTA2LjAxLCAxNDYuMTcgMTE4LjQzLCAxMjQuNDggMTE4IEMxMDIuMDggMTIxLjExLCA3OC45NSAxMTUuNzcsIDI5LjUgMTE4IEMxMC44MSAxMTYuOCwgMi41NSAxMTAuNTEsIDAgODguNSBDMi45OCA3MS41NCwgMS45MSA0OS4yMSwgMCAyOS41IEMtMi42NCAxMC42NiwgOS4xMyAtMy41NiwgMjkuNSAwIi8+PHBhdGggZmlsbD0ibm9uZSIgc3Ryb2tlLXdpZHRoPSIxIiBzdHJva2U9IiMxZTFlMWUiIGQ9Ik0yOS41IDAgQzYwLjY1IDEuMjQsIDkwLjIzIDEuMDksIDEyNC40OCAwIE0yOS41IDAgQzQ3Ljg0IC0wLjYsIDY3LjE5IC0wLjUzLCAxMjQuNDggMCBNMTI0LjQ4IDAgQzE0My4zMyAwLjE1LCAxNTMuMDEgOS44NCwgMTUzLjk4IDI5LjUgTTEyNC40OCAwIEMxNDQuNTggMS43MSwgMTU2IDEyLjA2LCAxNTMuOTggMjkuNSBNMTUzLjk4IDI5LjUgQzE1NC40NSA0Ny4xMiwgMTUyLjAyIDY1LjE1LCAxNTMuOTggODguNSBNMTUzLjk4IDI5LjUgQzE1My41NSA0MS42OCwgMTUzLjYxIDUyLjk2LCAxNTMuOTggODguNSBNMTUzLjk4IDg4LjUgQzE1My43IDEwOC4xNSwgMTQyLjk1IDExOS41NCwgMTI0LjQ4IDExOCBNMTUzLjk4IDg4LjUgQzE1NS44OSAxMDcuMzcsIDE0My4wMyAxMTUuNzMsIDEyNC40OCAxMTggTTEyNC40OCAxMTggQzg5LjcgMTE3LjQzLCA1Mi44MyAxMTkuNjUsIDI5LjUgMTE4IE0xMjQuNDggMTE4IEMxMDEuNDEgMTE4LjA3LCA3OC40NiAxMTcuNjksIDI5LjUgMTE4IE0yOS41IDExOCBDOS41NSAxMTcuMTksIC0wLjk1IDEwOS4yOSwgMCA4OC41IE0yOS41IDExOCBDMTEuNzUgMTIwLjEyLCAtMS4wMSAxMDYuODEsIDAgODguNSBNMCA4OC41IEMwLjY1IDY5LjY5LCAxLjgxIDQ2Ljg5LCAwIDI5LjUgTTAgODguNSBDMC42NyA2OC4yMywgMC4xOSA0Ny4zOSwgMCAyOS41IE0wIDI5LjUgQzEuMTQgOS43NywgMTEuNDggMC4xMSwgMjkuNSAwIE0wIDI5LjUgQzEuMjIgMTAuNjUsIDEwLjI2IDEuNTMsIDI5LjUgMCIvPjwvZz48ZyB0cmFuc2Zvcm09InRyYW5zbGF0ZSg4MzMuNzI4MTM4ODEyODU5OSAzNTEuNDg3MzcxNzc1NjkyMikgcm90YXRlKDAgNTQuNzg5OTQ3NTA5NzY1NjI1IDEyLjUpIj48dGV4dCBkaXJlY3Rpb249Imx0ciIgc3R5bGU9IndoaXRlLXNwYWNlOiBwcmU7IiB0ZXh0LWFuY2hvcj0ibWlkZGxlIiBmaWxsPSIjMWUxZTFlIiBmb250LXNpemU9IjIwcHgiIGZvbnQtZmFtaWx5PSJWaXJnaWwsIFNlZ29lIFVJIEVtb2ppIiB5PSIxNy42MTk5OTk5OTk5OTk5OTciIHg9IjU0Ljc4OTk0NzUwOTc2NTYyNSI+RGVlcCBEaXZlczwvdGV4dD48L2c+PGcgdHJhbnNmb3JtPSJ0cmFuc2xhdGUoNzkzLjM1MDExNzU3MjYyNTUgMjgyLjY1MzM4NzQwMDY5MjIpIHJvdGF0ZSgwIDI0LjkwODIwMzEyNSAyNC45MDgyMDMxMjUpIiBzdHJva2UtbGluZWNhcD0icm91bmQiPjxwYXRoIGZpbGw9Im5vbmUiIHN0cm9rZS13aWR0aD0iMC41IiBzdHJva2U9IiMyOTlhOGQiIGQ9Ik04LjU0IDYuMSBDOC41NCA2LjEsIDguNTQgNi4xLCA4LjU0IDYuMSBNOC41NCA2LjEgQzguNTQgNi4xLCA4LjU0IDYuMSwgOC41NCA2LjEgTTEuMDYgMjAuOCBDNy41OCAxNC40OSwgMTIuOSA3Ljg4LCAxNi44MSAyLjY5IE0xLjA2IDIwLjggQzUuOTIgMTUuNTcsIDEwLjcxIDkuMzUsIDE2LjgxIDIuNjkgTTEuNDYgMjYuNDQgQzcuMzYgMjAuMTQsIDExLjk5IDEzLjg1LCAyNC40MiAwLjAzIE0xLjQ2IDI2LjQ0IEM5LjQgMTYuODUsIDE3LjUyIDcuNDEsIDI0LjQyIDAuMDMgTTIuNTEgMzEuMzMgQzExLjM4IDIwLjg3LCAyMS42MyA4LjYyLCAyOC43NSAxLjE0IE0yLjUxIDMxLjMzIEMxMi4yNiAyMC4wOCwgMjEuMDUgOS41OCwgMjguNzUgMS4xNCBNMy41NiAzNi4yMiBDMTEuNTEgMjcuNDcsIDE5LjQ5IDE5LjMyLCAzMi40MiAzLjAxIE0zLjU2IDM2LjIyIEMxNC4xNCAyMy42LCAyNS40NiAxMC4yOSwgMzIuNDIgMy4wMSBNNS45MiAzOS42IEMxNy43NSAyNi4zLCAyOS40NSAxMi4yNSwgMzYuNzYgNC4xMyBNNS45MiAzOS42IEMxNy42IDI2LjQ2LCAyOC4zOSAxNC4yMSwgMzYuNzYgNC4xMyBNOC45NCA0Mi4yMiBDMTYuMDggMzQuMzYsIDIyLjY4IDI4LjExLCA0MC40MyA2IE04Ljk0IDQyLjIyIEMxNy4wNCAzMi40MSwgMjQuNzkgMjMuNzUsIDQwLjQzIDYgTTExLjk2IDQ0Ljg1IEMyMS4zNSAzNS4wMywgMjkuNjEgMjMuNzMsIDQzLjQ1IDguNjIgTTExLjk2IDQ0Ljg1IEMyNC4xNiAzMS40NSwgMzYuMDMgMTcuMTYsIDQzLjQ1IDguNjIgTTE1LjYzIDQ2LjcyIEMyNy40IDMzLjYzLCAzNi41MyAyMS44MSwgNDUuMTYgMTIuNzUgTTE1LjYzIDQ2LjcyIEMyNS41NSAzNS4zMywgMzUuNDEgMjQuNDUsIDQ1LjE2IDEyLjc1IE0xOS4zMSA0OC41OSBDMzAuNjUgMzUuMTgsIDQxLjUyIDIzLjUzLCA0Ny41MiAxNi4xMyBNMTkuMzEgNDguNTkgQzI4LjQ0IDM5LjEyLCAzNi44NyAyOC4zMSwgNDcuNTIgMTYuMTMgTTI0Ljk1IDQ4LjE5IEMyOS44NiA0MS42MSwgMzYuNjMgMzQuNjYsIDQ5LjIzIDIwLjI3IE0yNC45NSA0OC4xOSBDMzAuNTkgNDAuODcsIDM3LjUxIDMzLjc1LCA0OS4yMyAyMC4yNyBNMjkuOTQgNDguNTUgQzM1LjAzIDQxLjYzLCAzOS45OSAzNS43NSwgNDguOTYgMjYuNjYgTTI5Ljk0IDQ4LjU1IEMzMy43NiA0My43MiwgMzcuNjEgMzkuNjYsIDQ4Ljk2IDI2LjY2IE0zNC4yNyA0OS42NyBDMzcuMTIgNDYuOTcsIDM4Ljc0IDQ0LjA3LCA0Ny4zOSAzNC41NyBNMzQuMjcgNDkuNjcgQzM5LjM2IDQzLjcyLCA0NC41MSAzOC42MSwgNDcuMzkgMzQuNTcgTTMuNCAzNy4yNSBDMy40IDM3LjI1LCAzLjQgMzcuMjUsIDMuNCAzNy4yNSBNMy40IDM3LjI1IEMzLjQgMzcuMjUsIDMuNCAzNy4yNSwgMy40IDM3LjI1IE0yMS44NyA0OC4wMSBDMTUuNiA0Mi4yMywgOS44IDM4LjUzLCAyLjI1IDMwLjk1IE0yMS44NyA0OC4wMSBDMTUuOTIgNDIuOTcsIDEwLjAxIDM3LjgsIDIuMjUgMzAuOTUgTTI4LjI3IDQ4LjI3IEMxOS40NSA0MC4xMiwgOS43MiAzMi40MSwgMS4xIDI0LjY1IE0yOC4yNyA0OC4yNyBDMTkuMDYgNDAuNTEsIDkuODEgMzIuMjksIDEuMSAyNC42NSBNMzMuOTEgNDcuODcgQzI3LjAxIDQyLjUxLCAxOS4zNiAzNS42MywgMS40NiAxOS42NiBNMzMuOTEgNDcuODcgQzIxLjE0IDM2LjcxLCA4Ljg1IDI2LjU2LCAxLjQ2IDE5LjY2IE0zNy4yOSA0NS41MSBDMjQuOTUgMzUuMTYsIDEwLjg3IDIzLjg1LCAzLjMzIDE1Ljk5IE0zNy4yOSA0NS41MSBDMjguMjYgMzcuNjgsIDE5LjUzIDMwLjM5LCAzLjMzIDE1Ljk5IE00MC42NyA0My4xNSBDMjguNSAzMy44MSwgMTYuMTUgMjMsIDUuMiAxMi4zMSBNNDAuNjcgNDMuMTUgQzMzLjA3IDM3LjI3LCAyNi4yNCAzMC4zOCwgNS4yIDEyLjMxIE00My4yOSA0MC4xMyBDMzQuMDIgMzEuNDMsIDIyLjEzIDIzLjQzLCA3LjA3IDguNjQgTTQzLjI5IDQwLjEzIEMzMC41NCAyOS42NywgMTguMTYgMTguMTgsIDcuMDcgOC42NCBNNDYuNjcgMzcuNzcgQzM3LjMzIDI5Ljk0LCAyOC4wNiAyMS4zMiwgOS42OSA1LjYyIE00Ni42NyAzNy43NyBDMzYuNzEgMjguNjMsIDI2LjM2IDIwLjA0LCA5LjY5IDUuNjIgTTQ3Ljc5IDMzLjQzIEMzNy44NyAyMy40OCwgMjYuMjQgMTQuOTIsIDEzLjgyIDMuOTEgTTQ3Ljc5IDMzLjQzIEMzNS4wOCAyMi4wMywgMjEuMDMgMTAuMTEsIDEzLjgyIDMuOTEgTTQ4LjE1IDI4LjQ1IEM0MC45NSAyMi43MiwgMzIuOTYgMTUuMDQsIDE3Ljk2IDIuMjEgTTQ4LjE1IDI4LjQ1IEMzNi45IDE4LjYsIDI0Ljg5IDcuOTgsIDE3Ljk2IDIuMjEgTTQ5LjI2IDI0LjEyIEMzOS4xOSAxNC44NCwgMjcuMjcgNS4yLCAyMi4wOSAwLjUgTTQ5LjI2IDI0LjEyIEM0My4zOCAxOC4zMywgMzYuNzcgMTMuNjcsIDIyLjA5IDAuNSBNNDguMTEgMTcuODIgQzQzLjEyIDEzLjM4LCAzNy43IDkuOTUsIDI3Ljc0IDAuMSBNNDguMTEgMTcuODIgQzQzLjY5IDEzLjcsIDM4LjkyIDkuODcsIDI3Ljc0IDAuMSBNNDIuNDMgNy41OCBDNDEuMzQgNi4yNSwgMzkuOTYgNS4xNSwgMzguNjYgNC4zIE00Mi40MyA3LjU4IEM0MS41NCA2LjgzLCA0MC41NiA2LCAzOC42NiA0LjMiLz48cGF0aCBmaWxsPSJub25lIiBzdHJva2Utd2lkdGg9IjEiIHN0cm9rZT0iIzFlMWUxZSIgZD0iTTI1LjExIC0wLjMyIEMzMC4xMyAtMC41OSwgMzcuMDkgMi4yLCA0MS4xNSA1LjY1IEM0NS4yMSA5LjEsIDQ4LjYgMTUuMDgsIDQ5LjQ4IDIwLjM5IEM1MC4zNyAyNS42OSwgNDkuMDggMzIuNzYsIDQ2LjQ2IDM3LjUgQzQzLjg0IDQyLjIzLCAzOC42OSA0Ni45OCwgMzMuNzYgNDguNzcgQzI4LjgyIDUwLjU2LCAyMS45MyA1MC4yLCAxNi44MyA0OC4yNSBDMTEuNzMgNDYuMjksIDUuODYgNDEuNjMsIDMuMTUgMzcuMDMgQzAuNDQgMzIuNDQsIC0wLjM0IDI1LjgxLCAwLjU1IDIwLjY3IEMxLjQ0IDE1LjUyLCA0LjQzIDkuNjUsIDguNDkgNi4xNiBDMTIuNTUgMi42NiwgMjIuMDIgMC42NCwgMjQuOTMgLTAuMyBDMjcuODQgLTEuMjUsIDI1Ljg4IDAuMDIsIDI1Ljk1IDAuNDkgTTE5LjE1IDEuMTUgQzI0LjE2IC0wLjI5LCAzMi4zNyAwLjMzLCAzNy4xMSAyLjU5IEM0MS44NSA0Ljg1LCA0NS41NyA5Ljc5LCA0Ny41OSAxNC43MSBDNDkuNjEgMTkuNjQsIDUwLjcgMjYuODgsIDQ5LjI0IDMyLjE3IEM0Ny43OCAzNy40NiwgNDMuNTQgNDMuNTIsIDM4Ljg0IDQ2LjQ2IEMzNC4xNCA0OS40LCAyNi40IDUwLjY4LCAyMS4wNiA0OS44MSBDMTUuNzIgNDguOTQsIDEwLjM4IDQ1LjIxLCA2LjgxIDQxLjI1IEMzLjI0IDM3LjI4LCAtMC4wNyAzMS4zMSwgLTAuMzMgMjYuMDQgQy0wLjYgMjAuNzYsIDEuODcgMTMuOTEsIDUuMjEgOS42IEM4LjU1IDUuMywgMTcuMzIgMS42OSwgMTkuNzIgMC4yMSBDMjIuMTEgLTEuMjYsIDE5LjU5IDAuMjIsIDE5LjYgMC43NSIvPjwvZz48ZyB0cmFuc2Zvcm09InRyYW5zbGF0ZSg4MTEuOTY1NTY4Njg0OTg0OSAyOTQuOTQ4ODMxMTg4ODMyOCkgcm90YXRlKDAgNi4xNzk5OTI2NzU3ODEyNSAxMi41KSI+PHRleHQgZGlyZWN0aW9uPSJsdHIiIHN0eWxlPSJ3aGl0ZS1zcGFjZTogcHJlOyIgdGV4dC1hbmNob3I9Im1pZGRsZSIgZmlsbD0iIzFlMWUxZSIgZm9udC1zaXplPSIyMHB4IiBmb250LWZhbWlseT0iVmlyZ2lsLCBTZWdvZSBVSSBFbW9qaSIgeT0iMTcuNjE5OTk5OTk5OTk5OTk3IiB4PSI2LjE3OTk5MjY3NTc4MTI1Ij41PC90ZXh0PjwvZz48ZyBzdHJva2UtbGluZWNhcD0icm91bmQiPjxnIHRyYW5zZm9ybT0idHJhbnNsYXRlKDE5My43MzY4MzYzMjI2MjUzMiAzNjYuMjk0MDEyNDAwNjkyMikgcm90YXRlKDAgMTUuNTI1NjkxMzgzMjEyMTA2IDAuMzAxNTIwNjIzNTE2OTc4NSkiPjxwYXRoIGZpbGw9Im5vbmUiIHN0cm9rZS13aWR0aD0iMSIgc3Ryb2tlPSIjMWUxZTFlIiBkPSJNLTAuNDUgMC4xNyBDNC42MiAwLjIyLCAyNS4yOCAwLjc0LCAzMC40NSAwLjgyIE0wLjMyIC0wLjIxIEM1LjU3IC0wLjEsIDI2LjU0IC0wLjI5LCAzMS41IC0wLjA0Ii8+PC9nPjxnIHRyYW5zZm9ybT0idHJhbnNsYXRlKDE5My43MzY4MzYzMjI2MjUzMiAzNjYuMjk0MDEyNDAwNjkyMikgcm90YXRlKDAgMTUuNTI1NjkxMzgzMjEyMTA2IDAuMzAxNTIwNjIzNTE2OTc4NSkiPjxwYXRoIGZpbGw9Im5vbmUiIHN0cm9rZS13aWR0aD0iMSIgc3Ryb2tlPSIjMWUxZTFlIiBkPSJNMTYuOTUgNSBDMjEuNTQgMy4wNSwgMjUuOTggMS43MiwgMzEuNSAtMC4wNCBNMTYuOTUgNSBDMjEuNTEgMy43NCwgMjYuMjUgMi4yNywgMzEuNSAtMC4wNCIvPjwvZz48ZyB0cmFuc2Zvcm09InRyYW5zbGF0ZSgxOTMuNzM2ODM2MzIyNjI1MzIgMzY2LjI5NDAxMjQwMDY5MjIpIHJvdGF0ZSgwIDE1LjUyNTY5MTM4MzIxMjEwNiAwLjMwMTUyMDYyMzUxNjk3ODUpIj48cGF0aCBmaWxsPSJub25lIiBzdHJva2Utd2lkdGg9IjEiIHN0cm9rZT0iIzFlMWUxZSIgZD0iTTE3LjExIC01LjU0IEMyMS43MSAtNC4zMiwgMjYuMDkgLTIuNDgsIDMxLjUgLTAuMDQgTTE3LjExIC01LjU0IEMyMS42IC0zLjU2LCAyNi4yOSAtMS43OCwgMzEuNSAtMC4wNCIvPjwvZz48L2c+PG1hc2svPjxnIHN0cm9rZS1saW5lY2FwPSJyb3VuZCI+PGcgdHJhbnNmb3JtPSJ0cmFuc2xhdGUoMzgzLjM5MzA4NjMyMjYyNTQ0IDM2NS41NDQwMTI0MDA2OTIyKSByb3RhdGUoMCAxNi41ODQ2MTAyOTI0MDg2MiAwLjMwNTE5MzQ0NzM1NjU3MjMpIj48cGF0aCBmaWxsPSJub25lIiBzdHJva2Utd2lkdGg9IjEiIHN0cm9rZT0iIzFlMWUxZSIgZD0iTS0wLjM1IDAuMjEgQzUuMzEgMC4xOSwgMjcuODggMC4wOCwgMzMuNTIgMC4wNCBNMC40NyAtMC4xNSBDNi4wOCAtMC4wOSwgMjcuNTUgMC42NCwgMzIuOTggMC43NiIvPjwvZz48ZyB0cmFuc2Zvcm09InRyYW5zbGF0ZSgzODMuMzkzMDg2MzIyNjI1NDQgMzY1LjU0NDAxMjQwMDY5MjIpIHJvdGF0ZSgwIDE2LjU4NDYxMDI5MjQwODYyIDAuMzA1MTkzNDQ3MzU2NTcyMykiPjxwYXRoIGZpbGw9Im5vbmUiIHN0cm9rZS13aWR0aD0iMSIgc3Ryb2tlPSIjMWUxZTFlIiBkPSJNMTYuOTYgNi4wNyBDMjAuNzcgNC42MiwgMjMuOTkgMy40MSwgMzIuOTggMC43NiBNMTYuOTYgNi4wNyBDMjIuMTQgNC44MiwgMjYuNTQgMi42OCwgMzIuOTggMC43NiIvPjwvZz48ZyB0cmFuc2Zvcm09InRyYW5zbGF0ZSgzODMuMzkzMDg2MzIyNjI1NDQgMzY1LjU0NDAxMjQwMDY5MjIpIHJvdGF0ZSgwIDE2LjU4NDYxMDI5MjQwODYyIDAuMzA1MTkzNDQ3MzU2NTcyMykiPjxwYXRoIGZpbGw9Im5vbmUiIHN0cm9rZS13aWR0aD0iMSIgc3Ryb2tlPSIjMWUxZTFlIiBkPSJNMTcuMjkgLTUuNDYgQzIxLjA1IC00LjQsIDI0LjE5IC0zLjExLCAzMi45OCAwLjc2IE0xNy4yOSAtNS40NiBDMjIuMzggLTMuMjQsIDI2LjY4IC0xLjkyLCAzMi45OCAwLjc2Ii8+PC9nPjwvZz48bWFzay8+PGcgc3Ryb2tlLWxpbmVjYXA9InJvdW5kIj48ZyB0cmFuc2Zvcm09InRyYW5zbGF0ZSg1NzkuMTQ2OTkyNTcyNjI1NSAzNjUuNzE5NzkzNjUwNjkyMikgcm90YXRlKDAgMTQuNDM1Mzc3NzExMTUwNzc4IDAuMTQ1NDU2OTU0NDMwMzI5NykiPjxwYXRoIGZpbGw9Im5vbmUiIHN0cm9rZS13aWR0aD0iMSIgc3Ryb2tlPSIjMWUxZTFlIiBkPSJNLTAuMjIgMC4wNCBDNC42OCAwLjAxLCAyNC4xNSAtMC4wNiwgMjkuMDkgMCBNMC42NiAtMC40MSBDNS41MSAtMC4zNywgMjMuNzggMC43MSwgMjguNTMgMC43Ii8+PC9nPjxnIHRyYW5zZm9ybT0idHJhbnNsYXRlKDU3OS4xNDY5OTI1NzI2MjU1IDM2NS43MTk3OTM2NTA2OTIyKSByb3RhdGUoMCAxNC40MzUzNzc3MTExNTA3NzggMC4xNDU0NTY5NTQ0MzAzMjk3KSI+PHBhdGggZmlsbD0ibm9uZSIgc3Ryb2tlLXdpZHRoPSIxIiBzdHJva2U9IiMxZTFlMWUiIGQ9Ik0xNC41OCA1LjI4IEMxNy45MiAzLjg4LCAyMS4xNSAzLjI5LCAyOC41MyAwLjcgTTE0LjU4IDUuMjggQzE5Ljc0IDMuMzgsIDI0Ljc4IDEuOTEsIDI4LjUzIDAuNyIvPjwvZz48ZyB0cmFuc2Zvcm09InRyYW5zbGF0ZSg1NzkuMTQ2OTkyNTcyNjI1NSAzNjUuNzE5NzkzNjUwNjkyMikgcm90YXRlKDAgMTQuNDM1Mzc3NzExMTUwNzc4IDAuMTQ1NDU2OTU0NDMwMzI5NykiPjxwYXRoIGZpbGw9Im5vbmUiIHN0cm9rZS13aWR0aD0iMSIgc3Ryb2tlPSIjMWUxZTFlIiBkPSJNMTQuOSAtNC43NiBDMTguMTggLTMuNzksIDIxLjM0IC0yLjAyLCAyOC41MyAwLjcgTTE0LjkgLTQuNzYgQzE5Ljk5IC0yLjksIDI0LjkxIC0wLjYxLCAyOC41MyAwLjciLz48L2c+PC9nPjxtYXNrLz48ZyBzdHJva2UtbGluZWNhcD0icm91bmQiPjxnIHRyYW5zZm9ybT0idHJhbnNsYXRlKDc3NC45MDg3MTEzMjI2MjU1IDM2My44MzY5ODExNTA2OTIyKSByb3RhdGUoMCAxNS44OTYwOTA5MDM5NzEzNTYgLTAuMzg5MTcxMzc0Njc0MTkxNCkiPjxwYXRoIGZpbGw9Im5vbmUiIHN0cm9rZS13aWR0aD0iMSIgc3Ryb2tlPSIjMWUxZTFlIiBkPSJNLTAuMjYgMCBDNS4xMiAtMC4wMSwgMjYuNjEgLTAuMDQsIDMyLjA2IC0wLjAzIE0wLjYgLTAuNDcgQzUuOTQgLTAuNjQsIDI2LjM5IC0wLjc0LCAzMS42OCAtMC43OCIvPjwvZz48ZyB0cmFuc2Zvcm09InRyYW5zbGF0ZSg3NzQuOTA4NzExMzIyNjI1NSAzNjMuODM2OTgxMTUwNjkyMikgcm90YXRlKDAgMTUuODk2MDkwOTAzOTcxMzU2IC0wLjM4OTE3MTM3NDY3NDE5MTQpIj48cGF0aCBmaWxsPSJub25lIiBzdHJva2Utd2lkdGg9IjEiIHN0cm9rZT0iIzFlMWUxZSIgZD0iTTE2LjcgNC43OCBDMjAuNTkgMy41MywgMjUuMDYgMi42MywgMzEuNjggLTAuNzggTTE2LjcgNC43OCBDMjIuNDEgMi43MywgMjguNjkgMC4wNCwgMzEuNjggLTAuNzgiLz48L2c+PGcgdHJhbnNmb3JtPSJ0cmFuc2xhdGUoNzc0LjkwODcxMTMyMjYyNTUgMzYzLjgzNjk4MTE1MDY5MjIpIHJvdGF0ZSgwIDE1Ljg5NjA5MDkwMzk3MTM1NiAtMC4zODkxNzEzNzQ2NzQxOTE0KSI+PHBhdGggZmlsbD0ibm9uZSIgc3Ryb2tlLXdpZHRoPSIxIiBzdHJva2U9IiMxZTFlMWUiIGQ9Ik0xNi42MyAtNi4xNSBDMjAuNTQgLTQuNTcsIDI1LjAzIC0yLjYzLCAzMS42OCAtMC43OCBNMTYuNjMgLTYuMTUgQzIyLjM2IC0zLjg2LCAyOC42NyAtMi4yMiwgMzEuNjggLTAuNzgiLz48L2c+PC9nPjxtYXNrLz48ZyBzdHJva2UtbGluZWNhcD0icm91bmQiIG1hc2s9InVybCgjbWFzay05eXZhWGNuRDQyUUViUVhaSEh5QWIpIj48ZyB0cmFuc2Zvcm09InRyYW5zbGF0ZSg2OTAuNTI5ODA1MDcyNjI1NSAyODUuMDI4Mzg3NDAwNjkyMikgcm90YXRlKDAgLTI2Ni4wODAxMDI1MzA5Mjc0IC0yOS42OTY4MDkyMDIxNTY1NDQpIj48cGF0aCBmaWxsPSJub25lIiBzdHJva2Utd2lkdGg9IjEiIHN0cm9rZT0iIzFlMWUxZSIgZD0iTTAuMjMgMC44OSBDLTQ3LjAzIC05LjYyLCAtMTk1LjQ5IC02My41NywgLTI4NC4xMiAtNjMuMDQgQy0zNzIuNzUgLTYyLjUxLCAtNDkwLjIyIC03LjI2LCAtNTMxLjU2IDQuMDYgTS0xLjExIDAuMzEgQy00OC4zOSAtMTAuNSwgLTE5NS45NyAtNjUuMzYsIC0yODQuNTEgLTY0LjU1IEMtMzczLjA2IC02My43NCwgLTQ5MS4xIC02LjYyLCAtNTMyLjM5IDUuMTciLz48L2c+PGcgdHJhbnNmb3JtPSJ0cmFuc2xhdGUoNjkwLjUyOTgwNTA3MjYyNTUgMjg1LjAyODM4NzQwMDY5MjIpIHJvdGF0ZSgwIC0yNjYuMDgwMTAyNTMwOTI3NCAtMjkuNjk2ODA5MjAyMTU2NTQ0KSI+PHBhdGggZmlsbD0ibm9uZSIgc3Ryb2tlLXdpZHRoPSIxIiBzdHJva2U9IiMxZTFlMWUiIGQ9Ik0tNTEzLjI2IC0xMC45MyBDLTUxNi41OSAtNS4wOCwgLTUyMC45NiAtMi45OCwgLTUzMi4zOSA1LjE3IE0tNTEzLjI2IC0xMC45MyBDLTUxOC4yIC03LjQ1LCAtNTIyLjg1IC0zLjIxLCAtNTMyLjM5IDUuMTciLz48L2c+PGcgdHJhbnNmb3JtPSJ0cmFuc2xhdGUoNjkwLjUyOTgwNTA3MjYyNTUgMjg1LjAyODM4NzQwMDY5MjIpIHJvdGF0ZSgwIC0yNjYuMDgwMTAyNTMwOTI3NCAtMjkuNjk2ODA5MjAyMTU2NTQ0KSI+PHBhdGggZmlsbD0ibm9uZSIgc3Ryb2tlLXdpZHRoPSIxIiBzdHJva2U9IiMxZTFlMWUiIGQ9Ik0tNTA3LjM5IDUuMTMgQy01MTIuMiA2Ljk1LCAtNTE4LjA1IDUsIC01MzIuMzkgNS4xNyBNLTUwNy4zOSA1LjEzIEMtNTEzLjggNC4zNCwgLTUyMC4wMiA0LjI5LCAtNTMyLjM5IDUuMTciLz48L2c+PC9nPjxtYXNrIGlkPSJtYXNrLTl5dmFYY25ENDJRRWJRWFpISHlBYiI+PHJlY3QgaGVpZ2h0PSI0NTMuNjgwNzMxMTUwNjkyMiIgd2lkdGg9IjEzMjEuOTY3MzA1MDcyNjI1NSIgZmlsbD0iI2ZmZiIgeT0iMCIgeD0iMCIvPjxyZWN0IG9wYWNpdHk9IjEiIGhlaWdodD0iNDAiIHdpZHRoPSIxODYuMTc1OTAzMzIwMzEyNSIgZmlsbD0iIzAwMCIgeT0iMjAwLjgyOTE2ODY1MDY5MjIyIiB4PSIzMTIuMjY5OTc4NDEyNDY5MyIvPjwvbWFzaz48ZyB0cmFuc2Zvcm09InRyYW5zbGF0ZSgzMTIuMjY5OTc4NDEyNDY5MyAyMDAuODI5MTY4NjUwNjkyMjIpIHJvdGF0ZSgwIDExMi4xNzk3MjQxMjkyMjg4NyA1NC41MDI0MDk1NDc4NDM0NTYpIj48dGV4dCBkaXJlY3Rpb249Imx0ciIgc3R5bGU9IndoaXRlLXNwYWNlOiBwcmU7IiB0ZXh0LWFuY2hvcj0ibWlkZGxlIiBmaWxsPSIjMWUxZTFlIiBmb250LXNpemU9IjE2cHgiIGZvbnQtZmFtaWx5PSJWaXJnaWwsIFNlZ29lIFVJIEVtb2ppIiB5PSIxNC4wOTYiIHg9IjkzLjA4Nzk1MTY2MDE1NjI1Ij5QcmltYXJ5IEdvYWw6IFNhdGlzZnkgPC90ZXh0Pjx0ZXh0IGRpcmVjdGlvbj0ibHRyIiBzdHlsZT0id2hpdGUtc3BhY2U6IHByZTsiIHRleHQtYW5jaG9yPSJtaWRkbGUiIGZpbGw9IiMxZTFlMWUiIGZvbnQtc2l6ZT0iMTZweCIgZm9udC1mYW1pbHk9IlZpcmdpbCwgU2Vnb2UgVUkgRW1vamkiIHk9IjM0LjA5NjAwMDAwMDAwMDAwNCIgeD0iOTMuMDg3OTUxNjYwMTU2MjUiPkZ1bmN0aW9uYWwgUmVxdWlyZW1lbnRzPC90ZXh0PjwvZz48ZyBzdHJva2UtbGluZWNhcD0icm91bmQiIG1hc2s9InVybCgjbWFzay1rcVBlVHhYUXR3R0NwZkZoRjVsaDApIj48ZyB0cmFuc2Zvcm09InRyYW5zbGF0ZSg4OTQuNTYxMDU1MDcyNjI1NSAyODUuNTI4Mzg3NDAwNjkyMikgcm90YXRlKDAgLTQxNS4xODA2OTA4MjIyMTQ4NCAtNzAuOTQ4NzU1NTE4MDUyMjUpIj48cGF0aCBmaWxsPSJub25lIiBzdHJva2Utd2lkdGg9IjEiIHN0cm9rZT0iIzFlMWUxZSIgZD0iTS0wLjEyIC0wLjQgQy03MS4wNyAtMjMuODUsIC0yODYuMzggLTEzOC4wNiwgLTQyNC42NCAtMTM5LjU4IEMtNTYyLjg5IC0xNDEuMSwgLTc2Mi4yMyAtMzEuMTgsIC04MjkuNjQgLTkuNTEgTS0xLjY0IC0xLjY1IEMtNzIuMjkgLTI0Ljk3LCAtMjg0LjE5IC0xNDAuMzEsIC00MjIuMjkgLTE0MS40OSBDLTU2MC4zOSAtMTQyLjY3LCAtNzYyLjU2IC0zMC44MiwgLTgzMC4yNCAtOC43NSIvPjwvZz48ZyB0cmFuc2Zvcm09InRyYW5zbGF0ZSg4OTQuNTYxMDU1MDcyNjI1NSAyODUuNTI4Mzg3NDAwNjkyMikgcm90YXRlKDAgLTQxNS4xODA2OTA4MjIyMTQ4NCAtNzAuOTQ4NzU1NTE4MDUyMjUpIj48cGF0aCBmaWxsPSJub25lIiBzdHJva2Utd2lkdGg9IjEiIHN0cm9rZT0iIzFlMWUxZSIgZD0iTS04MTEuOSAtMjUuNzQgQy04MTkuNTEgLTIwLjMzLCAtODI1LjMgLTEyLjA2LCAtODMwLjI0IC04Ljc1IE0tODExLjkgLTI1Ljc0IEMtODE2LjI4IC0yMi4wNiwgLTgxOS42IC0xOC42OSwgLTgzMC4yNCAtOC43NSIvPjwvZz48ZyB0cmFuc2Zvcm09InRyYW5zbGF0ZSg4OTQuNTYxMDU1MDcyNjI1NSAyODUuNTI4Mzg3NDAwNjkyMikgcm90YXRlKDAgLTQxNS4xODA2OTA4MjIyMTQ4NCAtNzAuOTQ4NzU1NTE4MDUyMjUpIj48cGF0aCBmaWxsPSJub25lIiBzdHJva2Utd2lkdGg9IjEiIHN0cm9rZT0iIzFlMWUxZSIgZD0iTS04MDUuMjcgLTkuOTcgQy04MTUuNiAtMTAuNjksIC04MjMuOTYgLTguNTMsIC04MzAuMjQgLTguNzUgTS04MDUuMjcgLTkuOTcgQy04MTEuMTcgLTkuNywgLTgxNS44OSAtOS42NiwgLTgzMC4yNCAtOC43NSIvPjwvZz48L2c+PG1hc2sgaWQ9Im1hc2sta3FQZVR4WFF0d0dDcGZGaEY1bGgwIj48cmVjdCBoZWlnaHQ9IjUyNS41MDQ5NDk5MDA2OTIzIiB3aWR0aD0iMTgyNC41MDYzNjc1NzI2MjU1IiBmaWxsPSIjZmZmIiB5PSIwIiB4PSIwIi8+PHJlY3Qgb3BhY2l0eT0iMSIgaGVpZ2h0PSI0MCIgd2lkdGg9IjIxNy45ODM4NzE0NTk5NjA5NCIgZmlsbD0iIzAwMCIgeT0iMTI1LjU1MTgyNDkwMDY5MjIyIiB4PSIzNjEuNjMxNjE5MzQyNjQ1MSIvPjwvbWFzaz48ZyB0cmFuc2Zvcm09InRyYW5zbGF0ZSgzNjEuNjMxNjE5MzQyNjQ1MSAxMjUuNTUxODI0OTAwNjkyMjIpIHJvdGF0ZSgwIDExNy43NDg3NDQ5MDc3NjU2MyA4OS4wMjc4MDY5ODE5NDc3NSkiPjx0ZXh0IGRpcmVjdGlvbj0ibHRyIiBzdHlsZT0id2hpdGUtc3BhY2U6IHByZTsiIHRleHQtYW5jaG9yPSJtaWRkbGUiIGZpbGw9IiMxZTFlMWUiIGZvbnQtc2l6ZT0iMTZweCIgZm9udC1mYW1pbHk9IlZpcmdpbCwgU2Vnb2UgVUkgRW1vamkiIHk9IjE0LjA5NiIgeD0iMTA4Ljk5MTkzNTcyOTk4MDQ3Ij5QcmltYXJ5IEdvYWw6IFNhdGlzZnk8L3RleHQ+PHRleHQgZGlyZWN0aW9uPSJsdHIiIHN0eWxlPSJ3aGl0ZS1zcGFjZTogcHJlOyIgdGV4dC1hbmNob3I9Im1pZGRsZSIgZmlsbD0iIzFlMWUxZSIgZm9udC1zaXplPSIxNnB4IiBmb250LWZhbWlseT0iVmlyZ2lsLCBTZWdvZSBVSSBFbW9qaSIgeT0iMzQuMDk2MDAwMDAwMDAwMDA0IiB4PSIxMDguOTkxOTM1NzI5OTgwNDciPk5vbi1mdW5jdGlvbmFsIFJlcXVpcmVtZW50czwvdGV4dD48L2c+PGcgdHJhbnNmb3JtPSJ0cmFuc2xhdGUoMjkuMzc0NjkzMzIwNjI1NjUzIDUwNy4wNDA2MzA3NDE2NzIyKSByb3RhdGUoMCA0MzguNDU5NjU1NzYxNzE4NzUgMjI1KSI+PHRleHQgZGlyZWN0aW9uPSJsdHIiIHN0eWxlPSJ3aGl0ZS1zcGFjZTogcHJlOyIgdGV4dC1hbmNob3I9InN0YXJ0IiBmaWxsPSIjMWUxZTFlIiBmb250LXNpemU9IjIwcHgiIGZvbnQtZmFtaWx5PSJWaXJnaWwsIFNlZ29lIFVJIEVtb2ppIiB5PSIxNy42MTk5OTk5OTk5OTk5OTciIHg9IjAiPkZ1bmN0aW9uYWwgUmVxdWlyZW1lbnQ8L3RleHQ+PHRleHQgZGlyZWN0aW9uPSJsdHIiIHN0eWxlPSJ3aGl0ZS1zcGFjZTogcHJlOyIgdGV4dC1hbmNob3I9InN0YXJ0IiBmaWxsPSIjMWUxZTFlIiBmb250LXNpemU9IjIwcHgiIGZvbnQtZmFtaWx5PSJWaXJnaWwsIFNlZ29lIFVJIEVtb2ppIiB5PSI0Mi42MiIgeD0iMCI+LSBCb29rIHRpY2tldHM8L3RleHQ+PHRleHQgZGlyZWN0aW9uPSJsdHIiIHN0eWxlPSJ3aGl0ZS1zcGFjZTogcHJlOyIgdGV4dC1hbmNob3I9InN0YXJ0IiBmaWxsPSIjMWUxZTFlIiBmb250LXNpemU9IjIwcHgiIGZvbnQtZmFtaWx5PSJWaXJnaWwsIFNlZ29lIFVJIEVtb2ppIiB5PSI2Ny42MiIgeD0iMCI+LSBWaWV3IGFuIGV2ZW50PC90ZXh0Pjx0ZXh0IGRpcmVjdGlvbj0ibHRyIiBzdHlsZT0id2hpdGUtc3BhY2U6IHByZTsiIHRleHQtYW5jaG9yPSJzdGFydCIgZmlsbD0iIzFlMWUxZSIgZm9udC1zaXplPSIyMHB4IiBmb250LWZhbWlseT0iVmlyZ2lsLCBTZWdvZSBVSSBFbW9qaSIgeT0iOTIuNjIiIHg9IjAiPi0gU2VhcmNoIGZvciBldmVudHM8L3RleHQ+PHRleHQgZGlyZWN0aW9uPSJsdHIiIHN0eWxlPSJ3aGl0ZS1zcGFjZTogcHJlOyIgdGV4dC1hbmNob3I9InN0YXJ0IiBmaWxsPSIjMWUxZTFlIiBmb250LXNpemU9IjIwcHgiIGZvbnQtZmFtaWx5PSJWaXJnaWwsIFNlZ29lIFVJIEVtb2ppIiB5PSIxMTcuNjIiIHg9IjAiLz48dGV4dCBkaXJlY3Rpb249Imx0ciIgc3R5bGU9IndoaXRlLXNwYWNlOiBwcmU7IiB0ZXh0LWFuY2hvcj0ic3RhcnQiIGZpbGw9IiMxZTFlMWUiIGZvbnQtc2l6ZT0iMjBweCIgZm9udC1mYW1pbHk9IlZpcmdpbCwgU2Vnb2UgVUkgRW1vamkiIHk9IjE0Mi42MiIgeD0iMCI+Tm9uLWZ1bmN0aW9uYWwgUmVxdWlyZW1lbnRzPC90ZXh0Pjx0ZXh0IGRpcmVjdGlvbj0ibHRyIiBzdHlsZT0id2hpdGUtc3BhY2U6IHByZTsiIHRleHQtYW5jaG9yPSJzdGFydCIgZmlsbD0iIzFlMWUxZSIgZm9udC1zaXplPSIyMHB4IiBmb250LWZhbWlseT0iVmlyZ2lsLCBTZWdvZSBVSSBFbW9qaSIgeT0iMTY3LjYyIiB4PSIwIj4tIGxvdyBsYXRlbmN5IHNlYXJjaCA8L3RleHQ+PHRleHQgZGlyZWN0aW9uPSJsdHIiIHN0eWxlPSJ3aGl0ZS1zcGFjZTogcHJlOyIgdGV4dC1hbmNob3I9InN0YXJ0IiBmaWxsPSIjMWUxZTFlIiBmb250LXNpemU9IjIwcHgiIGZvbnQtZmFtaWx5PSJWaXJnaWwsIFNlZ29lIFVJIEVtb2ppIiB5PSIxOTIuNjIiIHg9IjAiPi0gc3Ryb25nIGNvbnNpc3RlbmN5IGZvciBib29raW5nIHRpY2tldHMgJmFtcDsgaGlnaCBhdmFpbGFiaWxpdHkgZm9yIHNlYXJjaCBhbmQgdmlld2luZyBldmVudHM8L3RleHQ+PHRleHQgZGlyZWN0aW9uPSJsdHIiIHN0eWxlPSJ3aGl0ZS1zcGFjZTogcHJlOyIgdGV4dC1hbmNob3I9InN0YXJ0IiBmaWxsPSIjMWUxZTFlIiBmb250LXNpemU9IjIwcHgiIGZvbnQtZmFtaWx5PSJWaXJnaWwsIFNlZ29lIFVJIEVtb2ppIiB5PSIyMTcuNjIiIHg9IjAiPi0gcmVhZCAmZ3Q7Jmd0OyB3cml0ZTwvdGV4dD48dGV4dCBkaXJlY3Rpb249Imx0ciIgc3R5bGU9IndoaXRlLXNwYWNlOiBwcmU7IiB0ZXh0LWFuY2hvcj0ic3RhcnQiIGZpbGw9IiMxZTFlMWUiIGZvbnQtc2l6ZT0iMjBweCIgZm9udC1mYW1pbHk9IlZpcmdpbCwgU2Vnb2UgVUkgRW1vamkiIHk9IjI0Mi42MiIgeD0iMCI+LSBzY2FsYWJpbGl0eSB0byBoYW5kbGUgc3VyZ2VzIGZyb20gcG9wdWxhciBldmVudHM8L3RleHQ+PHRleHQgZGlyZWN0aW9uPSJsdHIiIHN0eWxlPSJ3aGl0ZS1zcGFjZTogcHJlOyIgdGV4dC1hbmNob3I9InN0YXJ0IiBmaWxsPSIjMWUxZTFlIiBmb250LXNpemU9IjIwcHgiIGZvbnQtZmFtaWx5PSJWaXJnaWwsIFNlZ29lIFVJIEVtb2ppIiB5PSIyNjcuNjIiIHg9IjAiLz48dGV4dCBkaXJlY3Rpb249Imx0ciIgc3R5bGU9IndoaXRlLXNwYWNlOiBwcmU7IiB0ZXh0LWFuY2hvcj0ic3RhcnQiIGZpbGw9IiMxZTFlMWUiIGZvbnQtc2l6ZT0iMjBweCIgZm9udC1mYW1pbHk9IlZpcmdpbCwgU2Vnb2UgVUkgRW1vamkiIHk9IjI5Mi42MiIgeD0iMCI+LS0tLS0tLS0tPC90ZXh0Pjx0ZXh0IGRpcmVjdGlvbj0ibHRyIiBzdHlsZT0id2hpdGUtc3BhY2U6IHByZTsiIHRleHQtYW5jaG9yPSJzdGFydCIgZmlsbD0iIzFlMWUxZSIgZm9udC1zaXplPSIyMHB4IiBmb250LWZhbWlseT0iVmlyZ2lsLCBTZWdvZSBVSSBFbW9qaSIgeT0iMzE3LjYyIiB4PSIwIi8+PHRleHQgZGlyZWN0aW9uPSJsdHIiIHN0eWxlPSJ3aGl0ZS1zcGFjZTogcHJlOyIgdGV4dC1hbmNob3I9InN0YXJ0IiBmaWxsPSIjMWUxZTFlIiBmb250LXNpemU9IjIwcHgiIGZvbnQtZmFtaWx5PSJWaXJnaWwsIFNlZ29lIFVJIEVtb2ppIiB5PSIzNDIuNjIiIHg9IjAiPk91dCBvZiBzY29wZTo8L3RleHQ+PHRleHQgZGlyZWN0aW9uPSJsdHIiIHN0eWxlPSJ3aGl0ZS1zcGFjZTogcHJlOyIgdGV4dC1hbmNob3I9InN0YXJ0IiBmaWxsPSIjMWUxZTFlIiBmb250LXNpemU9IjIwcHgiIGZvbnQtZmFtaWx5PSJWaXJnaWwsIFNlZ29lIFVJIEVtb2ppIiB5PSIzNjcuNjIiIHg9IjAiPi0gR0RQUiBjb21wbGlhbmNlPC90ZXh0Pjx0ZXh0IGRpcmVjdGlvbj0ibHRyIiBzdHlsZT0id2hpdGUtc3BhY2U6IHByZTsiIHRleHQtYW5jaG9yPSJzdGFydCIgZmlsbD0iIzFlMWUxZSIgZm9udC1zaXplPSIyMHB4IiBmb250LWZhbWlseT0iVmlyZ2lsLCBTZWdvZSBVSSBFbW9qaSIgeT0iMzkyLjYyIiB4PSIwIj4tIGZhdWx0IHRvbGVyYW5jZSA8L3RleHQ+PHRleHQgZGlyZWN0aW9uPSJsdHIiIHN0eWxlPSJ3aGl0ZS1zcGFjZTogcHJlOyIgdGV4dC1hbmNob3I9InN0YXJ0IiBmaWxsPSIjMWUxZTFlIiBmb250LXNpemU9IjIwcHgiIGZvbnQtZmFtaWx5PSJWaXJnaWwsIFNlZ29lIFVJIEVtb2ppIiB5PSI0MTcuNjIiIHg9IjAiPi0gZXRjLiAgPC90ZXh0Pjx0ZXh0IGRpcmVjdGlvbj0ibHRyIiBzdHlsZT0id2hpdGUtc3BhY2U6IHByZTsiIHRleHQtYW5jaG9yPSJzdGFydCIgZmlsbD0iIzFlMWUxZSIgZm9udC1zaXplPSIyMHB4IiBmb250LWZhbWlseT0iVmlyZ2lsLCBTZWdvZSBVSSBFbW9qaSIgeT0iNDQyLjYyIiB4PSIwIi8+PC9nPjxnIHRyYW5zZm9ybT0idHJhbnNsYXRlKDMxLjY1NjYyMDc3NTcxMTQxNyA5NTUuNzkxNzMyMTExMjYzNykgcm90YXRlKDAgNjQuNzM5OTM2ODI4NjEzMjggNjIuNSkiPjx0ZXh0IGRpcmVjdGlvbj0ibHRyIiBzdHlsZT0id2hpdGUtc3BhY2U6IHByZTsiIHRleHQtYW5jaG9yPSJzdGFydCIgZmlsbD0iIzFlMWUxZSIgZm9udC1zaXplPSIyMHB4IiBmb250LWZhbWlseT0iVmlyZ2lsLCBTZWdvZSBVSSBFbW9qaSIgeT0iMTcuNjE5OTk5OTk5OTk5OTk3IiB4PSIwIj5Db3JlIEVudGl0aWVzPC90ZXh0Pjx0ZXh0IGRpcmVjdGlvbj0ibHRyIiBzdHlsZT0id2hpdGUtc3BhY2U6IHByZTsiIHRleHQtYW5jaG9yPSJzdGFydCIgZmlsbD0iIzFlMWUxZSIgZm9udC1zaXplPSIyMHB4IiBmb250LWZhbWlseT0iVmlyZ2lsLCBTZWdvZSBVSSBFbW9qaSIgeT0iNDIuNjIiIHg9IjAiPi0gRXZlbnQ8L3RleHQ+PHRleHQgZGlyZWN0aW9uPSJsdHIiIHN0eWxlPSJ3aGl0ZS1zcGFjZTogcHJlOyIgdGV4dC1hbmNob3I9InN0YXJ0IiBmaWxsPSIjMWUxZTFlIiBmb250LXNpemU9IjIwcHgiIGZvbnQtZmFtaWx5PSJWaXJnaWwsIFNlZ29lIFVJIEVtb2ppIiB5PSI2Ny42MiIgeD0iMCI+LSBWZW51ZTwvdGV4dD48dGV4dCBkaXJlY3Rpb249Imx0ciIgc3R5bGU9IndoaXRlLXNwYWNlOiBwcmU7IiB0ZXh0LWFuY2hvcj0ic3RhcnQiIGZpbGw9IiMxZTFlMWUiIGZvbnQtc2l6ZT0iMjBweCIgZm9udC1mYW1pbHk9IlZpcmdpbCwgU2Vnb2UgVUkgRW1vamkiIHk9IjkyLjYyIiB4PSIwIj4tIFBlcmZvcm1lcjwvdGV4dD48dGV4dCBkaXJlY3Rpb249Imx0ciIgc3R5bGU9IndoaXRlLXNwYWNlOiBwcmU7IiB0ZXh0LWFuY2hvcj0ic3RhcnQiIGZpbGw9IiMxZTFlMWUiIGZvbnQtc2l6ZT0iMjBweCIgZm9udC1mYW1pbHk9IlZpcmdpbCwgU2Vnb2UgVUkgRW1vamkiIHk9IjExNy42MiIgeD0iMCI+LSBUaWNrZXQ8L3RleHQ+PC9nPjxnIHRyYW5zZm9ybT0idHJhbnNsYXRlKDM3LjMyMTE3MDEwNTM5NDg1NiAxMTM3LjQ5NjkxNzI3Mzc5MjQpIHJvdGF0ZSgwIDE4LjYxOTk4NzQ4Nzc5Mjk3IDI1KSI+PHRleHQgZGlyZWN0aW9uPSJsdHIiIHN0eWxlPSJ3aGl0ZS1zcGFjZTogcHJlOyIgdGV4dC1hbmNob3I9InN0YXJ0IiBmaWxsPSIjMWUxZTFlIiBmb250LXNpemU9IjIwcHgiIGZvbnQtZmFtaWx5PSJWaXJnaWwsIFNlZ29lIFVJIEVtb2ppIiB5PSIxNy42MTk5OTk5OTk5OTk5OTciIHg9IjAiPkFQSTwvdGV4dD48dGV4dCBkaXJlY3Rpb249Imx0ciIgc3R5bGU9IndoaXRlLXNwYWNlOiBwcmU7IiB0ZXh0LWFuY2hvcj0ic3RhcnQiIGZpbGw9IiMxZTFlMWUiIGZvbnQtc2l6ZT0iMjBweCIgZm9udC1mYW1pbHk9IlZpcmdpbCwgU2Vnb2UgVUkgRW1vamkiIHk9IjQyLjYyIiB4PSIwIi8+PC9nPjxnIHRyYW5zZm9ybT0idHJhbnNsYXRlKDQyLjE1MzQ4NzA2OTEwNTIxIDExOTUuOTE0MjYwMTIzOTg0Nikgcm90YXRlKDAgMzE3LjI4OTc5NDkyMTg3NSAxMi41KSI+PHRleHQgZGlyZWN0aW9uPSJsdHIiIHN0eWxlPSJ3aGl0ZS1zcGFjZTogcHJlOyIgdGV4dC1hbmNob3I9InN0YXJ0IiBmaWxsPSIjMWUxZTFlIiBmb250LXNpemU9IjIwcHgiIGZvbnQtZmFtaWx5PSJWaXJnaWwsIFNlZ29lIFVJIEVtb2ppIiB5PSIxNy42MTk5OTk5OTk5OTk5OTciIHg9IjAiPkdFVCAvZXZlbnQvOmV2ZW50SWQgLSZndDsgRXZlbnQgJmFtcDsgVmVudWUgJmFtcDsgUGVyZm9ybWVyICZhbXA7IFRpY2tldFtdPC90ZXh0PjwvZz48ZyB0cmFuc2Zvcm09InRyYW5zbGF0ZSg0My4xMTY1OTQ2ODYxNzgxOSAxMjU5LjIyNzY3OTY3NTYwMTQpIHJvdGF0ZSgwIDQ2OC4xNzk2NTY5ODI0MjE5IDEyLjUpIj48dGV4dCBkaXJlY3Rpb249Imx0ciIgc3R5bGU9IndoaXRlLXNwYWNlOiBwcmU7IiB0ZXh0LWFuY2hvcj0ic3RhcnQiIGZpbGw9IiMxZTFlMWUiIGZvbnQtc2l6ZT0iMjBweCIgZm9udC1mYW1pbHk9IlZpcmdpbCwgU2Vnb2UgVUkgRW1vamkiIHk9IjE3LjYxOTk5OTk5OTk5OTk5NyIgeD0iMCI+R0VUIC9zZWFyY2g/dGVybT17dGVybX0mYW1wO2xvY2F0aW9uPXtsb2NhdGlvbn0mYW1wO3R5cGU9e3R5cGV9JmFtcDtkYXRlPXtkYXRlfSAtJmd0OyBQYXJ0aWFsJmx0O0V2ZW50Jmd0O1tdPC90ZXh0PjwvZz48ZyB0cmFuc2Zvcm09InRyYW5zbGF0ZSg0OC40MTMyMjk0MzA3MTcwMjQgMTMzNS41MDM3NDE1NDM2MDIyKSByb3RhdGUoMCAxMzYuMjI5ODg4OTE2MDE1NjIgNjIuNSkiPjx0ZXh0IGRpcmVjdGlvbj0ibHRyIiBzdHlsZT0id2hpdGUtc3BhY2U6IHByZTsiIHRleHQtYW5jaG9yPSJzdGFydCIgZmlsbD0iIzFlMWUxZSIgZm9udC1zaXplPSIyMHB4IiBmb250LWZhbWlseT0iVmlyZ2lsLCBTZWdvZSBVSSBFbW9qaSIgeT0iMTcuNjE5OTk5OTk5OTk5OTk3IiB4PSIwIj5QT1NUIC9ib29raW5nL3Jlc2VydmU8L3RleHQ+PHRleHQgZGlyZWN0aW9uPSJsdHIiIHN0eWxlPSJ3aGl0ZS1zcGFjZTogcHJlOyIgdGV4dC1hbmNob3I9InN0YXJ0IiBmaWxsPSIjMWUxZTFlIiBmb250LXNpemU9IjIwcHgiIGZvbnQtZmFtaWx5PSJWaXJnaWwsIFNlZ29lIFVJIEVtb2ppIiB5PSI0Mi42MiIgeD0iMCI+aGVhZGVyOiBKV1QgfCBzZXNzaW9uVG9rZW48L3RleHQ+PHRleHQgZGlyZWN0aW9uPSJsdHIiIHN0eWxlPSJ3aGl0ZS1zcGFjZTogcHJlOyIgdGV4dC1hbmNob3I9InN0YXJ0IiBmaWxsPSIjMWUxZTFlIiBmb250LXNpemU9IjIwcHgiIGZvbnQtZmFtaWx5PSJWaXJnaWwsIFNlZ29lIFVJIEVtb2ppIiB5PSI2Ny42MiIgeD0iMCI+Ym9keTogezwvdGV4dD48dGV4dCBkaXJlY3Rpb249Imx0ciIgc3R5bGU9IndoaXRlLXNwYWNlOiBwcmU7IiB0ZXh0LWFuY2hvcj0ic3RhcnQiIGZpbGw9IiMxZTFlMWUiIGZvbnQtc2l6ZT0iMjBweCIgZm9udC1mYW1pbHk9IlZpcmdpbCwgU2Vnb2UgVUkgRW1vamkiIHk9IjkyLjYyIiB4PSIwIj4gICAgdGlja2V0SWQ8L3RleHQ+PHRleHQgZGlyZWN0aW9uPSJsdHIiIHN0eWxlPSJ3aGl0ZS1zcGFjZTogcHJlOyIgdGV4dC1hbmNob3I9InN0YXJ0IiBmaWxsPSIjMWUxZTFlIiBmb250LXNpemU9IjIwcHgiIGZvbnQtZmFtaWx5PSJWaXJnaWwsIFNlZ29lIFVJIEVtb2ppIiB5PSIxMTcuNjIiIHg9IjAiPn08L3RleHQ+PC9nPjxnIHRyYW5zZm9ybT0idHJhbnNsYXRlKDUxLjI0ODEyNTY2MDQwMDYzIDE0OTAuMzQxMjE0OTEyNDY0Mikgcm90YXRlKDAgMTM2LjIyOTg4ODkxNjAxNTYyIDc1KSI+PHRleHQgZGlyZWN0aW9uPSJsdHIiIHN0eWxlPSJ3aGl0ZS1zcGFjZTogcHJlOyIgdGV4dC1hbmNob3I9InN0YXJ0IiBmaWxsPSIjMWUxZTFlIiBmb250LXNpemU9IjIwcHgiIGZvbnQtZmFtaWx5PSJWaXJnaWwsIFNlZ29lIFVJIEVtb2ppIiB5PSIxNy42MTk5OTk5OTk5OTk5OTciIHg9IjAiPlBVVCAvYm9va2luZy9jb25maXJtPC90ZXh0Pjx0ZXh0IGRpcmVjdGlvbj0ibHRyIiBzdHlsZT0id2hpdGUtc3BhY2U6IHByZTsiIHRleHQtYW5jaG9yPSJzdGFydCIgZmlsbD0iIzFlMWUxZSIgZm9udC1zaXplPSIyMHB4IiBmb250LWZhbWlseT0iVmlyZ2lsLCBTZWdvZSBVSSBFbW9qaSIgeT0iNDIuNjIiIHg9IjAiPmhlYWRlcjogSldUIHwgc2Vzc2lvblRva2VuPC90ZXh0Pjx0ZXh0IGRpcmVjdGlvbj0ibHRyIiBzdHlsZT0id2hpdGUtc3BhY2U6IHByZTsiIHRleHQtYW5jaG9yPSJzdGFydCIgZmlsbD0iIzFlMWUxZSIgZm9udC1zaXplPSIyMHB4IiBmb250LWZhbWlseT0iVmlyZ2lsLCBTZWdvZSBVSSBFbW9qaSIgeT0iNjcuNjIiIHg9IjAiPmJvZHk6IHs8L3RleHQ+PHRleHQgZGlyZWN0aW9uPSJsdHIiIHN0eWxlPSJ3aGl0ZS1zcGFjZTogcHJlOyIgdGV4dC1hbmNob3I9InN0YXJ0IiBmaWxsPSIjMWUxZTFlIiBmb250LXNpemU9IjIwcHgiIGZvbnQtZmFtaWx5PSJWaXJnaWwsIFNlZ29lIFVJIEVtb2ppIiB5PSI5Mi42MiIgeD0iMCI+ICAgIHRpY2tldElkLDwvdGV4dD48dGV4dCBkaXJlY3Rpb249Imx0ciIgc3R5bGU9IndoaXRlLXNwYWNlOiBwcmU7IiB0ZXh0LWFuY2hvcj0ic3RhcnQiIGZpbGw9IiMxZTFlMWUiIGZvbnQtc2l6ZT0iMjBweCIgZm9udC1mYW1pbHk9IlZpcmdpbCwgU2Vnb2UgVUkgRW1vamkiIHk9IjExNy42MiIgeD0iMCI+ICAgIHBheW1lbnREZXRhaWxzIChzdHJpcGUpPC90ZXh0Pjx0ZXh0IGRpcmVjdGlvbj0ibHRyIiBzdHlsZT0id2hpdGUtc3BhY2U6IHByZTsiIHRleHQtYW5jaG9yPSJzdGFydCIgZmlsbD0iIzFlMWUxZSIgZm9udC1zaXplPSIyMHB4IiBmb250LWZhbWlseT0iVmlyZ2lsLCBTZWdvZSBVSSBFbW9qaSIgeT0iMTQyLjYyIiB4PSIwIj59PC90ZXh0PjwvZz48ZyB0cmFuc2Zvcm09InRyYW5zbGF0ZSgxMDk2LjA3MzgyMzA0NTE2NDggNjk1LjAyNzI2NTExNzU3NTgpIHJvdGF0ZSgwIDY2LjQxNzkxODk2NDMwMDE2IDU0LjMwMDUzNDgxMzQyMjU5KSIgc3Ryb2tlLWxpbmVjYXA9InJvdW5kIj48cGF0aCBmaWxsPSJub25lIiBzdHJva2Utd2lkdGg9IjIiIHN0cm9rZT0iIzFlMWUxZSIgZD0iTTI3LjE1IDAgQzUxLjQ5IDIuMTMsIDcyLjM3IC0wLjM3LCAxMDUuNjkgMCBNMjcuMTUgMCBDNTYuNDcgMC40NywgODMuOTggLTAuOTEsIDEwNS42OSAwIE0xMDUuNjkgMCBDMTIyLjM5IC0wLjQ2LCAxMzIuODcgMTAuMiwgMTMyLjg0IDI3LjE1IE0xMDUuNjkgMCBDMTIxLjc1IDAuMTMsIDEzMi4wOSA5Ljk1LCAxMzIuODQgMjcuMTUgTTEzMi44NCAyNy4xNSBDMTM0LjY0IDQ0LjcyLCAxMzMuNjIgNjQuMjksIDEzMi44NCA4MS40NSBNMTMyLjg0IDI3LjE1IEMxMzIuMzUgMzguNTEsIDEzMi41NSA0OC4zNCwgMTMyLjg0IDgxLjQ1IE0xMzIuODQgODEuNDUgQzEzMy4zNSA5OC4wNSwgMTI0LjE4IDExMC4yOCwgMTA1LjY5IDEwOC42IE0xMzIuODQgODEuNDUgQzEzNC4yNiAxMDAuMjUsIDEyNS42MSAxMDkuMzksIDEwNS42OSAxMDguNiBNMTA1LjY5IDEwOC42IEM4My44NiAxMDguMzksIDU5LjQ2IDEwOC4yNSwgMjcuMTUgMTA4LjYgTTEwNS42OSAxMDguNiBDNzguMjkgMTA4Ljk3LCA1MS4wOCAxMDcuMywgMjcuMTUgMTA4LjYgTTI3LjE1IDEwOC42IEM3Ljg5IDEwOS4wOSwgMC4zOSA5OS4wMiwgMCA4MS40NSBNMjcuMTUgMTA4LjYgQzYuODQgMTA3Ljk0LCAwLjE5IDk4LjkzLCAwIDgxLjQ1IE0wIDgxLjQ1IEMwLjMgNjguMTEsIC0wLjE4IDU2LjM1LCAwIDI3LjE1IE0wIDgxLjQ1IEMwLjUyIDY0LjUsIDAuNDkgNDYuMjgsIDAgMjcuMTUgTTAgMjcuMTUgQy0xLjQxIDcuMSwgMTAuMjYgMC44MywgMjcuMTUgMCBNMCAyNy4xNSBDMS4zNyA4LjUzLCAxMS4yOCAtMC40MiwgMjcuMTUgMCIvPjwvZz48ZyB0cmFuc2Zvcm09InRyYW5zbGF0ZSgxMTM1LjQ0MTc2OTQ3NTI4NTEgNzM2LjgyNzc5OTkzMDk5ODQpIHJvdGF0ZSgwIDI3LjA0OTk3MjUzNDE3OTY4OCAxMi41KSI+PHRleHQgZGlyZWN0aW9uPSJsdHIiIHN0eWxlPSJ3aGl0ZS1zcGFjZTogcHJlOyIgdGV4dC1hbmNob3I9Im1pZGRsZSIgZmlsbD0iIzFlMWUxZSIgZm9udC1zaXplPSIyMHB4IiBmb250LWZhbWlseT0iVmlyZ2lsLCBTZWdvZSBVSSBFbW9qaSIgeT0iMTcuNjE5OTk5OTk5OTk5OTk3IiB4PSIyNy4wNDk5NzI1MzQxNzk2ODgiPkNsaWVudDwvdGV4dD48L2c+PGcgdHJhbnNmb3JtPSJ0cmFuc2xhdGUoMTQ2MS4yMzkxODM3MTkwNDUgNTUxLjMyOTE1MjY3NzM3MjMpIHJvdGF0ZSgwIDkxLjEzMzUxNTY1MjQ3NTAxIDE5NS45MjYxMTkxNzEwMTM1NykiIHN0cm9rZS1saW5lY2FwPSJyb3VuZCI+PHBhdGggZmlsbD0ibm9uZSIgc3Ryb2tlLXdpZHRoPSIyIiBzdHJva2U9IiMxZTFlMWUiIGQ9Ik0zMiAwIEM2Ny4wNCAxLjg2LCAxMDAuNCAtMS4wOCwgMTUwLjI3IDAgTTMyIDAgQzc0LjkxIC0wLjYxLCAxMTcuODEgLTAuOTEsIDE1MC4yNyAwIE0xNTAuMjcgMCBDMTcxLjUgMC4wMSwgMTgyLjUxIDExLjEyLCAxODIuMjcgMzIgTTE1MC4yNyAwIEMxNzIuMjQgLTAuNjgsIDE4MS40IDguNDYsIDE4Mi4yNyAzMiBNMTgyLjI3IDMyIEMxODEuOTUgOTcuNzEsIDE4MS4wNyAxNjUuMzYsIDE4Mi4yNyAzNTkuODUgTTE4Mi4yNyAzMiBDMTgyLjgxIDE1NS42MSwgMTgyLjkzIDI3OC43NywgMTgyLjI3IDM1OS44NSBNMTgyLjI3IDM1OS44NSBDMTgzLjk3IDM3OS45NiwgMTcyLjE4IDM5MC4xOSwgMTUwLjI3IDM5MS44NSBNMTgyLjI3IDM1OS44NSBDMTgzLjA4IDM3OC45NywgMTY5LjQzIDM5MC43MiwgMTUwLjI3IDM5MS44NSBNMTUwLjI3IDM5MS44NSBDMTEzLjI5IDM5MS45MiwgNzUuMDMgMzkwLjA4LCAzMiAzOTEuODUgTTE1MC4yNyAzOTEuODUgQzExMy4yOSAzOTEuMDYsIDc1LjE4IDM5MS4xNSwgMzIgMzkxLjg1IE0zMiAzOTEuODUgQzkuNCAzOTEuOTgsIDAuMDYgMzgxLjY0LCAwIDM1OS44NSBNMzIgMzkxLjg1IEMxMS4zOSAzOTEuNTUsIC0wLjYxIDM4MC41NCwgMCAzNTkuODUgTTAgMzU5Ljg1IEMtMi41NiAyNzQuNTksIC0xLjk0IDE4OS4xNSwgMCAzMiBNMCAzNTkuODUgQzAuNjggMjg3LjU1LCAxLjM4IDIxNC40NCwgMCAzMiBNMCAzMiBDLTAuMSA4Ljc4LCA5LjY3IC0wLjYyLCAzMiAwIE0wIDMyIEMtMC45NSA4Ljc4LCAxMC40NSAxLjgyLCAzMiAwIi8+PC9nPjxnIHRyYW5zZm9ybT0idHJhbnNsYXRlKDE0NzIuNjAyNzcxMzkzMDA0MyA2OTcuMjU1MjcxODQ4Mzg1OSkgcm90YXRlKDAgNzkuNzY5OTI3OTc4NTE1NjIgNTApIj48dGV4dCBkaXJlY3Rpb249Imx0ciIgc3R5bGU9IndoaXRlLXNwYWNlOiBwcmU7IiB0ZXh0LWFuY2hvcj0ibWlkZGxlIiBmaWxsPSIjMWUxZTFlIiBmb250LXNpemU9IjIwcHgiIGZvbnQtZmFtaWx5PSJWaXJnaWwsIFNlZ29lIFVJIEVtb2ppIiB5PSIxNy42MTk5OTk5OTk5OTk5OTciIHg9Ijc5Ljc2OTkyNzk3ODUxNTYyIj5BUEkgR2F0ZXdheTwvdGV4dD48dGV4dCBkaXJlY3Rpb249Imx0ciIgc3R5bGU9IndoaXRlLXNwYWNlOiBwcmU7IiB0ZXh0LWFuY2hvcj0ibWlkZGxlIiBmaWxsPSIjMWUxZTFlIiBmb250LXNpemU9IjIwcHgiIGZvbnQtZmFtaWx5PSJWaXJnaWwsIFNlZ29lIFVJIEVtb2ppIiB5PSI0Mi42MiIgeD0iNzkuNzY5OTI3OTc4NTE1NjIiPi0gYXV0aGVudGljYXRpb248L3RleHQ+PHRleHQgZGlyZWN0aW9uPSJsdHIiIHN0eWxlPSJ3aGl0ZS1zcGFjZTogcHJlOyIgdGV4dC1hbmNob3I9Im1pZGRsZSIgZmlsbD0iIzFlMWUxZSIgZm9udC1zaXplPSIyMHB4IiBmb250LWZhbWlseT0iVmlyZ2lsLCBTZWdvZSBVSSBFbW9qaSIgeT0iNjcuNjIiIHg9Ijc5Ljc2OTkyNzk3ODUxNTYyIj4tIHJhdGUgbGltaXRpbmc8L3RleHQ+PHRleHQgZGlyZWN0aW9uPSJsdHIiIHN0eWxlPSJ3aGl0ZS1zcGFjZTogcHJlOyIgdGV4dC1hbmNob3I9Im1pZGRsZSIgZmlsbD0iIzFlMWUxZSIgZm9udC1zaXplPSIyMHB4IiBmb250LWZhbWlseT0iVmlyZ2lsLCBTZWdvZSBVSSBFbW9qaSIgeT0iOTIuNjIiIHg9Ijc5Ljc2OTkyNzk3ODUxNTYyIj4tIHJvdXRpbmc8L3RleHQ+PC9nPjxnIHN0cm9rZS1saW5lY2FwPSJyb3VuZCIgbWFzaz0idXJsKCNtYXNrLW40N25OMnlSTjRid0JrX3VUX2gzZykiPjxnIHRyYW5zZm9ybT0idHJhbnNsYXRlKDEyNDMuMDM0Mzg0NzE1ODY3OSA3NTAuNDQ2MTI0Mjk0NzUwOCkgcm90YXRlKDAgMTA3LjMxOTQ1NTA2NjQzODU5IDEuMTQxMTIxMDg4MTg3MDQ4OCkiPjxwYXRoIGZpbGw9Im5vbmUiIHN0cm9rZS13aWR0aD0iMiIgc3Ryb2tlPSIjMWUxZTFlIiBkPSJNLTAuNDIgMC44NSBDMzUuNTYgMC45OCwgMTc5LjM5IDAuNjksIDIxNS4wNiAwLjggTTEuNTYgMC4yNSBDMzcuNDggMC41NCwgMTc4LjU5IDEuNTksIDIxNC4zMiAyLjA0Ii8+PC9nPjxnIHRyYW5zZm9ybT0idHJhbnNsYXRlKDEyNDMuMDM0Mzg0NzE1ODY3OSA3NTAuNDQ2MTI0Mjk0NzUwOCkgcm90YXRlKDAgMTA3LjMxOTQ1NTA2NjQzODU5IDEuMTQxMTIxMDg4MTg3MDQ4OCkiPjxwYXRoIGZpbGw9Im5vbmUiIHN0cm9rZS13aWR0aD0iMiIgc3Ryb2tlPSIjMWUxZTFlIiBkPSJNMjMuMDcgLTcuNzEgQzE5LjAyIC01LjE2LCAxMS4xOCAtNS42MiwgLTAuNDIgMC44NSBNMjMuMDcgLTcuNzEgQzE2LjYyIC00LjgyLCA5LjI1IC0xLjg1LCAtMC40MiAwLjg1Ii8+PC9nPjxnIHRyYW5zZm9ybT0idHJhbnNsYXRlKDEyNDMuMDM0Mzg0NzE1ODY3OSA3NTAuNDQ2MTI0Mjk0NzUwOCkgcm90YXRlKDAgMTA3LjMxOTQ1NTA2NjQzODU5IDEuMTQxMTIxMDg4MTg3MDQ4OCkiPjxwYXRoIGZpbGw9Im5vbmUiIHN0cm9rZS13aWR0aD0iMiIgc3Ryb2tlPSIjMWUxZTFlIiBkPSJNMjMuMDcgOS4zOSBDMTkuMDIgNy45NywgMTEuMTkgMy41MywgLTAuNDIgMC44NSBNMjMuMDcgOS4zOSBDMTYuNjcgNi45NCwgOS4zIDQuNTYsIC0wLjQyIDAuODUiLz48L2c+PGcgdHJhbnNmb3JtPSJ0cmFuc2xhdGUoMTI0My4wMzQzODQ3MTU4Njc5IDc1MC40NDYxMjQyOTQ3NTA4KSByb3RhdGUoMCAxMDcuMzE5NDU1MDY2NDM4NTkgMS4xNDExMjEwODgxODcwNDg4KSI+PHBhdGggZmlsbD0ibm9uZSIgc3Ryb2tlLXdpZHRoPSIyIiBzdHJva2U9IiMxZTFlMWUiIGQ9Ik0xOTAuNzQgMTAuMzYgQzE5Ny42NCA5LjE2LCAyMDAuNzQgNC43NywgMjE0LjMyIDIuMDQgTTE5MC43NCAxMC4zNiBDMTk5LjA2IDguMTgsIDIwNi40MSA1Ljg3LCAyMTQuMzIgMi4wNCIvPjwvZz48ZyB0cmFuc2Zvcm09InRyYW5zbGF0ZSgxMjQzLjAzNDM4NDcxNTg2NzkgNzUwLjQ0NjEyNDI5NDc1MDgpIHJvdGF0ZSgwIDEwNy4zMTk0NTUwNjY0Mzg1OSAxLjE0MTEyMTA4ODE4NzA0ODgpIj48cGF0aCBmaWxsPSJub25lIiBzdHJva2Utd2lkdGg9IjIiIHN0cm9rZT0iIzFlMWUxZSIgZD0iTTE5MC45MSAtNi43NCBDMTk3Ljc2IC0zLjk3LCAyMDAuODIgLTQuMzgsIDIxNC4zMiAyLjA0IE0xOTAuOTEgLTYuNzQgQzE5OS4xMyAtMy41NywgMjA2LjQzIC0wLjUzLCAyMTQuMzIgMi4wNCIvPjwvZz48L2c+PG1hc2sgaWQ9Im1hc2stbjQ3bk4yeVJONGJ3QmtfdVRfaDNnIj48cmVjdCBoZWlnaHQ9Ijg1MS44MzAwODU2Nzk1NDA1IiB3aWR0aD0iMTU1Ny43MDc1OTU2Mzk0NzIyIiBmaWxsPSIjZmZmIiB5PSIwIiB4PSIwIi8+PHJlY3Qgb3BhY2l0eT0iMSIgaGVpZ2h0PSIyNSIgd2lkdGg9IjQxLjM1OTk3MDA5Mjc3MzQ0IiBmaWxsPSIjMDAwIiB5PSI3MzguNjM4MTA0OTg3MTQ1NyIgeD0iMTMyOS42OTEwMDUxMzEyODM0Ii8+PC9tYXNrPjxnIHRyYW5zZm9ybT0idHJhbnNsYXRlKDEzMjkuNjkxMDA1MTMxMjgzNCA3MzguNjM4MTA0OTg3MTQ1NSkgcm90YXRlKDAgMjAuNjYyODM0NjUxMDIzMDQ3IDEyLjk0OTE0MDM5NTc5MjE5OSkiPjx0ZXh0IGRpcmVjdGlvbj0ibHRyIiBzdHlsZT0id2hpdGUtc3BhY2U6IHByZTsiIHRleHQtYW5jaG9yPSJtaWRkbGUiIGZpbGw9IiMxZTFlMWUiIGZvbnQtc2l6ZT0iMjBweCIgZm9udC1mYW1pbHk9IlZpcmdpbCwgU2Vnb2UgVUkgRW1vamkiIHk9IjE3LjYxOTk5OTk5OTk5OTk5NyIgeD0iMjAuNjc5OTg1MDQ2Mzg2NzIiPkNETjwvdGV4dD48L2c+PGcgdHJhbnNmb3JtPSJ0cmFuc2xhdGUoMTg4Mi4xMjU1NzUwMjI3ODIyIDY2NC4xOTc3MTU1NTg4Mjg5KSByb3RhdGUoMCAxMzMuNDU3NTgxODkyMjg0MjIgNjkuMjk4MzE4MTYyNjY4OTIpIiBzdHJva2UtbGluZWNhcD0icm91bmQiPjxwYXRoIGZpbGw9Im5vbmUiIHN0cm9rZS13aWR0aD0iMiIgc3Ryb2tlPSIjMWUxZTFlIiBkPSJNMzIgMCBDNzguNiAwLjM3LCAxMjMuNDEgLTEuNzYsIDIzNC45MiAwIE0zMiAwIEM3Ni42NSAtMS40MSwgMTIyLjEgLTIuMjYsIDIzNC45MiAwIE0yMzQuOTIgMCBDMjU3LjM1IDEuMzQsIDI2NS42OSAxMC45OSwgMjY2LjkyIDMyIE0yMzQuOTIgMCBDMjU0Ljc0IDAuMTgsIDI2NC45OCA5LjkyLCAyNjYuOTIgMzIgTTI2Ni45MiAzMiBDMjY4Ljg4IDU1LjQ2LCAyNjYuMjcgNzYuMzMsIDI2Ni45MiAxMDYuNiBNMjY2LjkyIDMyIEMyNjYuMTUgNTEuNzgsIDI2Ny4yMyA3MS43LCAyNjYuOTIgMTA2LjYgTTI2Ni45MiAxMDYuNiBDMjY2LjYxIDEyOS4zNSwgMjU3LjAyIDEzNi42MSwgMjM0LjkyIDEzOC42IE0yNjYuOTIgMTA2LjYgQzI2Ni45OSAxMjYuMjgsIDI1NC40NCAxMzguMTksIDIzNC45MiAxMzguNiBNMjM0LjkyIDEzOC42IEMxNTguNDYgMTQwLjE3LCA4NC40OSAxMzkuODYsIDMyIDEzOC42IE0yMzQuOTIgMTM4LjYgQzE1Ni44NCAxNDAuMzcsIDc2LjgyIDE0MS4xLCAzMiAxMzguNiBNMzIgMTM4LjYgQzEwLjc0IDE0MC4wOSwgLTEuNjQgMTI4Ljc2LCAwIDEwNi42IE0zMiAxMzguNiBDOS4zIDEzOS44NCwgLTEuMTQgMTI5LjY2LCAwIDEwNi42IE0wIDEwNi42IEMtMS41NCA4MC4yNywgMS41NyA1MC43LCAwIDMyIE0wIDEwNi42IEMxLjI5IDgxLjUzLCAwLjkxIDU1LjQsIDAgMzIgTTAgMzIgQy0xLjIzIDkuNzYsIDkuOTIgMS4wOCwgMzIgMCBNMCAzMiBDMS4wNCAxMi41OCwgMTAuMDUgLTAuNjYsIDMyIDAiLz48L2c+PGcgdHJhbnNmb3JtPSJ0cmFuc2xhdGUoMTkxNS45MDMyMjUyNzQ0NDE0IDcyMC45OTYwMzM3MjE0OTc4KSByb3RhdGUoMCA5OS42Nzk5MzE2NDA2MjUgMTIuNSkiPjx0ZXh0IGRpcmVjdGlvbj0ibHRyIiBzdHlsZT0id2hpdGUtc3BhY2U6IHByZTsiIHRleHQtYW5jaG9yPSJtaWRkbGUiIGZpbGw9IiMxZTFlMWUiIGZvbnQtc2l6ZT0iMjBweCIgZm9udC1mYW1pbHk9IlZpcmdpbCwgU2Vnb2UgVUkgRW1vamkiIHk9IjE3LjYxOTk5OTk5OTk5OTk5NyIgeD0iOTkuNjc5OTMxNjQwNjI1Ij5FdmVudCBDUlVEIFNlcnZpY2U8L3RleHQ+PC9nPjxnIHN0cm9rZS1saW5lY2FwPSJyb3VuZCIgbWFzaz0idXJsKCNtYXNrLXZwUFhIb1ZqOXZCbjZkR1FQdHMxUCkiPjxnIHRyYW5zZm9ybT0idHJhbnNsYXRlKDE2NTguMDc3MjI2NTQ1MTA4IDc1OS4yODY1OTExMjg2NjY0KSByb3RhdGUoMCAxMDQuOTE5OTE3OTE3MzM1NCAtMy4zMDA3NDEwNzg3NDE3OTQpIj48cGF0aCBmaWxsPSJub25lIiBzdHJva2Utd2lkdGg9IjIiIHN0cm9rZT0iIzFlMWUxZSIgZD0iTS0xLjExIDAuMjQgQzM0LjIxIC0wLjgzLCAxNzUuNzYgLTQuMjYsIDIxMC45NSAtNS4zMSBNMC41MSAtMC42OCBDMzUuOCAtMS41NSwgMTc1LjU2IC01LjU4LCAyMTAuMzIgLTYuODQiLz48L2c+PGcgdHJhbnNmb3JtPSJ0cmFuc2xhdGUoMTY1OC4wNzcyMjY1NDUxMDggNzU5LjI4NjU5MTEyODY2NjQpIHJvdGF0ZSgwIDEwNC45MTk5MTc5MTczMzU0IC0zLjMwMDc0MTA3ODc0MTc5NCkiPjxwYXRoIGZpbGw9Im5vbmUiIHN0cm9rZS13aWR0aD0iMiIgc3Ryb2tlPSIjMWUxZTFlIiBkPSJNMjIuMTYgLTguOTIgQzE3LjQ1IC02LjA3LCAxMy43NSAtNS42MSwgLTEuMTEgMC4yNCBNMjIuMTYgLTguOTIgQzE0Ljg1IC02LjA2LCA3LjQyIC0zLjM2LCAtMS4xMSAwLjI0Ii8+PC9nPjxnIHRyYW5zZm9ybT0idHJhbnNsYXRlKDE2NTguMDc3MjI2NTQ1MTA4IDc1OS4yODY1OTExMjg2NjY0KSByb3RhdGUoMCAxMDQuOTE5OTE3OTE3MzM1NCAtMy4zMDA3NDEwNzg3NDE3OTQpIj48cGF0aCBmaWxsPSJub25lIiBzdHJva2Utd2lkdGg9IjIiIHN0cm9rZT0iIzFlMWUxZSIgZD0iTTIyLjYgOC4xOCBDMTcuNjQgNy4yMSwgMTMuODQgMy44NSwgLTEuMTEgMC4yNCBNMjIuNiA4LjE4IEMxNS4wMiA1LjQxLCA3LjQ0IDIuNSwgLTEuMTEgMC4yNCIvPjwvZz48ZyB0cmFuc2Zvcm09InRyYW5zbGF0ZSgxNjU4LjA3NzIyNjU0NTEwOCA3NTkuMjg2NTkxMTI4NjY2NCkgcm90YXRlKDAgMTA0LjkxOTkxNzkxNzMzNTQgLTMuMzAwNzQxMDc4NzQxNzk0KSI+PHBhdGggZmlsbD0ibm9uZSIgc3Ryb2tlLXdpZHRoPSIyIiBzdHJva2U9IiMxZTFlMWUiIGQ9Ik0xODcuMTEgMi40NSBDMTkyLjYgMS42MiwgMTk5LjI3IC0yLjA0LCAyMTAuMzIgLTYuODQgTTE4Ny4xMSAyLjQ1IEMxOTQuOTUgLTAuNjgsIDIwMi43OSAtNC4wNCwgMjEwLjMyIC02Ljg0Ii8+PC9nPjxnIHRyYW5zZm9ybT0idHJhbnNsYXRlKDE2NTguMDc3MjI2NTQ1MTA4IDc1OS4yODY1OTExMjg2NjY0KSByb3RhdGUoMCAxMDQuOTE5OTE3OTE3MzM1NCAtMy4zMDA3NDEwNzg3NDE3OTQpIj48cGF0aCBmaWxsPSJub25lIiBzdHJva2Utd2lkdGg9IjIiIHN0cm9rZT0iIzFlMWUxZSIgZD0iTTE4Ni41NyAtMTQuNjQgQzE5Mi4zNCAtMTEuNjYsIDE5OS4xMyAtMTEuNSwgMjEwLjMyIC02Ljg0IE0xODYuNTcgLTE0LjY0IEMxOTQuNzEgLTEyLjE2LCAyMDIuNzMgLTkuODksIDIxMC4zMiAtNi44NCIvPjwvZz48L2c+PG1hc2sgaWQ9Im1hc2stdnBQWEhvVmo5dkJuNmRHUVB0czFQIj48cmVjdCBoZWlnaHQ9Ijg2NS43MzQzMzk4NTUwMjEyIiB3aWR0aD0iMTk2OC40MDk3NTIxMTg5NDY1IiBmaWxsPSIjZmZmIiB5PSIwIiB4PSIwIi8+PHJlY3Qgb3BhY2l0eT0iMSIgaGVpZ2h0PSIyNSIgd2lkdGg9IjEyMS41MTk4ODIyMDIxNDg0NCIgZmlsbD0iIzAwMCIgeT0iNzQzLjU2MjcxNjc2NTQ4OTEiIHg9IjE3MDIuNDgzNTQ4MjMwOTUzNCIvPjwvbWFzaz48ZyB0cmFuc2Zvcm09InRyYW5zbGF0ZSgxNzAyLjQ4MzU0ODIzMDk1MyA3NDMuNTYyNzE2NzY1NDg5MSkgcm90YXRlKDAgNjAuNTEzNTk2MjMxNDkwMjggMTIuNDIzMTMzMjg0NDM1NjA3KSI+PHRleHQgZGlyZWN0aW9uPSJsdHIiIHN0eWxlPSJ3aGl0ZS1zcGFjZTogcHJlOyIgdGV4dC1hbmNob3I9Im1pZGRsZSIgZmlsbD0iIzFlMWUxZSIgZm9udC1zaXplPSIyMHB4IiBmb250LWZhbWlseT0iVmlyZ2lsLCBTZWdvZSBVSSBFbW9qaSIgeT0iMTcuNjE5OTk5OTk5OTk5OTk3IiB4PSI2MC43NTk5NDExMDEwNzQyMiI+dmlldyhldmVudElkPC90ZXh0PjwvZz48ZyB0cmFuc2Zvcm09InRyYW5zbGF0ZSgyMzI0LjkyOTUyMDU3NTg3ODUgNjE4LjUwMTUxMzEwMjYyMzIpIHJvdGF0ZSgwIDExMi45MjAzMDQxNjQxMjI4NSAxMDguNzg1MDY5OTQ1ODc5NTcpIiBzdHJva2UtbGluZWNhcD0icm91bmQiPjxwYXRoIGZpbGw9Im5vbmUiIHN0cm9rZS13aWR0aD0iMiIgc3Ryb2tlPSIjMWUxZTFlIiBkPSJNMTQ5LjEzIDYuNjMgQzE2Mi4xOSA5LjMsIDE3Ni4yNiAxNy44MSwgMTg2LjYxIDI2LjIzIEMxOTYuOTcgMzQuNjQsIDIwNC45MyA0NS41NSwgMjExLjI5IDU3LjExIEMyMTcuNjQgNjguNjcsIDIyMi45OCA4Mi42NiwgMjI0Ljc2IDk1LjU5IEMyMjYuNTMgMTA4LjUzLCAyMjUuMTUgMTIyLjAzLCAyMjEuOTMgMTM0LjcyIEMyMTguNzEgMTQ3LjQxLCAyMTMuMTMgMTYwLjkxLCAyMDUuNDQgMTcxLjczIEMxOTcuNzYgMTgyLjU1LCAxODcuMTcgMTkyLjQ4LCAxNzUuOCAxOTkuNjUgQzE2NC40MyAyMDYuODEsIDE1MC42NCAyMTIuMDMsIDEzNy4yNCAyMTQuNzIgQzEyMy44NCAyMTcuNCwgMTA4LjgxIDIxNy42NywgOTUuNDEgMjE1Ljc1IEM4Mi4wMSAyMTMuODMsIDY4LjM0IDIwOS40OSwgNTYuODMgMjAzLjIxIEM0NS4zMiAxOTYuOTMsIDM1LjA1IDE4OC4yMSwgMjYuMzQgMTc4LjA2IEMxNy42MyAxNjcuOTIsIDkuMDMgMTU0Ljc4LCA0LjU2IDE0Mi4zNiBDMC4wOSAxMjkuOTQsIC0xLjQ3IDExNi41LCAtMC40OSAxMDMuNTYgQzAuNDkgOTAuNjEsIDQuNzEgNzYuODcsIDEwLjQ1IDY0LjcgQzE2LjE4IDUyLjUyLCAyNC4zIDM5LjcsIDMzLjkyIDMwLjUgQzQzLjU0IDIxLjI5LCA1NS41MyAxNC41MywgNjguMTcgOS40NyBDODAuOCA0LjQsIDk1LjI3IDAuNTIsIDEwOS43MyAwLjEgQzEyNC4xOSAtMC4zMiwgMTQ2LjkzIDUuMTgsIDE1NC45MyA2Ljk1IEMxNjIuOTMgOC43MiwgMTU4LjUxIDguODYsIDE1Ny43MyAxMC43MiBNOTAuMzIgMyBDMTAyLjU4IC0xLjE1LCAxMTcuNDEgLTAuODMsIDEzMC41MSAwLjkzIEMxNDMuNjEgMi42OSwgMTU3LjI4IDYuODcsIDE2OC45MSAxMy41NyBDMTgwLjU0IDIwLjI2LCAxOTEuNTIgMzAuNzksIDIwMC4yOSA0MS4xIEMyMDkuMDYgNTEuNDEsIDIxNy41MSA2Mi45NiwgMjIxLjU0IDc1LjQzIEMyMjUuNTYgODcuOSwgMjI1LjQ5IDEwMi42LCAyMjQuNDUgMTE1LjkyIEMyMjMuNDIgMTI5LjI0LCAyMjAuNyAxNDMuNTMsIDIxNS4zNCAxNTUuMzUgQzIwOS45NyAxNjcuMTgsIDIwMS43OSAxNzguMDksIDE5Mi4yNyAxODYuODcgQzE4Mi43NCAxOTUuNjUsIDE3MC45NSAyMDIuNzMsIDE1OC4xNyAyMDguMDMgQzE0NS4zOSAyMTMuMzIsIDEyOS4yMyAyMTcuOSwgMTE1LjU4IDIxOC42MyBDMTAxLjkyIDIxOS4zNiwgODguNzMgMjE2Ljc4LCA3Ni4yMiAyMTIuNDMgQzYzLjcxIDIwOC4wOSwgNTEuMDUgMjAxLjM1LCA0MC41MSAxOTIuNTYgQzI5Ljk4IDE4My43NywgMTkuNzcgMTcxLjYzLCAxMy4wMSAxNTkuNyBDNi4yNiAxNDcuNzgsIDEuNDcgMTM0LjE2LCAwIDEyMS4wMSBDLTEuNDcgMTA3Ljg1LCAwLjkgOTMuMjcsIDQuMiA4MC43OSBDNy41IDY4LjMyLCAxMS44OCA1Ni43LCAxOS44IDQ2LjE1IEMyNy43MSAzNS42LCAzOS45OCAyNC42NiwgNTEuNjkgMTcuNDkgQzYzLjM5IDEwLjMyLCA4My44MSA1LjMyLCA5MC4wMiAzLjE1IEM5Ni4yMyAwLjk4LCA4OC41NiAyLjg2LCA4OC45NiA0LjQ3Ii8+PC9nPjxnIHRyYW5zZm9ybT0idHJhbnNsYXRlKDIzODguNTYzMTQ3NjM3NDY5IDcwMi4zNjM5MjIzOTc5MTg1KSByb3RhdGUoMCA0OS40Mzk5NjQyOTQ0MzM1OTQgMjUpIj48dGV4dCBkaXJlY3Rpb249Imx0ciIgc3R5bGU9IndoaXRlLXNwYWNlOiBwcmU7IiB0ZXh0LWFuY2hvcj0ibWlkZGxlIiBmaWxsPSIjMWUxZTFlIiBmb250LXNpemU9IjIwcHgiIGZvbnQtZmFtaWx5PSJWaXJnaWwsIFNlZ29lIFVJIEVtb2ppIiB5PSIxNy42MTk5OTk5OTk5OTk5OTciIHg9IjQ5LjQzOTk2NDI5NDQzMzU5NCI+RGF0YWJhc2U8L3RleHQ+PHRleHQgZGlyZWN0aW9uPSJsdHIiIHN0eWxlPSJ3aGl0ZS1zcGFjZTogcHJlOyIgdGV4dC1hbmNob3I9Im1pZGRsZSIgZmlsbD0iIzFlMWUxZSIgZm9udC1zaXplPSIyMHB4IiBmb250LWZhbWlseT0iVmlyZ2lsLCBTZWdvZSBVSSBFbW9qaSIgeT0iNDIuNjIiIHg9IjQ5LjQzOTk2NDI5NDQzMzU5NCI+KHBvc3RncmVzKTwvdGV4dD48L2c+PGcgc3Ryb2tlLWxpbmVjYXA9InJvdW5kIj48ZyB0cmFuc2Zvcm09InRyYW5zbGF0ZSgyMTU3Ljc5NzMzNDAxNDUzMTggNzMyLjAwNzIzMDM0OTkxODkpIHJvdGF0ZSgwIDc0LjY2NDQxMjY1NzMzMjI2IDAuMzc0MTcwNDExOTYwMjIxOCkiPjxwYXRoIGZpbGw9Im5vbmUiIHN0cm9rZS13aWR0aD0iMiIgc3Ryb2tlPSIjMWUxZTFlIiBkPSJNLTAuNzYgLTAuNzQgQzI0LjQ0IC0wLjUxLCAxMjQuOTYgMS4xOSwgMTUwLjA5IDEuMzUgTTEuMDQgMS40OSBDMjYuMTYgMS4zOCwgMTI0LjM1IC0wLjM1LCAxNDkuMDQgLTAuMzciLz48L2c+PGcgdHJhbnNmb3JtPSJ0cmFuc2xhdGUoMjE1Ny43OTczMzQwMTQ1MzE4IDczMi4wMDcyMzAzNDk5MTg5KSByb3RhdGUoMCA3NC42NjQ0MTI2NTczMzIyNiAwLjM3NDE3MDQxMTk2MDIyMTgpIj48cGF0aCBmaWxsPSJub25lIiBzdHJva2Utd2lkdGg9IjIiIHN0cm9rZT0iIzFlMWUxZSIgZD0iTTIyLjg1IC04Ljk1IEMxNi43MiAtNy43MywgMTQuMzEgLTYuMTIsIC0wLjc2IC0wLjc0IE0yMi44NSAtOC45NSBDMTUuOTkgLTcuMDUsIDEwLjQ5IC00LjUsIC0wLjc2IC0wLjc0Ii8+PC9nPjxnIHRyYW5zZm9ybT0idHJhbnNsYXRlKDIxNTcuNzk3MzM0MDE0NTMxOCA3MzIuMDA3MjMwMzQ5OTE4OSkgcm90YXRlKDAgNzQuNjY0NDEyNjU3MzMyMjYgMC4zNzQxNzA0MTE5NjAyMjE4KSI+PHBhdGggZmlsbD0ibm9uZSIgc3Ryb2tlLXdpZHRoPSIyIiBzdHJva2U9IiMxZTFlMWUiIGQ9Ik0yMi42MSA4LjE1IEMxNi41MyA1LjgyLCAxNC4xNyAzLjg4LCAtMC43NiAtMC43NCBNMjIuNjEgOC4xNSBDMTUuNzUgNS40NCwgMTAuMzEgMy4zOCwgLTAuNzYgLTAuNzQiLz48L2c+PGcgdHJhbnNmb3JtPSJ0cmFuc2xhdGUoMjE1Ny43OTczMzQwMTQ1MzE4IDczMi4wMDcyMzAzNDk5MTg5KSByb3RhdGUoMCA3NC42NjQ0MTI2NTczMzIyNiAwLjM3NDE3MDQxMTk2MDIyMTgpIj48cGF0aCBmaWxsPSJub25lIiBzdHJva2Utd2lkdGg9IjIiIHN0cm9rZT0iIzFlMWUxZSIgZD0iTTEyNS42MyA4LjQyIEMxMjkuMjYgNi40LCAxMzYuNjEgNC40OSwgMTQ5LjA0IC0wLjM3IE0xMjUuNjMgOC40MiBDMTMxLjM5IDYuMTcsIDEzOC41NiA0LjE0LCAxNDkuMDQgLTAuMzciLz48L2c+PGcgdHJhbnNmb3JtPSJ0cmFuc2xhdGUoMjE1Ny43OTczMzQwMTQ1MzE4IDczMi4wMDcyMzAzNDk5MTg5KSByb3RhdGUoMCA3NC42NjQ0MTI2NTczMzIyNiAwLjM3NDE3MDQxMTk2MDIyMTgpIj48cGF0aCBmaWxsPSJub25lIiBzdHJva2Utd2lkdGg9IjIiIHN0cm9rZT0iIzFlMWUxZSIgZD0iTTEyNS40NiAtOC42OCBDMTI5LjEyIC03LjE1LCAxMzYuNSAtNS41MSwgMTQ5LjA0IC0wLjM3IE0xMjUuNDYgLTguNjggQzEzMS4zMiAtNi4zMiwgMTM4LjU0IC0zLjc0LCAxNDkuMDQgLTAuMzciLz48L2c+PC9nPjxtYXNrLz48ZyB0cmFuc2Zvcm09InRyYW5zbGF0ZSgyNTc5LjU1Mjg2MzA5MTIzODYgNTgzLjM0MzQ5NDM2Mzk1MTIpIHJvdGF0ZSgwIDY1Ljc0OTkzMTMzNTQ0OTIyIDEwMCkiPjx0ZXh0IGRpcmVjdGlvbj0ibHRyIiBzdHlsZT0id2hpdGUtc3BhY2U6IHByZTsiIHRleHQtYW5jaG9yPSJzdGFydCIgZmlsbD0iIzFlMWUxZSIgZm9udC1zaXplPSIyMHB4IiBmb250LWZhbWlseT0iVmlyZ2lsLCBTZWdvZSBVSSBFbW9qaSIgeT0iMTcuNjE5OTk5OTk5OTk5OTk3IiB4PSIwIj5FdmVudDwvdGV4dD48dGV4dCBkaXJlY3Rpb249Imx0ciIgc3R5bGU9IndoaXRlLXNwYWNlOiBwcmU7IiB0ZXh0LWFuY2hvcj0ic3RhcnQiIGZpbGw9IiMxZTFlMWUiIGZvbnQtc2l6ZT0iMjBweCIgZm9udC1mYW1pbHk9IlZpcmdpbCwgU2Vnb2UgVUkgRW1vamkiIHk9IjQyLjYyIiB4PSIwIj4tIGlkPC90ZXh0Pjx0ZXh0IGRpcmVjdGlvbj0ibHRyIiBzdHlsZT0id2hpdGUtc3BhY2U6IHByZTsiIHRleHQtYW5jaG9yPSJzdGFydCIgZmlsbD0iIzFlMWUxZSIgZm9udC1zaXplPSIyMHB4IiBmb250LWZhbWlseT0iVmlyZ2lsLCBTZWdvZSBVSSBFbW9qaSIgeT0iNjcuNjIiIHg9IjAiPi0gdmVudWVJZDwvdGV4dD48dGV4dCBkaXJlY3Rpb249Imx0ciIgc3R5bGU9IndoaXRlLXNwYWNlOiBwcmU7IiB0ZXh0LWFuY2hvcj0ic3RhcnQiIGZpbGw9IiMxZTFlMWUiIGZvbnQtc2l6ZT0iMjBweCIgZm9udC1mYW1pbHk9IlZpcmdpbCwgU2Vnb2UgVUkgRW1vamkiIHk9IjkyLjYyIiB4PSIwIj4tIHBlcmZvcm1lcklkPC90ZXh0Pjx0ZXh0IGRpcmVjdGlvbj0ibHRyIiBzdHlsZT0id2hpdGUtc3BhY2U6IHByZTsiIHRleHQtYW5jaG9yPSJzdGFydCIgZmlsbD0iIzFlMWUxZSIgZm9udC1zaXplPSIyMHB4IiBmb250LWZhbWlseT0iVmlyZ2lsLCBTZWdvZSBVSSBFbW9qaSIgeT0iMTE3LjYyIiB4PSIwIj4tIHRpY2tldHNbXTwvdGV4dD48dGV4dCBkaXJlY3Rpb249Imx0ciIgc3R5bGU9IndoaXRlLXNwYWNlOiBwcmU7IiB0ZXh0LWFuY2hvcj0ic3RhcnQiIGZpbGw9IiMxZTFlMWUiIGZvbnQtc2l6ZT0iMjBweCIgZm9udC1mYW1pbHk9IlZpcmdpbCwgU2Vnb2UgVUkgRW1vamkiIHk9IjE0Mi42MiIgeD0iMCI+LSBuYW1lPC90ZXh0Pjx0ZXh0IGRpcmVjdGlvbj0ibHRyIiBzdHlsZT0id2hpdGUtc3BhY2U6IHByZTsiIHRleHQtYW5jaG9yPSJzdGFydCIgZmlsbD0iIzFlMWUxZSIgZm9udC1zaXplPSIyMHB4IiBmb250LWZhbWlseT0iVmlyZ2lsLCBTZWdvZSBVSSBFbW9qaSIgeT0iMTY3LjYyIiB4PSIwIj4tIGRlc2NyaXB0aW9uPC90ZXh0Pjx0ZXh0IGRpcmVjdGlvbj0ibHRyIiBzdHlsZT0id2hpdGUtc3BhY2U6IHByZTsiIHRleHQtYW5jaG9yPSJzdGFydCIgZmlsbD0iIzFlMWUxZSIgZm9udC1zaXplPSIyMHB4IiBmb250LWZhbWlseT0iVmlyZ2lsLCBTZWdvZSBVSSBFbW9qaSIgeT0iMTkyLjYyIiB4PSIwIj4tIC4uLi48L3RleHQ+PC9nPjxnIHRyYW5zZm9ybT0idHJhbnNsYXRlKDI3NDkuNTAzNzEyMTE1OTg3NiA1ODEuNzcyMTk5NTQyNzEzMSkgcm90YXRlKDAgNTEuNTg5OTU4MTkwOTE3OTcgNTApIj48dGV4dCBkaXJlY3Rpb249Imx0ciIgc3R5bGU9IndoaXRlLXNwYWNlOiBwcmU7IiB0ZXh0LWFuY2hvcj0ic3RhcnQiIGZpbGw9IiMxZTFlMWUiIGZvbnQtc2l6ZT0iMjBweCIgZm9udC1mYW1pbHk9IlZpcmdpbCwgU2Vnb2UgVUkgRW1vamkiIHk9IjE3LjYxOTk5OTk5OTk5OTk5NyIgeD0iMCI+VmVudWU8L3RleHQ+PHRleHQgZGlyZWN0aW9uPSJsdHIiIHN0eWxlPSJ3aGl0ZS1zcGFjZTogcHJlOyIgdGV4dC1hbmNob3I9InN0YXJ0IiBmaWxsPSIjMWUxZTFlIiBmb250LXNpemU9IjIwcHgiIGZvbnQtZmFtaWx5PSJWaXJnaWwsIFNlZ29lIFVJIEVtb2ppIiB5PSI0Mi42MiIgeD0iMCI+LSBpZDwvdGV4dD48dGV4dCBkaXJlY3Rpb249Imx0ciIgc3R5bGU9IndoaXRlLXNwYWNlOiBwcmU7IiB0ZXh0LWFuY2hvcj0ic3RhcnQiIGZpbGw9IiMxZTFlMWUiIGZvbnQtc2l6ZT0iMjBweCIgZm9udC1mYW1pbHk9IlZpcmdpbCwgU2Vnb2UgVUkgRW1vamkiIHk9IjY3LjYyIiB4PSIwIj4tIGxvY2F0aW9uPC90ZXh0Pjx0ZXh0IGRpcmVjdGlvbj0ibHRyIiBzdHlsZT0id2hpdGUtc3BhY2U6IHByZTsiIHRleHQtYW5jaG9yPSJzdGFydCIgZmlsbD0iIzFlMWUxZSIgZm9udC1zaXplPSIyMHB4IiBmb250LWZhbWlseT0iVmlyZ2lsLCBTZWdvZSBVSSBFbW9qaSIgeT0iOTIuNjIiIHg9IjAiPi0gc2VhdE1hcDwvdGV4dD48L2c+PGcgdHJhbnNmb3JtPSJ0cmFuc2xhdGUoMjg5Ni41MjkzMzc5MDI4NDg1IDU4Ny4xOTA3Mjk5NDgxODM3KSByb3RhdGUoMCA0Ny4xNzk5NDY4OTk0MTQwNiAzNy41KSI+PHRleHQgZGlyZWN0aW9uPSJsdHIiIHN0eWxlPSJ3aGl0ZS1zcGFjZTogcHJlOyIgdGV4dC1hbmNob3I9InN0YXJ0IiBmaWxsPSIjMWUxZTFlIiBmb250LXNpemU9IjIwcHgiIGZvbnQtZmFtaWx5PSJWaXJnaWwsIFNlZ29lIFVJIEVtb2ppIiB5PSIxNy42MTk5OTk5OTk5OTk5OTciIHg9IjAiPlBlcmZvcm1lcjwvdGV4dD48dGV4dCBkaXJlY3Rpb249Imx0ciIgc3R5bGU9IndoaXRlLXNwYWNlOiBwcmU7IiB0ZXh0LWFuY2hvcj0ic3RhcnQiIGZpbGw9IiMxZTFlMWUiIGZvbnQtc2l6ZT0iMjBweCIgZm9udC1mYW1pbHk9IlZpcmdpbCwgU2Vnb2UgVUkgRW1vamkiIHk9IjQyLjYyIiB4PSIwIj4tIGlkPC90ZXh0Pjx0ZXh0IGRpcmVjdGlvbj0ibHRyIiBzdHlsZT0id2hpdGUtc3BhY2U6IHByZTsiIHRleHQtYW5jaG9yPSJzdGFydCIgZmlsbD0iIzFlMWUxZSIgZm9udC1zaXplPSIyMHB4IiBmb250LWZhbWlseT0iVmlyZ2lsLCBTZWdvZSBVSSBFbW9qaSIgeT0iNjcuNjIiIHg9IjAiPi4uLjwvdGV4dD48L2c+PGcgdHJhbnNmb3JtPSJ0cmFuc2xhdGUoMjU4Mi44NTkyMTAwNTM2MTY2IDgxOS44NzY0MzU2OTAyMDYyKSByb3RhdGUoMCAxMzQuMDM5ODg2NDc0NjA5MzggODcuNSkiPjx0ZXh0IGRpcmVjdGlvbj0ibHRyIiBzdHlsZT0id2hpdGUtc3BhY2U6IHByZTsiIHRleHQtYW5jaG9yPSJzdGFydCIgZmlsbD0iIzFlMWUxZSIgZm9udC1zaXplPSIyMHB4IiBmb250LWZhbWlseT0iVmlyZ2lsLCBTZWdvZSBVSSBFbW9qaSIgeT0iMTcuNjE5OTk5OTk5OTk5OTk3IiB4PSIwIj5UaWNrZXQ8L3RleHQ+PHRleHQgZGlyZWN0aW9uPSJsdHIiIHN0eWxlPSJ3aGl0ZS1zcGFjZTogcHJlOyIgdGV4dC1hbmNob3I9InN0YXJ0IiBmaWxsPSIjMWUxZTFlIiBmb250LXNpemU9IjIwcHgiIGZvbnQtZmFtaWx5PSJWaXJnaWwsIFNlZ29lIFVJIEVtb2ppIiB5PSI0Mi42MiIgeD0iMCI+LSBpZDwvdGV4dD48dGV4dCBkaXJlY3Rpb249Imx0ciIgc3R5bGU9IndoaXRlLXNwYWNlOiBwcmU7IiB0ZXh0LWFuY2hvcj0ic3RhcnQiIGZpbGw9IiMxZTFlMWUiIGZvbnQtc2l6ZT0iMjBweCIgZm9udC1mYW1pbHk9IlZpcmdpbCwgU2Vnb2UgVUkgRW1vamkiIHk9IjY3LjYyIiB4PSIwIj4tIGV2ZW50SWQ8L3RleHQ+PHRleHQgZGlyZWN0aW9uPSJsdHIiIHN0eWxlPSJ3aGl0ZS1zcGFjZTogcHJlOyIgdGV4dC1hbmNob3I9InN0YXJ0IiBmaWxsPSIjMWUxZTFlIiBmb250LXNpemU9IjIwcHgiIGZvbnQtZmFtaWx5PSJWaXJnaWwsIFNlZ29lIFVJIEVtb2ppIiB5PSI5Mi42MiIgeD0iMCI+LSBzZWF0PC90ZXh0Pjx0ZXh0IGRpcmVjdGlvbj0ibHRyIiBzdHlsZT0id2hpdGUtc3BhY2U6IHByZTsiIHRleHQtYW5jaG9yPSJzdGFydCIgZmlsbD0iIzFlMWUxZSIgZm9udC1zaXplPSIyMHB4IiBmb250LWZhbWlseT0iVmlyZ2lsLCBTZWdvZSBVSSBFbW9qaSIgeT0iMTE3LjYyIiB4PSIwIj4tIHByaWNlPC90ZXh0Pjx0ZXh0IGRpcmVjdGlvbj0ibHRyIiBzdHlsZT0id2hpdGUtc3BhY2U6IHByZTsiIHRleHQtYW5jaG9yPSJzdGFydCIgZmlsbD0iIzFlMWUxZSIgZm9udC1zaXplPSIyMHB4IiBmb250LWZhbWlseT0iVmlyZ2lsLCBTZWdvZSBVSSBFbW9qaSIgeT0iMTQyLjYyIiB4PSIwIj4tIHN0YXR1czogYXZhaWxhYmxlLCBib29rZWQ8L3RleHQ+PHRleHQgZGlyZWN0aW9uPSJsdHIiIHN0eWxlPSJ3aGl0ZS1zcGFjZTogcHJlOyIgdGV4dC1hbmNob3I9InN0YXJ0IiBmaWxsPSIjMWUxZTFlIiBmb250LXNpemU9IjIwcHgiIGZvbnQtZmFtaWx5PSJWaXJnaWwsIFNlZ29lIFVJIEVtb2ppIiB5PSIxNjcuNjIiIHg9IjAiPi0gdXNlcklkPC90ZXh0PjwvZz48ZyB0cmFuc2Zvcm09InRyYW5zbGF0ZSgxODM1Ljk4NzU1NTU4NzA0NjUgNDYzLjMwODU1MDQ4ODAwNDcpIHJvdGF0ZSgwIDEzMy40NTc1ODE4OTIyODQyMiA2OS4yOTgzMTgxNjI2Njg5MikiIHN0cm9rZS1saW5lY2FwPSJyb3VuZCI+PHBhdGggZmlsbD0ibm9uZSIgc3Ryb2tlLXdpZHRoPSIyIiBzdHJva2U9IiMxZTFlMWUiIGQ9Ik0zMiAwIEM4MC4xNyAtMS4wMSwgMTMwLjQ0IDEuMTIsIDIzNC45MiAwIE0zMiAwIEM4Ni42IDIsIDE0Mi42OCAxLjE0LCAyMzQuOTIgMCBNMjM0LjkyIDAgQzI1Ni45NiAwLjYsIDI2Ni45NCA4LjgyLCAyNjYuOTIgMzIgTTIzNC45MiAwIEMyNTguMDggMi4yNCwgMjY3Ljg4IDEwLjI4LCAyNjYuOTIgMzIgTTI2Ni45MiAzMiBDMjY1LjI5IDU0Ljc4LCAyNjguNzQgNzUuMDEsIDI2Ni45MiAxMDYuNiBNMjY2LjkyIDMyIEMyNjYuOTggNTguNjYsIDI2Ny45MSA4Ni4xNywgMjY2LjkyIDEwNi42IE0yNjYuOTIgMTA2LjYgQzI2OC4zNSAxMjcuNzYsIDI1NC45NiAxMzkuNjYsIDIzNC45MiAxMzguNiBNMjY2LjkyIDEwNi42IEMyNjcuMjggMTI4LjM5LCAyNTcuMDkgMTM4LjY2LCAyMzQuOTIgMTM4LjYgTTIzNC45MiAxMzguNiBDMTg0LjIyIDE0MC42NSwgMTM0LjE3IDEzNy4yOSwgMzIgMTM4LjYgTTIzNC45MiAxMzguNiBDMTgwLjMxIDEzOS41MiwgMTI0LjE1IDEzOS41MSwgMzIgMTM4LjYgTTMyIDEzOC42IEM4LjkxIDEzNi43MywgLTEuNzQgMTI3LjU4LCAwIDEwNi42IE0zMiAxMzguNiBDMTIuNDMgMTQwLjMzLCAtMi4wNCAxMjkuOTUsIDAgMTA2LjYgTTAgMTA2LjYgQzEuMDEgODEuNjMsIDEuMDggNTMuMDcsIDAgMzIgTTAgMTA2LjYgQy0xLjAzIDkwLjEyLCAtMC4xNCA3NS40NywgMCAzMiBNMCAzMiBDMS44NiAxMi4xNCwgMTEuODUgMS4xOSwgMzIgMCBNMCAzMiBDLTEuODIgMTEuNzIsIDEwLjcyIC0wLjA1LCAzMiAwIi8+PC9nPjxnIHRyYW5zZm9ybT0idHJhbnNsYXRlKDE5MzYuOTY1MTY0NjM5OTc1MiA1MjAuMTA2ODY4NjUwNjczNikgcm90YXRlKDAgMzIuNDc5OTcyODM5MzU1NDcgMTIuNSkiPjx0ZXh0IGRpcmVjdGlvbj0ibHRyIiBzdHlsZT0id2hpdGUtc3BhY2U6IHByZTsiIHRleHQtYW5jaG9yPSJtaWRkbGUiIGZpbGw9IiMxZTFlMWUiIGZvbnQtc2l6ZT0iMjBweCIgZm9udC1mYW1pbHk9IlZpcmdpbCwgU2Vnb2UgVUkgRW1vamkiIHk9IjE3LjYxOTk5OTk5OTk5OTk5NyIgeD0iMzIuNDc5OTcyODM5MzU1NDciPlNlYXJjaDwvdGV4dD48L2c+PGcgc3Ryb2tlLWxpbmVjYXA9InJvdW5kIj48ZyB0cmFuc2Zvcm09InRyYW5zbGF0ZSgxNjU3LjIxMDc5MjE5MjQ3OTQgNzI3LjA4Mzc5MTUxNzg0NzIpIHJvdGF0ZSgwIDc5LjcyNzI2NTQxNDMyNzAxIC05NC42MDMwMTg4MjcwMTI4MikiPjxwYXRoIGZpbGw9Im5vbmUiIHN0cm9rZS13aWR0aD0iMiIgc3Ryb2tlPSIjMWUxZTFlIiBkPSJNMS4xNCAtMC40MyBDMjcuNTUgLTMxLjczLCAxMzIuNzUgLTE1Ny42LCAxNTkuMTcgLTE4OC43OCBNMC4yOSAtMS43IEMyNi41IC0zMi43NSwgMTMxLjkgLTE1Ni4xNywgMTU4LjQxIC0xODcuNDYiLz48L2c+PGcgdHJhbnNmb3JtPSJ0cmFuc2xhdGUoMTY1Ny4yMTA3OTIxOTI0Nzk0IDcyNy4wODM3OTE1MTc4NDcyKSByb3RhdGUoMCA3OS43MjcyNjU0MTQzMjcwMSAtOTQuNjAzMDE4ODI3MDEyODIpIj48cGF0aCBmaWxsPSJub25lIiBzdHJva2Utd2lkdGg9IjIiIHN0cm9rZT0iIzFlMWUxZSIgZD0iTTkuNjggLTIzLjkzIEM1LjcxIC0xNC43OCwgMi42NSAtNS40OCwgMS4xNCAtMC40MyBNOS42OCAtMjMuOTMgQzcuMTEgLTE0LjMyLCAzLjYzIC01Ljc0LCAxLjE0IC0wLjQzIi8+PC9nPjxnIHRyYW5zZm9ybT0idHJhbnNsYXRlKDE2NTcuMjEwNzkyMTkyNDc5NCA3MjcuMDgzNzkxNTE3ODQ3Mikgcm90YXRlKDAgNzkuNzI3MjY1NDE0MzI3MDEgLTk0LjYwMzAxODgyNzAxMjgyKSI+PHBhdGggZmlsbD0ibm9uZSIgc3Ryb2tlLXdpZHRoPSIyIiBzdHJva2U9IiMxZTFlMWUiIGQ9Ik0yMi43OSAtMTIuOTQgQzE0LjE4IC03LjYzLCA2LjQxIC0yLjI4LCAxLjE0IC0wLjQzIE0yMi43OSAtMTIuOTQgQzE1LjQxIC03LjUsIDcuMDggLTIuOTksIDEuMTQgLTAuNDMiLz48L2c+PGcgdHJhbnNmb3JtPSJ0cmFuc2xhdGUoMTY1Ny4yMTA3OTIxOTI0Nzk0IDcyNy4wODM3OTE1MTc4NDcyKSByb3RhdGUoMCA3OS43MjcyNjU0MTQzMjcwMSAtOTQuNjAzMDE4ODI3MDEyODIpIj48cGF0aCBmaWxsPSJub25lIiBzdHJva2Utd2lkdGg9IjIiIHN0cm9rZT0iIzFlMWUxZSIgZD0iTTE0OS43IC0xNjQuMDMgQzE1Mi4zMSAtMTcxLjk0LCAxNTUuNDYgLTE3OS41MywgMTU4LjQxIC0xODcuNDYgTTE0OS43IC0xNjQuMDMgQzE1My42OCAtMTcxLjY2LCAxNTYuNTggLTE4MC40NSwgMTU4LjQxIC0xODcuNDYiLz48L2c+PGcgdHJhbnNmb3JtPSJ0cmFuc2xhdGUoMTY1Ny4yMTA3OTIxOTI0Nzk0IDcyNy4wODM3OTE1MTc4NDcyKSByb3RhdGUoMCA3OS43MjcyNjU0MTQzMjcwMSAtOTQuNjAzMDE4ODI3MDEyODIpIj48cGF0aCBmaWxsPSJub25lIiBzdHJva2Utd2lkdGg9IjIiIHN0cm9rZT0iIzFlMWUxZSIgZD0iTTEzNi42NyAtMTc1LjExIEMxNDMuODggLTE3OS4xNiwgMTUxLjczIC0xODIuNzYsIDE1OC40MSAtMTg3LjQ2IE0xMzYuNjcgLTE3NS4xMSBDMTQ1LjQzIC0xNzguNTUsIDE1My4xNiAtMTgzLjIzLCAxNTguNDEgLTE4Ny40NiIvPjwvZz48L2c+PG1hc2svPjxnIHRyYW5zZm9ybT0idHJhbnNsYXRlKDEzMzguMzg2NTM1MDYyMDcwOCAzODcuOTg4NTA1Njc3ODE4Mykgcm90YXRlKDAgNDY4LjE3OTY1Njk4MjQyMTkgMTIuNSkiPjx0ZXh0IGRpcmVjdGlvbj0ibHRyIiBzdHlsZT0id2hpdGUtc3BhY2U6IHByZTsiIHRleHQtYW5jaG9yPSJzdGFydCIgZmlsbD0iIzFlMWUxZSIgZm9udC1zaXplPSIyMHB4IiBmb250LWZhbWlseT0iVmlyZ2lsLCBTZWdvZSBVSSBFbW9qaSIgeT0iMTcuNjE5OTk5OTk5OTk5OTk3IiB4PSIwIj5HRVQgL3NlYXJjaD90ZXJtPXt0ZXJtfSZhbXA7bG9jYXRpb249e2xvY2F0aW9ufSZhbXA7dHlwZT17dHlwZX0mYW1wO2RhdGU9e2RhdGV9IC0mZ3Q7IFBhcnRpYWwmbHQ7RXZlbnQmZ3Q7W108L3RleHQ+PC9nPjxnIHRyYW5zZm9ybT0idHJhbnNsYXRlKDE5MjguNjIyOTcxNDU2NTY5NSA5MjYuMDE5MTI4OTc1NzIwNikgcm90YXRlKDAgMTMyLjE0NTYxMjAwMDgzMzcgNzYuMDE1MTk4OTczMzczODYpIiBzdHJva2UtbGluZWNhcD0icm91bmQiPjxwYXRoIGZpbGw9Im5vbmUiIHN0cm9rZS13aWR0aD0iMiIgc3Ryb2tlPSIjMWUxZTFlIiBkPSJNMzIgMCBDMTAwLjkxIDAuMjgsIDE2Ny4xOCAzLjI5LCAyMzIuMjkgMCBNMzIgMCBDODQuMSAwLjU3LCAxMzQuMzMgMS4yOSwgMjMyLjI5IDAgTTIzMi4yOSAwIEMyNTUuMjIgLTEuOTQsIDI2Mi42MyA5Ljc2LCAyNjQuMjkgMzIgTTIzMi4yOSAwIEMyNTQuODQgLTIuMjQsIDI2My4yOSAxMC4yMiwgMjY0LjI5IDMyIE0yNjQuMjkgMzIgQzI2My44OSA2NC4zOSwgMjYzLjc2IDEwMC41NCwgMjY0LjI5IDEyMC4wMyBNMjY0LjI5IDMyIEMyNjQuMyA2NC43MiwgMjYzLjI3IDk2LjA0LCAyNjQuMjkgMTIwLjAzIE0yNjQuMjkgMTIwLjAzIEMyNjYuMDQgMTQxLjQxLCAyNTIuNjEgMTUxLjMsIDIzMi4yOSAxNTIuMDMgTTI2NC4yOSAxMjAuMDMgQzI2NCAxNDAuMzgsIDI1NC42MiAxNTIuNTQsIDIzMi4yOSAxNTIuMDMgTTIzMi4yOSAxNTIuMDMgQzE2NS40MSAxNTQuOSwgOTUuMTkgMTUyLjIsIDMyIDE1Mi4wMyBNMjMyLjI5IDE1Mi4wMyBDMTcwLjE1IDE0OS41OCwgMTA5LjE2IDE1MS4yMywgMzIgMTUyLjAzIE0zMiAxNTIuMDMgQzEwLjE0IDE1Mi40LCAwLjk3IDE0MC4yMywgMCAxMjAuMDMgTTMyIDE1Mi4wMyBDMTEuMjkgMTUzLjA4LCAtMS4wOCAxNDIuMjksIDAgMTIwLjAzIE0wIDEyMC4wMyBDLTAuNzkgODkuNzksIC0wLjY2IDU4LjA0LCAwIDMyIE0wIDEyMC4wMyBDMC4zMSA4Ny4wNiwgMC43MSA1NS43MiwgMCAzMiBNMCAzMiBDMS4zNCAxMS42NywgMTAuNyAxLjczLCAzMiAwIE0wIDMyIEMtMC45MyAxMC45NiwgMTEuMTEgMiwgMzIgMCIvPjwvZz48ZyB0cmFuc2Zvcm09InRyYW5zbGF0ZSgyMDI1LjY3ODYxNzYzNzA5MDYgOTg5LjUzNDMyNzk0OTA5NDQpIHJvdGF0ZSgwIDM1LjA4OTk2NTgyMDMxMjUgMTIuNDk5OTk5OTk5OTk5OTQzKSI+PHRleHQgZGlyZWN0aW9uPSJsdHIiIHN0eWxlPSJ3aGl0ZS1zcGFjZTogcHJlOyIgdGV4dC1hbmNob3I9Im1pZGRsZSIgZmlsbD0iIzFlMWUxZSIgZm9udC1zaXplPSIyMHB4IiBmb250LWZhbWlseT0iVmlyZ2lsLCBTZWdvZSBVSSBFbW9qaSIgeT0iMTcuNjE5OTk5OTk5OTk5OTk3IiB4PSIzNS4wODk5NjU4MjAzMTI1Ij5Cb29raW5nPC90ZXh0PjwvZz48ZyBzdHJva2UtbGluZWNhcD0icm91bmQiIG1hc2s9InVybCgjbWFzay14UkFLUk1GZjZpMnNuSEljS0lUZlYpIj48ZyB0cmFuc2Zvcm09InRyYW5zbGF0ZSgxNjU2Ljc4MzIzMTcyOTg4MDMgNzczLjMwMjAxODE1NjY4NjYpIHJvdGF0ZSgwIDEzMy4xODcyODYwNjE2NTU3NSAxMTcuNDAwNjM5MzU0NzYyMDYpIj48cGF0aCBmaWxsPSJub25lIiBzdHJva2Utd2lkdGg9IjIiIHN0cm9rZT0iIzFlMWUxZSIgZD0iTS0wLjAzIDEuMTcgQzQ0LjgyIDM5LjkxLCAyMjMuNTMgMTkzLjk0LCAyNjcuODggMjMyLjUyIE0tMS41IDAuNzQgQzQzLjM0IDM5LjY4LCAyMjIuMjggMTk1LjE4LCAyNjcuMjUgMjM0LjA2Ii8+PC9nPjxnIHRyYW5zZm9ybT0idHJhbnNsYXRlKDE2NTYuNzgzMjMxNzI5ODgwMyA3NzMuMzAyMDE4MTU2Njg2Nikgcm90YXRlKDAgMTMzLjE4NzI4NjA2MTY1NTc1IDExNy40MDA2MzkzNTQ3NjIwNikiPjxwYXRoIGZpbGw9Im5vbmUiIHN0cm9rZS13aWR0aD0iMiIgc3Ryb2tlPSIjMWUxZTFlIiBkPSJNMjMuMzQgMTAuMDUgQzIwLjYyIDkuMjksIDEzLjk5IDQuNTIsIC0wLjAzIDEuMTcgTTIzLjM0IDEwLjA1IEMxNS41NCA3LjUzLCA5LjI5IDQuMDksIC0wLjAzIDEuMTciLz48L2c+PGcgdHJhbnNmb3JtPSJ0cmFuc2xhdGUoMTY1Ni43ODMyMzE3Mjk4ODAzIDc3My4zMDIwMTgxNTY2ODY2KSByb3RhdGUoMCAxMzMuMTg3Mjg2MDYxNjU1NzUgMTE3LjQwMDYzOTM1NDc2MjA2KSI+PHBhdGggZmlsbD0ibm9uZSIgc3Ryb2tlLXdpZHRoPSIyIiBzdHJva2U9IiMxZTFlMWUiIGQ9Ik0xMi4xNyAyMi45OSBDMTEuNjcgMTkuNjUsIDcuMjggMTIuMjksIC0wLjAzIDEuMTcgTTEyLjE3IDIyLjk5IEM3Ljk1IDE2LjQ1LCA1LjE2IDkuMDEsIC0wLjAzIDEuMTciLz48L2c+PGcgdHJhbnNmb3JtPSJ0cmFuc2xhdGUoMTY1Ni43ODMyMzE3Mjk4ODAzIDc3My4zMDIwMTgxNTY2ODY2KSByb3RhdGUoMCAxMzMuMTg3Mjg2MDYxNjU1NzUgMTE3LjQwMDYzOTM1NDc2MjA2KSI+PHBhdGggZmlsbD0ibm9uZSIgc3Ryb2tlLXdpZHRoPSIyIiBzdHJva2U9IiMxZTFlMWUiIGQ9Ik0yNDMuOSAyMjUuMTMgQzI1MC41NCAyMjcuOTQsIDI1My4yNiAyMjYuNzQsIDI2Ny4yNSAyMzQuMDYgTTI0My45IDIyNS4xMyBDMjUwLjM3IDIyOC4wMiwgMjU4LjU2IDIzMC4wOCwgMjY3LjI1IDIzNC4wNiIvPjwvZz48ZyB0cmFuc2Zvcm09InRyYW5zbGF0ZSgxNjU2Ljc4MzIzMTcyOTg4MDMgNzczLjMwMjAxODE1NjY4NjYpIHJvdGF0ZSgwIDEzMy4xODcyODYwNjE2NTU3NSAxMTcuNDAwNjM5MzU0NzYyMDYpIj48cGF0aCBmaWxsPSJub25lIiBzdHJva2Utd2lkdGg9IjIiIHN0cm9rZT0iIzFlMWUxZSIgZD0iTTI1NS4xIDIxMi4yMSBDMjU5LjUxIDIxNy42MSwgMjU5Ljk5IDIxOC45OSwgMjY3LjI1IDIzNC4wNiBNMjU1LjEgMjEyLjIxIEMyNTcuOTggMjE5LjExLCAyNjIuNzEgMjI1LjE3LCAyNjcuMjUgMjM0LjA2Ii8+PC9nPjwvZz48bWFzayBpZD0ibWFzay14UkFLUk1GZjZpMnNuSEljS0lUZlYiPjxyZWN0IGhlaWdodD0iMTEwNS44MTQ4MTcxNzE3NjYyIiB3aWR0aD0iMjAyNC4wNDY4ODI0MTYwNTY5IiBmaWxsPSIjZmZmIiB5PSIwIiB4PSIwIi8+PHJlY3Qgb3BhY2l0eT0iMSIgaGVpZ2h0PSI3NSIgd2lkdGg9IjE2OS4yMzk4Mzc2NDY0ODQzOCIgZmlsbD0iIzAwMCIgeT0iODUyLjA1ODQxNzY2NDIyNjUiIHg9IjE3MDUuNzk1MTM4MjQ5NzI2MyIvPjwvbWFzaz48ZyB0cmFuc2Zvcm09InRyYW5zbGF0ZSgxNzA1Ljc5NTEzODI0OTcyNjMgODUyLjA1ODQxNzY2NDIyNjUpIHJvdGF0ZSgwIDg0LjE3NTM3OTU0MTgwOTc4IDM4LjY0NDIzOTg0NzIyMjMxKSI+PHRleHQgZGlyZWN0aW9uPSJsdHIiIHN0eWxlPSJ3aGl0ZS1zcGFjZTogcHJlOyIgdGV4dC1hbmNob3I9Im1pZGRsZSIgZmlsbD0iIzFlMWUxZSIgZm9udC1zaXplPSIyMHB4IiBmb250LWZhbWlseT0iVmlyZ2lsLCBTZWdvZSBVSSBFbW9qaSIgeT0iMTcuNjE5OTk5OTk5OTk5OTk3IiB4PSI4NC42MTk5MTg4MjMyNDIxOSI+cmVzZXJ2ZSh0aWNrZXRJZCk8L3RleHQ+PHRleHQgZGlyZWN0aW9uPSJsdHIiIHN0eWxlPSJ3aGl0ZS1zcGFjZTogcHJlOyIgdGV4dC1hbmNob3I9Im1pZGRsZSIgZmlsbD0iIzFlMWUxZSIgZm9udC1zaXplPSIyMHB4IiBmb250LWZhbWlseT0iVmlyZ2lsLCBTZWdvZSBVSSBFbW9qaSIgeT0iNDIuNjIiIHg9Ijg0LjYxOTkxODgyMzI0MjE5Ij5jb25maXJtKHRpY2tldElkLCA8L3RleHQ+PHRleHQgZGlyZWN0aW9uPSJsdHIiIHN0eWxlPSJ3aGl0ZS1zcGFjZTogcHJlOyIgdGV4dC1hbmNob3I9Im1pZGRsZSIgZmlsbD0iIzFlMWUxZSIgZm9udC1zaXplPSIyMHB4IiBmb250LWZhbWlseT0iVmlyZ2lsLCBTZWdvZSBVSSBFbW9qaSIgeT0iNjcuNjIiIHg9Ijg0LjYxOTkxODgyMzI0MjE5Ij5wYXltZW50RGV0YWlscyk8L3RleHQ+PC9nPjxnIHN0cm9rZS1saW5lY2FwPSJyb3VuZCI+PGcgdHJhbnNmb3JtPSJ0cmFuc2xhdGUoMjIxMC4yNzg4OTcxODc4NTEgMTAwMy4xODQ3MjE5NDYxNTI1KSByb3RhdGUoMCAxMTUuMTIxMTU0MjMyMTg1MjkgLTc5LjgwOTMxNzA2ODY0NTg0KSI+PHBhdGggZmlsbD0ibm9uZSIgc3Ryb2tlLXdpZHRoPSIyIiBzdHJva2U9IiMxZTFlMWUiIGQ9Ik0wLjU5IC0wLjczIEMzOC41NSAtMjcuMTIsIDE5MC4yOCAtMTMyLjg2LCAyMjguNTUgLTE1OS4yNiBNLTAuNTYgMS41IEMzNy43MSAtMjUuMTcsIDE5Mi40IC0xMzQuMDIsIDIzMC44IC0xNjEuMTIiLz48L2c+PGcgdHJhbnNmb3JtPSJ0cmFuc2xhdGUoMjIxMC4yNzg4OTcxODc4NTEgMTAwMy4xODQ3MjE5NDYxNTI1KSByb3RhdGUoMCAxMTUuMTIxMTU0MjMyMTg1MjkgLTc5LjgwOTMxNzA2ODY0NTg0KSI+PHBhdGggZmlsbD0ibm9uZSIgc3Ryb2tlLXdpZHRoPSIyIiBzdHJva2U9IiMxZTFlMWUiIGQ9Ik0yMTYuNTIgLTE0MC42IEMyMjAuNjcgLTE0OS42MiwgMjI3Ljk0IC0xNTQuMzcsIDIzMC44IC0xNjEuMTIgTTIxNi41MiAtMTQwLjYgQzIyMi43MSAtMTQ3LjIsIDIyNy43OCAtMTU1LjkxLCAyMzAuOCAtMTYxLjEyIi8+PC9nPjxnIHRyYW5zZm9ybT0idHJhbnNsYXRlKDIyMTAuMjc4ODk3MTg3ODUxIDEwMDMuMTg0NzIxOTQ2MTUyNSkgcm90YXRlKDAgMTE1LjEyMTE1NDIzMjE4NTI5IC03OS44MDkzMTcwNjg2NDU4NCkiPjxwYXRoIGZpbGw9Im5vbmUiIHN0cm9rZS13aWR0aD0iMiIgc3Ryb2tlPSIjMWUxZTFlIiBkPSJNMjA2LjY3IC0xNTQuNTggQzIxNC4zMSAtMTU4LjU1LCAyMjUuMTggLTE1OC4xOSwgMjMwLjggLTE2MS4xMiBNMjA2LjY3IC0xNTQuNTggQzIxNi4yNSAtMTU2LjI0LCAyMjQuODEgLTE1OS45OSwgMjMwLjggLTE2MS4xMiIvPjwvZz48L2c+PG1hc2svPjxnIHRyYW5zZm9ybT0idHJhbnNsYXRlKDE5MzQuOTg0MDQ1NzMzODg0MiAxMTczLjIxMzA4Njc3MjI4NCkgcm90YXRlKDAgMTMyLjY4ODExNDAzMDgzNzYgNDMuNjI3MzY0MTA1MTg5MzcpIiBzdHJva2UtbGluZWNhcD0icm91bmQiPjxwYXRoIGZpbGw9Im5vbmUiIHN0cm9rZS13aWR0aD0iMiIgc3Ryb2tlPSIjMWUxZTFlIiBkPSJNMjEuODEgMCBDNzkuNzggLTAuNzEsIDEzNS40NCAtMC4yLCAyNDMuNTYgMCBNMjEuODEgMCBDNjguMTYgLTEuMywgMTE0LjgyIC0xLjE2LCAyNDMuNTYgMCBNMjQzLjU2IDAgQzI1OS4wNCAxLjY5LCAyNjYuMTcgNi40OSwgMjY1LjM4IDIxLjgxIE0yNDMuNTYgMCBDMjU4Ljk3IDAuOTYsIDI2Ni42IDYuNTgsIDI2NS4zOCAyMS44MSBNMjY1LjM4IDIxLjgxIEMyNjUuNTMgMjkuNDksIDI2My43NiAzOS45OCwgMjY1LjM4IDY1LjQ0IE0yNjUuMzggMjEuODEgQzI2NS42NSAzNy41NywgMjY1LjM1IDUxLjUsIDI2NS4zOCA2NS40NCBNMjY1LjM4IDY1LjQ0IEMyNjQuMTMgODAuMjIsIDI1OS4wOCA4NS41NSwgMjQzLjU2IDg3LjI1IE0yNjUuMzggNjUuNDQgQzI2NS4yMiA3OS4yLCAyNTguNDMgODguMzksIDI0My41NiA4Ny4yNSBNMjQzLjU2IDg3LjI1IEMxODEuMjYgODguMTYsIDExOS4yNCA4Ni45OCwgMjEuODEgODcuMjUgTTI0My41NiA4Ny4yNSBDMTU2LjM5IDg4Ljc3LCA2OC45MSA4OC41MSwgMjEuODEgODcuMjUgTTIxLjgxIDg3LjI1IEM4LjcyIDg4LjA3LCAtMC45NSA4MS40MywgMCA2NS40NCBNMjEuODEgODcuMjUgQzYuOCA4Ny4yOCwgMi4yMyA3OS42NCwgMCA2NS40NCBNMCA2NS40NCBDLTAuOTEgNDguODMsIDEuOSAzMi40MywgMCAyMS44MSBNMCA2NS40NCBDLTAuNzkgNTIuOTQsIDAuMTcgNDIuMzMsIDAgMjEuODEgTTAgMjEuODEgQzAuOTYgNi4xOCwgOC42MyAtMC4zMSwgMjEuODEgMCBNMCAyMS44MSBDLTAuMjIgNy43NCwgNS41OSAtMi4wMSwgMjEuODEgMCIvPjwvZz48ZyB0cmFuc2Zvcm09InRyYW5zbGF0ZSgyMDM5LjA1MjE5NTE2NTExMjQgMTIwNC4zNDA0NTA4Nzc0NzM0KSByb3RhdGUoMCAyOC42MTk5NjQ1OTk2MDkzNzUgMTIuNSkiPjx0ZXh0IGRpcmVjdGlvbj0ibHRyIiBzdHlsZT0id2hpdGUtc3BhY2U6IHByZTsiIHRleHQtYW5jaG9yPSJtaWRkbGUiIGZpbGw9IiMxZTFlMWUiIGZvbnQtc2l6ZT0iMjBweCIgZm9udC1mYW1pbHk9IlZpcmdpbCwgU2Vnb2UgVUkgRW1vamkiIHk9IjE3LjYxOTk5OTk5OTk5OTk5NyIgeD0iMjguNjE5OTY0NTk5NjA5Mzc1Ij5TdHJpcGU8L3RleHQ+PC9nPjxnIHN0cm9rZS1saW5lY2FwPSJyb3VuZCI+PGcgdHJhbnNmb3JtPSJ0cmFuc2xhdGUoMjAxNC42NjIyNjM5NTM5MDIgMTE2Mi42MTM0MzE3MjQ1MTUpIHJvdGF0ZSgwIDAuNzAzMzUwMTQ3MjI0NTY4OSAtMzcuMDI3MzUxMTUzNjMwNDM0KSI+PHBhdGggZmlsbD0ibm9uZSIgc3Ryb2tlLXdpZHRoPSIyIiBzdHJva2U9IiMxZTFlMWUiIGQ9Ik0xLjE1IC0wLjYzIEMxLjE2IC0xMy4xNCwgMSAtNjEuNjEsIDAuNzUgLTc0IE0wLjI5IDEuNjUgQzAuMTYgLTEwLjY4LCAwLjUyIC02My4xNCwgMC4yNyAtNzUuNyIvPjwvZz48ZyB0cmFuc2Zvcm09InRyYW5zbGF0ZSgyMDE0LjY2MjI2Mzk1MzkwMiAxMTYyLjYxMzQzMTcyNDUxNSkgcm90YXRlKDAgMC43MDMzNTAxNDcyMjQ1Njg5IC0zNy4wMjczNTExNTM2MzA0MzQpIj48cGF0aCBmaWxsPSJub25lIiBzdHJva2Utd2lkdGg9IjIiIHN0cm9rZT0iIzFlMWUxZSIgZD0iTS03LjQ5IC0yNC4wOSBDLTUuMjQgLTE0LjMxLCAwLjI0IC03LjcyLCAxLjE1IC0wLjYzIE0tNy40OSAtMjQuMDkgQy01LjU4IC0xNy40NSwgLTIuNzggLTEwLjQ2LCAxLjE1IC0wLjYzIi8+PC9nPjxnIHRyYW5zZm9ybT0idHJhbnNsYXRlKDIwMTQuNjYyMjYzOTUzOTAyIDExNjIuNjEzNDMxNzI0NTE1KSByb3RhdGUoMCAwLjcwMzM1MDE0NzIyNDU2ODkgLTM3LjAyNzM1MTE1MzYzMDQzNCkiPjxwYXRoIGZpbGw9Im5vbmUiIHN0cm9rZS13aWR0aD0iMiIgc3Ryb2tlPSIjMWUxZTFlIiBkPSJNOS42MSAtMjQuMTYgQzUuNzMgLTE0LjE5LCA1LjA5IC03LjU3LCAxLjE1IC0wLjYzIE05LjYxIC0yNC4xNiBDNi42NCAtMTcuNTEsIDQuNTYgLTEwLjUsIDEuMTUgLTAuNjMiLz48L2c+PC9nPjxtYXNrLz48ZyBzdHJva2UtbGluZWNhcD0icm91bmQiPjxnIHRyYW5zZm9ybT0idHJhbnNsYXRlKDIxMTQuMjc4MTU4NjY5NTQyIDExNjcuNTg0MDQ4NjE0ODA3Mikgcm90YXRlKDAgLTAuNjE2OTcxOTMwMzEwMjI4MyAtNDEuMjU2ODg4NDYxNDcxNTkpIj48cGF0aCBmaWxsPSJub25lIiBzdHJva2Utd2lkdGg9IjIiIHN0cm9rZT0iIzFlMWUxZSIgZD0iTTAuMDggLTAuMTggQy0wLjA5IC0xMy44NCwgMC4xOSAtNjguNTksIDAuMTYgLTgyLjMzIE0tMS4zNCAtMS4zMiBDLTEuNjggLTE0LjgyLCAtMC4zNyAtNjcuODEsIC0wLjIxIC04MS4yNSIvPjwvZz48ZyB0cmFuc2Zvcm09InRyYW5zbGF0ZSgyMTE0LjI3ODE1ODY2OTU0MiAxMTY3LjU4NDA0ODYxNDgwNzIpIHJvdGF0ZSgwIC0wLjYxNjk3MTkzMDMxMDIyODMgLTQxLjI1Njg4ODQ2MTQ3MTU5KSI+PHBhdGggZmlsbD0ibm9uZSIgc3Ryb2tlLXdpZHRoPSIyIiBzdHJva2U9IiMxZTFlMWUiIGQ9Ik03LjkxIC01Ny42MSBDNC40MyAtNjUuMjMsIDAuMDQgLTc1LjA5LCAtMC4yMSAtODEuMjUgTTcuOTEgLTU3LjYxIEM1Ljc3IC02Mi41MSwgNS4yIC02Ny4zNSwgLTAuMjEgLTgxLjI1Ii8+PC9nPjxnIHRyYW5zZm9ybT0idHJhbnNsYXRlKDIxMTQuMjc4MTU4NjY5NTQyIDExNjcuNTg0MDQ4NjE0ODA3Mikgcm90YXRlKDAgLTAuNjE2OTcxOTMwMzEwMjI4MyAtNDEuMjU2ODg4NDYxNDcxNTkpIj48cGF0aCBmaWxsPSJub25lIiBzdHJva2Utd2lkdGg9IjIiIHN0cm9rZT0iIzFlMWUxZSIgZD0iTS05LjE5IC01Ny45MiBDLTUuODMgLTY1LjQzLCAtMy4zOSAtNzUuMTcsIC0wLjIxIC04MS4yNSBNLTkuMTkgLTU3LjkyIEMtNy45IC02Mi45MSwgLTUuMDQgLTY3LjY5LCAtMC4yMSAtODEuMjUiLz48L2c+PC9nPjxtYXNrLz48ZyB0cmFuc2Zvcm09InRyYW5zbGF0ZSgyMzk2LjQ2NjI4MDcyNzkyMiA5NTMuMjg0ODY3ODI2OTY0Mykgcm90YXRlKDAgNjIuNTk1NDc2Mjg1OTE3ODEgNTkuOTM5NDQ5NzMxODQ5MzgpIiBzdHJva2UtbGluZWNhcD0icm91bmQiPjxwYXRoIGZpbGw9Im5vbmUiIHN0cm9rZS13aWR0aD0iMiIgc3Ryb2tlPSIjMWUxZTFlIiBkPSJNNTkuMDkgMC45OSBDNjguNDggLTAuNTIsIDgxLjQ3IDEsIDkwLjI2IDQuODkgQzk5LjA1IDguNzgsIDEwNi4xNSAxNi42MywgMTExLjgzIDI0LjMzIEMxMTcuNTEgMzIuMDIsIDEyMi43NSA0MS44LCAxMjQuMzMgNTEuMDYgQzEyNS45MiA2MC4zMiwgMTI0LjU5IDcxLjM2LCAxMjEuMzYgNzkuODkgQzExOC4xMyA4OC40MSwgMTExLjggOTUuOTEsIDEwNC45NSAxMDIuMjIgQzk4LjExIDEwOC41MywgODkuNTEgMTE1LjE0LCA4MC4zMiAxMTcuNzcgQzcxLjEyIDEyMC40MSwgNTkuNDYgMTE5Ljc5LCA0OS43NyAxMTguMDIgQzQwLjA5IDExNi4yNSwgMjkuNzkgMTEyLjc3LCAyMi4yMyAxMDcuMTUgQzE0LjY3IDEwMS41MywgOC4wNyA5Mi45OCwgNC40IDg0LjMgQzAuNzMgNzUuNjIsIC0wLjg0IDY0LjM2LCAwLjIxIDU1LjA4IEMxLjI1IDQ1LjgsIDUuNjMgMzYuNDMsIDEwLjY3IDI4LjYgQzE1LjcxIDIwLjc4LCAyMC4zMSAxMi44NiwgMzAuNDIgOC4xNSBDNDAuNTQgMy40NCwgNjMuMTMgMS4wMywgNzEuMzUgMC4zNSBDNzkuNTcgLTAuMzIsIDgwLjEgMy4yMiwgNzkuNzIgNC4xMiBNMzcuNyA0Ljk3IEM0NS44IDAuNzMsIDU2LjQxIDAuNDksIDY2LjE5IDAuOTUgQzc1Ljk3IDEuNCwgODcuOCAzLjA5LCA5Ni4zNyA3LjY5IEMxMDQuOTMgMTIuMjksIDExMi45NiAyMC4zNiwgMTE3LjU4IDI4LjUyIEMxMjIuMjEgMzYuNjksIDEyMy43OSA0NywgMTI0LjExIDU2LjY3IEMxMjQuNDQgNjYuMzQsIDEyMy42NCA3OC4wOCwgMTE5LjUzIDg2LjUzIEMxMTUuNDIgOTQuOTgsIDEwNy4yOSAxMDIuMTMsIDk5LjQ0IDEwNy4zOCBDOTEuNTkgMTEyLjYyLCA4MS42IDExNi4zOCwgNzIuNDIgMTE4LjAxIEM2My4yNSAxMTkuNjUsIDUzLjU2IDExOS43OSwgNDQuMzcgMTE3LjE4IEMzNS4xOCAxMTQuNTgsIDI0LjE4IDEwOS4wOSwgMTcuMjkgMTAyLjM4IEMxMC40MSA5NS42OCwgNS43MSA4Ni4xLCAzLjA0IDc2Ljk3IEMwLjM3IDY3LjgzLCAtMC41NSA1Ni44OSwgMS4yNSA0Ny41NyBDMy4wNSAzOC4yNCwgNy41MSAyOC4yNiwgMTMuODQgMjEgQzIwLjE2IDEzLjc1LCAzNS4xNSA2LjUzLCAzOS4yMSA0LjAyIEM0My4yNiAxLjUsIDM4IDQuNzUsIDM4LjE1IDUuOTMiLz48L2c+PGcgdHJhbnNmb3JtPSJ0cmFuc2xhdGUoMjQyMy4wNjAxMDM5MTQyNzQgOTc1Ljg0MDcyNjE5MjgzMjgpIHJvdGF0ZSgwIDM2LjIzOTk2NzM0NjE5MTQwNiAzNy40OTk5OTk5OTk5OTk5NCkiPjx0ZXh0IGRpcmVjdGlvbj0ibHRyIiBzdHlsZT0id2hpdGUtc3BhY2U6IHByZTsiIHRleHQtYW5jaG9yPSJtaWRkbGUiIGZpbGw9IiMxZTFlMWUiIGZvbnQtc2l6ZT0iMjBweCIgZm9udC1mYW1pbHk9IlZpcmdpbCwgU2Vnb2UgVUkgRW1vamkiIHk9IjE3LjYxOTk5OTk5OTk5OTk5NyIgeD0iMzYuMjM5OTY3MzQ2MTkxNDA2Ij5UaWNrZXQgPC90ZXh0Pjx0ZXh0IGRpcmVjdGlvbj0ibHRyIiBzdHlsZT0id2hpdGUtc3BhY2U6IHByZTsiIHRleHQtYW5jaG9yPSJtaWRkbGUiIGZpbGw9IiMxZTFlMWUiIGZvbnQtc2l6ZT0iMjBweCIgZm9udC1mYW1pbHk9IlZpcmdpbCwgU2Vnb2UgVUkgRW1vamkiIHk9IjQyLjYyIiB4PSIzNi4yMzk5NjczNDYxOTE0MDYiPkxvY2s8L3RleHQ+PHRleHQgZGlyZWN0aW9uPSJsdHIiIHN0eWxlPSJ3aGl0ZS1zcGFjZTogcHJlOyIgdGV4dC1hbmNob3I9Im1pZGRsZSIgZmlsbD0iIzFlMWUxZSIgZm9udC1zaXplPSIyMHB4IiBmb250LWZhbWlseT0iVmlyZ2lsLCBTZWdvZSBVSSBFbW9qaSIgeT0iNjcuNjIiIHg9IjM2LjIzOTk2NzM0NjE5MTQwNiI+KFJlZGlzKTwvdGV4dD48L2c+PGcgdHJhbnNmb3JtPSJ0cmFuc2xhdGUoMjI3NS44MzY5MTMyNjk2MDM0IDEwNjQuOTQ5NDI5NzUzMjE5Nikgcm90YXRlKDAgMTIwLjg1OTkwOTA1NzYxNzE5IDEyLjUpIj48dGV4dCBkaXJlY3Rpb249Imx0ciIgc3R5bGU9IndoaXRlLXNwYWNlOiBwcmU7IiB0ZXh0LWFuY2hvcj0ic3RhcnQiIGZpbGw9IiMxZTFlMWUiIGZvbnQtc2l6ZT0iMjBweCIgZm9udC1mYW1pbHk9IlZpcmdpbCwgU2Vnb2UgVUkgRW1vamkiIHk9IjE3LjYxOTk5OTk5OTk5OTk5NyIgeD0iMCI+e3RpY2tldElkOiB0cnVlfSBUVEwgMTA8L3RleHQ+PC9nPjxnIHN0cm9rZS1saW5lY2FwPSJyb3VuZCI+PGcgdHJhbnNmb3JtPSJ0cmFuc2xhdGUoMjIwNy43NjcyODI4MzE0NDE3IDEwMjcuMjIyNDUwNjk0NTczNikgcm90YXRlKDAgOTAuMjc3MTM0Mzc5NjgzNjIgLTAuMDcxODA4OTEyNDI3Mjg2NDkpIj48cGF0aCBmaWxsPSJub25lIiBzdHJva2Utd2lkdGg9IjIiIHN0cm9rZT0iIzFlMWUxZSIgZD0iTTAuNjMgLTAuNTIgQzMwLjY2IC0wLjg3LCAxNTAuOTQgLTEuOTgsIDE4MS4wNSAtMS45NyBNLTAuNSAxLjgzIEMyOS4yNyAxLjU2LCAxNDkuNzMgLTAuOTEsIDE3OS45IC0xLjA1Ii8+PC9nPjxnIHRyYW5zZm9ybT0idHJhbnNsYXRlKDIyMDcuNzY3MjgyODMxNDQxNyAxMDI3LjIyMjQ1MDY5NDU3MzYpIHJvdGF0ZSgwIDkwLjI3NzEzNDM3OTY4MzYyIC0wLjA3MTgwODkxMjQyNzI4NjQ5KSI+PHBhdGggZmlsbD0ibm9uZSIgc3Ryb2tlLXdpZHRoPSIyIiBzdHJva2U9IiMxZTFlMWUiIGQ9Ik0xNTYuNTIgNy44MiBDMTY0LjM1IDMuNzUsIDE3MS45NSAwLjg5LCAxNzkuOSAtMS4wNSBNMTU2LjUyIDcuODIgQzE2My45IDUuNDEsIDE3Mi4xOSAxLjMxLCAxNzkuOSAtMS4wNSIvPjwvZz48ZyB0cmFuc2Zvcm09InRyYW5zbGF0ZSgyMjA3Ljc2NzI4MjgzMTQ0MTcgMTAyNy4yMjI0NTA2OTQ1NzM2KSByb3RhdGUoMCA5MC4yNzcxMzQzNzk2ODM2MiAtMC4wNzE4MDg5MTI0MjcyODY0OSkiPjxwYXRoIGZpbGw9Im5vbmUiIHN0cm9rZS13aWR0aD0iMiIgc3Ryb2tlPSIjMWUxZTFlIiBkPSJNMTU2LjI5IC05LjI4IEMxNjQuMjMgLTYuOTksIDE3MS45MiAtMy40OCwgMTc5LjkgLTEuMDUgTTE1Ni4yOSAtOS4yOCBDMTYzLjY0IC02LjA5LCAxNzIuMDEgLTQuNiwgMTc5LjkgLTEuMDUiLz48L2c+PC9nPjxtYXNrLz48ZyB0cmFuc2Zvcm09InRyYW5zbGF0ZSgyMzIzLjI3MzE5MTUzNDMzOCAzMjkuODgzNjk2NTc3OTA4Mikgcm90YXRlKDAgMTAyLjAxNjYwMzEwMjA5Mzc3IDkwLjUwNjc4OTYyMTAzMjg4KSIgc3Ryb2tlLWxpbmVjYXA9InJvdW5kIj48cGF0aCBmaWxsPSJub25lIiBzdHJva2Utd2lkdGg9IjIiIHN0cm9rZT0iIzFlMWUxZSIgZD0iTTEyNC42NiAyLjY0IEMxMzcuMTQgMy44MSwgMTUwLjQyIDEwLjYzLCAxNjEuMTggMTcuMjkgQzE3MS45MyAyMy45NSwgMTgyLjIzIDMzLjAyLCAxODkuMTggNDIuNiBDMTk2LjE0IDUyLjE5LCAyMDAuOTQgNjMuNTUsIDIwMi44OSA3NC44IEMyMDQuODMgODYuMDYsIDIwMy44NSA5OC45MywgMjAwLjg1IDExMC4xMyBDMTk3Ljg1IDEyMS4zMywgMTkyLjI2IDEzMi42NSwgMTg0Ljg4IDE0Mi4wMSBDMTc3LjUxIDE1MS4zOCwgMTY3LjQ5IDE1OS45LCAxNTYuNiAxNjYuMzMgQzE0NS43MiAxNzIuNzYsIDEzMi40NyAxNzguNDgsIDExOS41OCAxODAuNTggQzEwNi42OSAxODIuNjgsIDkyLjA4IDE4MS41NSwgNzkuMjYgMTc4LjkzIEM2Ni40NCAxNzYuMzIsIDUzLjIgMTcxLjc1LCA0Mi42NiAxNjQuODkgQzMyLjEyIDE1OC4wMywgMjIuNzEgMTQ3LjQ1LCAxNi4wMSAxMzcuNzUgQzkuMzEgMTI4LjA2LCA0Ljc5IDExNy44OSwgMi40NSAxMDYuNzEgQzAuMTIgOTUuNTMsIC0wLjU0IDgyLjEzLCAyLjAxIDcwLjY3IEM0LjU2IDU5LjIxLCAxMC4wMiA0Ny40MSwgMTcuNzcgMzcuOTQgQzI1LjUyIDI4LjQ4LCAzNy4yMSAyMC4xMiwgNDguNTIgMTMuODggQzU5LjgzIDcuNjUsIDcxLjYzIDIuMDksIDg1LjY0IDAuNTMgQzk5LjY1IC0xLjA0LCAxMjMuNDYgMy4wNywgMTMyLjU3IDQuNDkgQzE0MS42OCA1LjkxLCAxNDAuOSA3LjUsIDE0MC4yOSA5LjA1IE05OS41OCAtMS4xOSBDMTExLjgyIC0yLjczLCAxMjYuNDQgMS42NCwgMTM4LjQ5IDYuMDggQzE1MC41NSAxMC41MiwgMTYyLjE1IDE3LjQ3LCAxNzEuODkgMjUuNDcgQzE4MS42MyAzMy40NiwgMTkxLjcxIDQzLjY5LCAxOTYuOTMgNTQuMDYgQzIwMi4xNCA2NC40MywgMjAzLjAyIDc2LjI5LCAyMDMuMTggODcuNyBDMjAzLjMzIDk5LjExLCAyMDIuMjggMTExLjU0LCAxOTcuODUgMTIyLjUgQzE5My40MiAxMzMuNDcsIDE4NS45IDE0NS4wMywgMTc2LjYgMTUzLjQ4IEMxNjcuMyAxNjEuOTMsIDE1NC4xNyAxNjguMzksIDE0Mi4wNyAxNzMuMiBDMTI5Ljk3IDE3OC4wMSwgMTE2Ljk4IDE4MS44OCwgMTAzLjk5IDE4Mi4zNCBDOTEgMTgyLjc5LCA3Ni4zIDE4MC4yNSwgNjQuMTQgMTc1Ljk0IEM1MS45NyAxNzEuNjMsIDQwLjQzIDE2NC44OCwgMzEuMDIgMTU2LjQ5IEMyMS42MSAxNDguMDksIDEyLjc2IDEzNi4xLCA3LjY5IDEyNS41NyBDMi42MiAxMTUuMDMsIDAuNTkgMTA0LjY0LCAwLjU5IDkzLjI4IEMwLjU4IDgxLjkyLCAzLjEyIDY4LjM4LCA3LjY4IDU3LjQxIEMxMi4yMyA0Ni40NCwgMTguODUgMzUuOTEsIDI3LjkyIDI3LjQ2IEMzNi45OSAxOS4wMSwgNTAuMjYgMTEuMDYsIDYyLjEgNi43IEM3My45MyAyLjM1LCA5Mi4zOCAyLjIzLCA5OC45MyAxLjM0IEMxMDUuNDkgMC40NSwgMTAwLjk5IDAuMTksIDEwMS40MyAxLjM1Ii8+PC9nPjxnIHRyYW5zZm9ybT0idHJhbnNsYXRlKDIzNTguOTkzMjIwMTYyMzcxNSAzODIuODkyNTIxNTE0NDg0NSkgcm90YXRlKDAgNjYuMTU5OTQyNjI2OTUzMTIgMzcuNSkiPjx0ZXh0IGRpcmVjdGlvbj0ibHRyIiBzdHlsZT0id2hpdGUtc3BhY2U6IHByZTsiIHRleHQtYW5jaG9yPSJtaWRkbGUiIGZpbGw9IiMxZTFlMWUiIGZvbnQtc2l6ZT0iMjBweCIgZm9udC1mYW1pbHk9IlZpcmdpbCwgU2Vnb2UgVUkgRW1vamkiIHk9IjE3LjYxOTk5OTk5OTk5OTk5NyIgeD0iNjYuMTU5OTQyNjI2OTUzMTIiPkVsYXN0aWNzZWFyY2g8L3RleHQ+PHRleHQgZGlyZWN0aW9uPSJsdHIiIHN0eWxlPSJ3aGl0ZS1zcGFjZTogcHJlOyIgdGV4dC1hbmNob3I9Im1pZGRsZSIgZmlsbD0iIzFlMWUxZSIgZm9udC1zaXplPSIyMHB4IiBmb250LWZhbWlseT0iVmlyZ2lsLCBTZWdvZSBVSSBFbW9qaSIgeT0iNDIuNjIiIHg9IjY2LjE1OTk0MjYyNjk1MzEyIj4oYXdzIDwvdGV4dD48dGV4dCBkaXJlY3Rpb249Imx0ciIgc3R5bGU9IndoaXRlLXNwYWNlOiBwcmU7IiB0ZXh0LWFuY2hvcj0ibWlkZGxlIiBmaWxsPSIjMWUxZTFlIiBmb250LXNpemU9IjIwcHgiIGZvbnQtZmFtaWx5PSJWaXJnaWwsIFNlZ29lIFVJIEVtb2ppIiB5PSI2Ny42MiIgeD0iNjYuMTU5OTQyNjI2OTUzMTIiPm9wZW5zZWFyY2gpPC90ZXh0PjwvZz48ZyB0cmFuc2Zvcm09InRyYW5zbGF0ZSgyNTk3LjcyNTQxOTM5ODY1MyAzNzYuNDg1MTQyMDIxOTczMzMpIHJvdGF0ZSgwIDE2Mi43NTk4NzI0MzY1MjM0NCAyNSkiPjx0ZXh0IGRpcmVjdGlvbj0ibHRyIiBzdHlsZT0id2hpdGUtc3BhY2U6IHByZTsiIHRleHQtYW5jaG9yPSJzdGFydCIgZmlsbD0iIzFlMWUxZSIgZm9udC1zaXplPSIyMHB4IiBmb250LWZhbWlseT0iVmlyZ2lsLCBTZWdvZSBVSSBFbW9qaSIgeT0iMTcuNjE5OTk5OTk5OTk5OTk3IiB4PSIwIj5wbGF5b2ZmOiBbZXZlbnQxLCBldmVudDIsIGV2ZW50M108L3RleHQ+PHRleHQgZGlyZWN0aW9uPSJsdHIiIHN0eWxlPSJ3aGl0ZS1zcGFjZTogcHJlOyIgdGV4dC1hbmNob3I9InN0YXJ0IiBmaWxsPSIjMWUxZTFlIiBmb250LXNpemU9IjIwcHgiIGZvbnQtZmFtaWx5PSJWaXJnaWwsIFNlZ29lIFVJIEVtb2ppIiB5PSI0Mi42MiIgeD0iMCI+c3dpZnQ6IFtldmVudDUsIGV2ZW50NiwgZXZlbnROXTwvdGV4dD48L2c+PGcgc3Ryb2tlLWxpbmVjYXA9InJvdW5kIj48ZyB0cmFuc2Zvcm09InRyYW5zbGF0ZSgyMTE5LjU3ODUwOTI1NjA2MzYgNTE5LjkzMjAyMDc0MDM0MzMpIHJvdGF0ZSgwIDEwMS4xNTM4NDA5NjU0NzEwOSAtMzQuODQzMzc2MDczMTQ2NDMpIj48cGF0aCBmaWxsPSJub25lIiBzdHJva2Utd2lkdGg9IjIiIHN0cm9rZT0iIzFlMWUxZSIgZD0iTS0wLjQ2IDEuMTggQzMyLjk0IC0xMC40NywgMTY2LjkyIC01OS4xNCwgMjAwLjQyIC03MC44NyBNMS40OSAwLjc1IEMzNS4yOSAtMTAuNzEsIDE2OS43NyAtNTcuOTUsIDIwMi43NyAtNjkuOTQiLz48L2c+PGcgdHJhbnNmb3JtPSJ0cmFuc2xhdGUoMjExOS41Nzg1MDkyNTYwNjM2IDUxOS45MzIwMjA3NDAzNDMzKSByb3RhdGUoMCAxMDEuMTUzODQwOTY1NDcxMDkgLTM0Ljg0MzM3NjA3MzE0NjQzKSI+PHBhdGggZmlsbD0ibm9uZSIgc3Ryb2tlLXdpZHRoPSIyIiBzdHJva2U9IiMxZTFlMWUiIGQ9Ik0xOC43NiAtMTQuODEgQzE0LjgxIC0xMS4yMSwgNS4xMiAtNi4xOSwgLTAuNDYgMS4xOCBNMTguNzYgLTE0LjgxIEMxMS41IC05LjQ0LCA0LjkxIC00LjQ5LCAtMC40NiAxLjE4Ii8+PC9nPjxnIHRyYW5zZm9ybT0idHJhbnNsYXRlKDIxMTkuNTc4NTA5MjU2MDYzNiA1MTkuOTMyMDIwNzQwMzQzMykgcm90YXRlKDAgMTAxLjE1Mzg0MDk2NTQ3MTA5IC0zNC44NDMzNzYwNzMxNDY0MykiPjxwYXRoIGZpbGw9Im5vbmUiIHN0cm9rZS13aWR0aD0iMiIgc3Ryb2tlPSIjMWUxZTFlIiBkPSJNMjQuNTQgMS4yOSBDMTguOTggMC4wMiwgNy41NSAwLjIsIC0wLjQ2IDEuMTggTTI0LjU0IDEuMjkgQzE1LjI4IDEuMDksIDYuNyAwLjQ4LCAtMC40NiAxLjE4Ii8+PC9nPjxnIHRyYW5zZm9ybT0idHJhbnNsYXRlKDIxMTkuNTc4NTA5MjU2MDYzNiA1MTkuOTMyMDIwNzQwMzQzMykgcm90YXRlKDAgMTAxLjE1Mzg0MDk2NTQ3MTA5IC0zNC44NDMzNzYwNzMxNDY0MykiPjxwYXRoIGZpbGw9Im5vbmUiIHN0cm9rZS13aWR0aD0iMiIgc3Ryb2tlPSIjMWUxZTFlIiBkPSJNMTgzLjUxIC01NC4wMSBDMTkxLjM5IC01OS44NiwgMTkzLjI3IC02NC40NCwgMjAyLjc3IC02OS45NCBNMTgzLjUxIC01NC4wMSBDMTg5LjU1IC01OS42MiwgMTk2LjI1IC02NS43LCAyMDIuNzcgLTY5Ljk0Ii8+PC9nPjxnIHRyYW5zZm9ybT0idHJhbnNsYXRlKDIxMTkuNTc4NTA5MjU2MDYzNiA1MTkuOTMyMDIwNzQwMzQzMykgcm90YXRlKDAgMTAxLjE1Mzg0MDk2NTQ3MTA5IC0zNC44NDMzNzYwNzMxNDY0MykiPjxwYXRoIGZpbGw9Im5vbmUiIHN0cm9rZS13aWR0aD0iMiIgc3Ryb2tlPSIjMWUxZTFlIiBkPSJNMTc3Ljc3IC03MC4xMiBDMTg3LjI1IC03MS4xLCAxOTAuODUgLTcwLjg0LCAyMDIuNzcgLTY5Ljk0IE0xNzcuNzcgLTcwLjEyIEMxODUuNzkgLTcwLjE2LCAxOTQuNDggLTcwLjY3LCAyMDIuNzcgLTY5Ljk0Ii8+PC9nPjwvZz48bWFzay8+PGcgc3Ryb2tlLWxpbmVjYXA9InJvdW5kIiBtYXNrPSJ1cmwoI21hc2stV1V5djlSY3JhMXRkX0dVWFpLRUhxKSI+PGcgdHJhbnNmb3JtPSJ0cmFuc2xhdGUoMjQzOC4xNDU3ODIzNjMxNjI3IDYxMi41Mjg5ODU1NTQyNTkyKSByb3RhdGUoMCAtMi4wNDIzNzc2MDIzNzc2NTU0IC00Ni42ODAwNjM5MzgwMjExMzUpIj48cGF0aCBmaWxsPSJub25lIiBzdHJva2Utd2lkdGg9IjIiIHN0cm9rZT0iIzFlMWUxZSIgZD0iTTAuMDUgLTAuNTEgQy0wLjM2IC0xNS45NCwgLTIuNzQgLTc3Ljg0LCAtMi45OSAtOTIuODUgTS0xLjM5IC0xLjgyIEMtMS45MyAtMTcuMTMsIC00LjA5IC03Ni44MiwgLTQuMTMgLTkxLjkxIi8+PC9nPjxnIHRyYW5zZm9ybT0idHJhbnNsYXRlKDI0MzguMTQ1NzgyMzYzMTYyNyA2MTIuNTI4OTg1NTU0MjU5Mikgcm90YXRlKDAgLTIuMDQyMzc3NjAyMzc3NjU1NCAtNDYuNjgwMDYzOTM4MDIxMTM1KSI+PHBhdGggZmlsbD0ibm9uZSIgc3Ryb2tlLXdpZHRoPSIyIiBzdHJva2U9IiMxZTFlMWUiIGQ9Ik00LjkzIC02OC42MSBDMS44NCAtNzUuMTEsIC0xLjQ5IC03OC40NywgLTQuMTMgLTkxLjkxIE00LjkzIC02OC42MSBDMS44NyAtNzcuODgsIC0yLjU2IC04Ni4yOSwgLTQuMTMgLTkxLjkxIi8+PC9nPjxnIHRyYW5zZm9ybT0idHJhbnNsYXRlKDI0MzguMTQ1NzgyMzYzMTYyNyA2MTIuNTI4OTg1NTU0MjU5Mikgcm90YXRlKDAgLTIuMDQyMzc3NjAyMzc3NjU1NCAtNDYuNjgwMDYzOTM4MDIxMTM1KSI+PHBhdGggZmlsbD0ibm9uZSIgc3Ryb2tlLXdpZHRoPSIyIiBzdHJva2U9IiMxZTFlMWUiIGQ9Ik0tMTIuMTcgLTY4LjIzIEMtMTAuOTMgLTc0Ljg0LCAtOS45MyAtNzguMjksIC00LjEzIC05MS45MSBNLTEyLjE3IC02OC4yMyBDLTguNDcgLTc3LjgsIC02LjE1IC04Ni4zNiwgLTQuMTMgLTkxLjkxIi8+PC9nPjwvZz48bWFzayBpZD0ibWFzay1XVXl2OVJjcmExdGRfR1VYWktFSHEiPjxyZWN0IGhlaWdodD0iODA0LjI1MjIyMTY3NjMyOTkiIHdpZHRoPSIyNTQwLjc3NzUyNDExOTAwNzUiIGZpbGw9IiNmZmYiIHk9IjAiIHg9IjAiLz48cmVjdCBvcGFjaXR5PSIxIiBoZWlnaHQ9IjI1IiB3aWR0aD0iMzEuNDU5OTc2MTk2Mjg5MDYyIiBmaWxsPSIjMDAwIiB5PSI1NTQuMTY3MzY3NDkzMjIzOSIgeD0iMjQyMS4wOTk5MjMzODcwOTUzIi8+PC9tYXNrPjxnIHRyYW5zZm9ybT0idHJhbnNsYXRlKDI0MjEuMDk5OTIzMzg3MDk1NyA1NTQuMTY3MzY3NDkzMjIzOCkgcm90YXRlKDAgMTUuMDAzNDgxMzczNjg5MjgzIDExLjY4MTU1NDEyMzAxNDE2NikiPjx0ZXh0IGRpcmVjdGlvbj0ibHRyIiBzdHlsZT0id2hpdGUtc3BhY2U6IHByZTsiIHRleHQtYW5jaG9yPSJtaWRkbGUiIGZpbGw9IiMxZTFlMWUiIGZvbnQtc2l6ZT0iMjBweCIgZm9udC1mYW1pbHk9IlZpcmdpbCwgU2Vnb2UgVUkgRW1vamkiIHk9IjE3LjYxOTk5OTk5OTk5OTk5NyIgeD0iMTUuNzI5OTg4MDk4MTQ0NTMxIj5jZGM8L3RleHQ+PC9nPjxnIHRyYW5zZm9ybT0idHJhbnNsYXRlKDI2MDAuMjE1OTg4MjgyMTU4NCA0NTEuOTA5NDgxNzI5NTM1ODYpIHJvdGF0ZSgwIDk5LjU5OTkyMjE4MDE3NTc4IDEyLjUpIj48dGV4dCBkaXJlY3Rpb249Imx0ciIgc3R5bGU9IndoaXRlLXNwYWNlOiBwcmU7IiB0ZXh0LWFuY2hvcj0ic3RhcnQiIGZpbGw9IiMxZTFlMWUiIGZvbnQtc2l6ZT0iMjBweCIgZm9udC1mYW1pbHk9IlZpcmdpbCwgU2Vnb2UgVUkgRW1vamkiIHk9IjE3LjYxOTk5OTk5OTk5OTk5NyIgeD0iMCI+LSBub2RlIHF1ZXJ5IGNhY2hpbmc8L3RleHQ+PC9nPjxnIHRyYW5zZm9ybT0idHJhbnNsYXRlKDEzMDAuNzM0OTg0MzA4MjI1OSA2OTIuNDg2OTA3NzI5MjI0Mykgcm90YXRlKDAgNDkuNzk5MjU3Mzk0NzkxNTQgNTMuNjk1MzE1MzE2MjE1NSkiIHN0cm9rZS1saW5lY2FwPSJyb3VuZCI+PHBhdGggZmlsbD0ibm9uZSIgc3Ryb2tlLXdpZHRoPSIyIiBzdHJva2U9IiMxZTFlMWUiIGQ9Ik0zMi41MiAzLjc0IEMzOS40NSAtMC4xMiwgNDguOTkgLTAuOTUsIDU3LjE3IDAuNTMgQzY1LjM1IDIuMDEsIDc1LjAxIDYuOTEsIDgxLjYgMTIuNjMgQzg4LjE4IDE4LjM0LCA5My44NyAyNi41OCwgOTYuNjggMzQuODIgQzk5LjQ5IDQzLjA1LCA5OS42MyA1My4yNCwgOTguNDMgNjIuMDMgQzk3LjIzIDcwLjgzLCA5NC41OSA4MC42NCwgODkuNDggODcuNTcgQzg0LjM2IDk0LjQ5LCA3NS42NCAxMDAuMjYsIDY3LjczIDEwMy41OSBDNTkuODMgMTA2LjkyLCA1MC4xNCAxMDguODIsIDQyLjA1IDEwNy41NSBDMzMuOTYgMTA2LjI3LCAyNS44IDEwMS42OCwgMTkuMTkgOTUuOTIgQzEyLjU5IDkwLjE1LCA1LjU4IDgxLjUzLCAyLjQyIDcyLjk2IEMtMC43NCA2NC4zOCwgLTEuMzIgNTMuMTcsIDAuMjMgNDQuNDcgQzEuNzggMzUuNzgsIDUuMjcgMjcuOTksIDExLjcxIDIwLjc3IEMxOC4xNiAxMy41NSwgMzMuNDcgNC4zMSwgMzguOSAxLjE1IEM0NC4zMyAtMi4wMiwgNDQuMTkgMC43MiwgNDQuMjkgMS43NiBNNjQuMTEgMS44OSBDNzIuMDYgMy43NCwgODEuMjIgOS44MSwgODYuOTcgMTYuNTkgQzkyLjcxIDIzLjM3LCA5Ny4xMiAzMy43OSwgOTguNTkgNDIuNTcgQzEwMC4wNyA1MS4zNCwgOTguNTUgNjAuNTYsIDk1Ljg0IDY5LjI0IEM5My4xMiA3Ny45MiwgODguMjUgODguMzMsIDgyLjI4IDk0LjY0IEM3Ni4zMSAxMDAuOTUsIDY3LjgxIDEwNS4yNywgNjAuMDEgMTA3LjA5IEM1Mi4yMSAxMDguOSwgNDMuMzcgMTA4LjUyLCAzNS40OSAxMDUuNTEgQzI3LjYgMTAyLjQ5LCAxOC40MSA5NS41MiwgMTIuNjkgODkuMDEgQzYuOTcgODIuNSwgMi43MyA3NC45NiwgMS4xNSA2Ni40NiBDLTAuNDIgNTcuOTYsIDAuNTggNDYuNTksIDMuMjUgMzguMDMgQzUuOTEgMjkuNDcsIDExLjM5IDIxLjI5LCAxNy4xNiAxNS4xMSBDMjIuOTIgOC45MywgMjkuODkgMy4yLCAzNy44MyAwLjk2IEM0NS43NyAtMS4yNywgNjAuMzIgMS4zNSwgNjQuOCAxLjcgQzY5LjI3IDIuMDQsIDY0Ljg1IDIuMjQsIDY0LjcgMy4wMSIvPjwvZz48ZyB0cmFuc2Zvcm09InRyYW5zbGF0ZSgxNjc1LjA5MTI1NzA2MDk3NDggOTgyLjU4OTEwMzY2NjY2MDcpIHJvdGF0ZSgwIDg1LjU5MTY0ODE5OTE3Mjk0IDMzLjM2NzQ3NTk4MDg1NDQ2NSkiIHN0cm9rZS1saW5lY2FwPSJyb3VuZCI+PHBhdGggZmlsbD0ibm9uZSIgc3Ryb2tlLXdpZHRoPSIyIiBzdHJva2U9IiMxZTFlMWUiIGQ9Ik0xNi42OCAwIEM2My41MyAtMi4yLCAxMTEuODIgLTEuMjIsIDE1NC41IDAgTTE2LjY4IDAgQzQ0Ljg2IDEuMiwgNzQuOTEgMS4yLCAxNTQuNSAwIE0xNTQuNSAwIEMxNjMuNjcgLTEuMDQsIDE2OS42NSA2LjEzLCAxNzEuMTggMTYuNjggTTE1NC41IDAgQzE2NC45OSAyLjA0LCAxNzEuMSA0LjU1LCAxNzEuMTggMTYuNjggTTE3MS4xOCAxNi42OCBDMTcwLjc2IDMwLjU2LCAxNjkuMDcgNDAuODcsIDE3MS4xOCA1MC4wNSBNMTcxLjE4IDE2LjY4IEMxNzEuMTcgMjYuNSwgMTcwLjg5IDM2LjkzLCAxNzEuMTggNTAuMDUgTTE3MS4xOCA1MC4wNSBDMTY5Ljk3IDYwLjYxLCAxNjQuMjcgNjcuNywgMTU0LjUgNjYuNzMgTTE3MS4xOCA1MC4wNSBDMTcyLjUyIDYwLjg2LCAxNjMuNzYgNjYuMTIsIDE1NC41IDY2LjczIE0xNTQuNSA2Ni43MyBDMTAyLjU1IDY3LjM3LCA0OC45OCA2NS4wOSwgMTYuNjggNjYuNzMgTTE1NC41IDY2LjczIEMxMTYuNDMgNjYuOTEsIDc4Ljk1IDY3Ljk2LCAxNi42OCA2Ni43MyBNMTYuNjggNjYuNzMgQzUuNzEgNjguMTUsIDEuNjIgNjIuMTcsIDAgNTAuMDUgTTE2LjY4IDY2LjczIEM2LjM5IDY2Ljc3LCAtMS40NSA2MC4zOSwgMCA1MC4wNSBNMCA1MC4wNSBDMS4zNSAzOC44OCwgMC4xMiAyNy4xOCwgMCAxNi42OCBNMCA1MC4wNSBDLTAuODcgMzkuNjYsIDAgMjcuOTUsIDAgMTYuNjggTTAgMTYuNjggQy0xLjM0IDYuNTgsIDUuOTUgLTEuODQsIDE2LjY4IDAgTTAgMTYuNjggQzEuMTIgMy40NCwgNC40NiAwLjg3LCAxNi42OCAwIi8+PC9nPjxnIHRyYW5zZm9ybT0idHJhbnNsYXRlKDE2ODUuODYyOTY2NjAwNDggOTkwLjk1NjU3OTY0NzUxNTEpIHJvdGF0ZSgwIDc0LjgxOTkzODY1OTY2Nzk3IDI1LjAwMDAwMDAwMDAwMDA1NykiPjx0ZXh0IGRpcmVjdGlvbj0ibHRyIiBzdHlsZT0id2hpdGUtc3BhY2U6IHByZTsiIHRleHQtYW5jaG9yPSJtaWRkbGUiIGZpbGw9IiMxZTFlMWUiIGZvbnQtc2l6ZT0iMjBweCIgZm9udC1mYW1pbHk9IlZpcmdpbCwgU2Vnb2UgVUkgRW1vamkiIHk9IjE3LjYxOTk5OTk5OTk5OTk5NyIgeD0iNzQuODE5OTM4NjU5NjY3OTciPnZpcnR1YWwgd2FpdGluZyA8L3RleHQ+PHRleHQgZGlyZWN0aW9uPSJsdHIiIHN0eWxlPSJ3aGl0ZS1zcGFjZTogcHJlOyIgdGV4dC1hbmNob3I9Im1pZGRsZSIgZmlsbD0iIzFlMWUxZSIgZm9udC1zaXplPSIyMHB4IiBmb250LWZhbWlseT0iVmlyZ2lsLCBTZWdvZSBVSSBFbW9qaSIgeT0iNDIuNjIiIHg9Ijc0LjgxOTkzODY1OTY2Nzk3Ij5xdWV1ZTwvdGV4dD48L2c+PGcgc3Ryb2tlLWxpbmVjYXA9InJvdW5kIj48ZyB0cmFuc2Zvcm09InRyYW5zbGF0ZSgxNjUzLjY3OTgyMzY3NTA5MDggODEwLjU3MjI1NjY2Njk2MjMpIHJvdGF0ZSgwIDkuMjM0OTEzOTI0NzE4Mjg1IDEwMS42MTY1NTg2MzMxNDIyOSkiPjxwYXRoIGZpbGw9Im5vbmUiIHN0cm9rZS13aWR0aD0iMiIgc3Ryb2tlPSIjMWUxZTFlIiBkPSJNMC44OSAwLjc3IEMzLjY2IDM0LjUzLCAxMy40NyAxNjkuNDIsIDE2LjE4IDIwMy4xIE0tMC4xIDAuMTQgQzMuMTEgMzMuNTIsIDE1LjggMTY3Ljk4LCAxOC41NyAyMDEuNDMiLz48L2c+PGcgdHJhbnNmb3JtPSJ0cmFuc2xhdGUoMTY1My42Nzk4MjM2NzUwOTA4IDgxMC41NzIyNTY2NjY5NjIzKSByb3RhdGUoMCA5LjIzNDkxMzkyNDcxODI4NSAxMDEuNjE2NTU4NjMzMTQyMjkpIj48cGF0aCBmaWxsPSJub25lIiBzdHJva2Utd2lkdGg9IjIiIHN0cm9rZT0iIzFlMWUxZSIgZD0iTTcuOTYgMTc4Ljc5IEMxMi4xNSAxODMuNjUsIDE1LjA5IDE5MS4yLCAxOC41NyAyMDEuNDMgTTcuOTYgMTc4Ljc5IEMxMS41NSAxODYuMjYsIDE0LjQ5IDE5NS42NCwgMTguNTcgMjAxLjQzIi8+PC9nPjxnIHRyYW5zZm9ybT0idHJhbnNsYXRlKDE2NTMuNjc5ODIzNjc1MDkwOCA4MTAuNTcyMjU2NjY2OTYyMykgcm90YXRlKDAgOS4yMzQ5MTM5MjQ3MTgyODUgMTAxLjYxNjU1ODYzMzE0MjI5KSI+PHBhdGggZmlsbD0ibm9uZSIgc3Ryb2tlLXdpZHRoPSIyIiBzdHJva2U9IiMxZTFlMWUiIGQ9Ik0yNC45OSAxNzcuMjcgQzI0LjY5IDE4Mi42NiwgMjMuMTUgMTkwLjYxLCAxOC41NyAyMDEuNDMgTTI0Ljk5IDE3Ny4yNyBDMjIuNjEgMTg1LjE4LCAxOS41OCAxOTUuMSwgMTguNTcgMjAxLjQzIi8+PC9nPjwvZz48bWFzay8+PGcgc3Ryb2tlLWxpbmVjYXA9InJvdW5kIj48ZyB0cmFuc2Zvcm09InRyYW5zbGF0ZSgxODU1LjM2NzI1NDI5MzkyMDUgMTAxOC42MjkwMzE5NTcxOTQ2KSByb3RhdGUoMCAzNC4zMTQ5MjIyMjY3MDcxNTQgLTIuMTcxNzkwODU3ODc2NjU4MykiPjxwYXRoIGZpbGw9Im5vbmUiIHN0cm9rZS13aWR0aD0iMiIgc3Ryb2tlPSIjMWUxZTFlIiBkPSJNMC4yOCAtMC40MyBDMTEuNzYgLTAuOTYsIDU4LjE3IC0xLjksIDY5LjY2IC0yLjExIE0tMS4wMyAtMS43IEMxMC4yIC0yLjA2LCA1Ny4wNCAtMy42MywgNjguNTcgLTMuOTIiLz48L2c+PGcgdHJhbnNmb3JtPSJ0cmFuc2xhdGUoMTg1NS4zNjcyNTQyOTM5MjA1IDEwMTguNjI5MDMxOTU3MTk0Nikgcm90YXRlKDAgMzQuMzE0OTIyMjI2NzA3MTU0IC0yLjE3MTc5MDg1Nzg3NjY1ODMpIj48cGF0aCBmaWxsPSJub25lIiBzdHJva2Utd2lkdGg9IjIiIHN0cm9rZT0iIzFlMWUxZSIgZD0iTTQ1LjM0IDUuMzMgQzUyLjk5IDEuNDUsIDYzLjE0IC0yLjU5LCA2OC41NyAtMy45MiBNNDUuMzQgNS4zMyBDNTQuODIgMi4yNCwgNjMuMyAtMi43NCwgNjguNTcgLTMuOTIiLz48L2c+PGcgdHJhbnNmb3JtPSJ0cmFuc2xhdGUoMTg1NS4zNjcyNTQyOTM5MjA1IDEwMTguNjI5MDMxOTU3MTk0Nikgcm90YXRlKDAgMzQuMzE0OTIyMjI2NzA3MTU0IC0yLjE3MTc5MDg1Nzg3NjY1ODMpIj48cGF0aCBmaWxsPSJub25lIiBzdHJva2Utd2lkdGg9IjIiIHN0cm9rZT0iIzFlMWUxZSIgZD0iTTQ0LjgzIC0xMS43NiBDNTIuODIgLTkuNDMsIDYzLjE1IC03LjI2LCA2OC41NyAtMy45MiBNNDQuODMgLTExLjc2IEM1NC4zNCAtOC4yMiwgNjMuMDIgLTYuNTcsIDY4LjU3IC0zLjkyIi8+PC9nPjwvZz48bWFzay8+PGcgdHJhbnNmb3JtPSJ0cmFuc2xhdGUoMjI0MC40NTA4NTI2NTU1NSA1MzkuMDI2NjgzNTY2Mzg0NSkgcm90YXRlKDAgNTYuNTg3MjQ3MTU0NjA0MzcgNDkuOTY5NjY4MDY0MjcwNTM2KSIgc3Ryb2tlLWxpbmVjYXA9InJvdW5kIj48cGF0aCBmaWxsPSJub25lIiBzdHJva2Utd2lkdGg9IjIiIHN0cm9rZT0iIzFlMWUxZSIgZD0iTTY0Ljg2IDEuMDIgQzczLjg3IDEuMjUsIDgzLjEyIDUuNywgOTAuNDYgMTAuNzkgQzk3LjggMTUuODksIDEwNS4zNSAyMy44NSwgMTA4LjkzIDMxLjU5IEMxMTIuNTEgMzkuMzIsIDExMy4zIDQ5LjE5LCAxMTEuOTUgNTcuMjEgQzExMC42IDY1LjIzLCAxMDYuNiA3My4zLCAxMDAuODIgNzkuNzEgQzk1LjA1IDg2LjEyLCA4NS44OCA5Mi4yMywgNzcuMjkgOTUuNjcgQzY4LjY5IDk5LjEsIDU4LjUyIDEwMS40MSwgNDkuMjggMTAwLjMyIEM0MC4wNCA5OS4yNCwgMjkuNDYgOTQuNDUsIDIxLjg0IDg5LjE2IEMxNC4yMyA4My44NywgNy4wMSA3Ni4xNywgMy42IDY4LjU4IEMwLjE4IDYxLCAwLjA1IDUxLjkxLCAxLjM1IDQzLjY0IEMyLjY0IDM1LjM3LCA1LjY0IDI1LjY3LCAxMS4zOCAxOC45NyBDMTcuMTEgMTIuMjcsIDI2LjIzIDYuMzQsIDM1Ljc1IDMuNDQgQzQ1LjI3IDAuNTQsIDYyLjE1IDEuNDgsIDY4LjUgMS41OCBDNzQuODQgMS42OSwgNzQuMDkgMy4zMiwgNzMuODQgNC4wNiBNNTQuODYgLTAuNzIgQzYzLjk0IC0xLjg5LCA3NS41MyAxLjI3LCA4My45NCA1LjU0IEM5Mi4zNSA5LjgxLCAxMDAuNTEgMTcuNDQsIDEwNS4zMSAyNC45MSBDMTEwLjExIDMyLjM4LCAxMTIuMzggNDEuOTksIDExMi43MiA1MC4zNiBDMTEzLjA1IDU4LjczLCAxMTEuNjIgNjguMTMsIDEwNy4zMSA3NS4xNSBDMTAzLjAxIDgyLjE3LCA5NS4xMSA4OC4xNSwgODYuODkgOTIuNDYgQzc4LjY4IDk2Ljc3LCA2Ny42MyAxMDEuMDUsIDU4LjAzIDEwMS4wMiBDNDguNDIgMTAxLCAzNy44IDk2LjUsIDI5LjI1IDkyLjMxIEMyMC43IDg4LjEyLCAxMS44IDgyLjk3LCA2LjcyIDc1Ljg5IEMxLjY1IDY4LjgxLCAtMS4xMSA1Ny45MywgLTEuMTggNDkuODEgQy0xLjI1IDQxLjcsIDEuMzcgMzQuMTIsIDYuMjkgMjcuMTcgQzExLjIgMjAuMjIsIDIwLjI0IDEyLjY2LCAyOC4zMiA4LjE0IEMzNi4zOSAzLjYyLCA1MC4zMyAxLjQ3LCA1NC43MiAwLjA0IEM1OS4xMSAtMS4zOSwgNTQuMjkgLTEuNDgsIDU0LjY1IC0wLjQ1Ii8+PC9nPjxnIHRyYW5zZm9ybT0idHJhbnNsYXRlKDIyNzEuNDY0ODk4OTQ4MDQ0NyA1NzYuNjYyNDYwNDg4NzY4NSkgcm90YXRlKDAgMjUuNTU5OTc0NjcwNDEwMjcgMTIuNSkiPjx0ZXh0IGRpcmVjdGlvbj0ibHRyIiBzdHlsZT0id2hpdGUtc3BhY2U6IHByZTsiIHRleHQtYW5jaG9yPSJtaWRkbGUiIGZpbGw9IiMxZTFlMWUiIGZvbnQtc2l6ZT0iMjBweCIgZm9udC1mYW1pbHk9IlZpcmdpbCwgU2Vnb2UgVUkgRW1vamkiIHk9IjE3LjYxOTk5OTk5OTk5OTk5NyIgeD0iMjUuNTU5OTc0NjcwNDEwMTU2Ij5SZWRpczwvdGV4dD48L2c+PGcgc3Ryb2tlLWxpbmVjYXA9InJvdW5kIj48ZyB0cmFuc2Zvcm09InRyYW5zbGF0ZSgyMTU3Ljc5OTU2OTU1NDE0MjYgNjk4LjI4NjY4MTUxMzA0NjgpIHJvdGF0ZSgwIDQyLjI3Mzg3OTYxNDIyNDI1NiAtMzUuODg5NDQzMTEzNjMyMTI2KSI+PHBhdGggZmlsbD0ibm9uZSIgc3Ryb2tlLXdpZHRoPSIyIiBzdHJva2U9IiMxZTFlMWUiIGQ9Ik0wLjE1IC0wLjkyIEMxNC4zMSAtMTIuOTksIDcxLjQzIC01OS40MiwgODUuNzkgLTcxLjQ2IE0tMS4yNCAxLjIxIEMxMi43IC0xMS4yNCwgNzAuMzggLTYwLjc2LCA4NC44OSAtNzIuOTkiLz48L2c+PGcgdHJhbnNmb3JtPSJ0cmFuc2xhdGUoMjE1Ny43OTk1Njk1NTQxNDI2IDY5OC4yODY2ODE1MTMwNDY4KSByb3RhdGUoMCA0Mi4yNzM4Nzk2MTQyMjQyNTYgLTM1Ljg4OTQ0MzExMzYzMjEyNikiPjxwYXRoIGZpbGw9Im5vbmUiIHN0cm9rZS13aWR0aD0iMiIgc3Ryb2tlPSIjMWUxZTFlIiBkPSJNMTIuODUgLTIyLjQ1IEM2LjggLTE0LjM0LCA1LjU0IC01LjU4LCAwLjE1IC0wLjkyIE0xMi44NSAtMjIuNDUgQzEwLjU4IC0xNi40MSwgNy40NSAtMTEuMTMsIDAuMTUgLTAuOTIiLz48L2c+PGcgdHJhbnNmb3JtPSJ0cmFuc2xhdGUoMjE1Ny43OTk1Njk1NTQxNDI2IDY5OC4yODY2ODE1MTMwNDY4KSByb3RhdGUoMCA0Mi4yNzM4Nzk2MTQyMjQyNTYgLTM1Ljg4OTQ0MzExMzYzMjEyNikiPjxwYXRoIGZpbGw9Im5vbmUiIHN0cm9rZS13aWR0aD0iMiIgc3Ryb2tlPSIjMWUxZTFlIiBkPSJNMjMuNzIgLTkuMjUgQzEzLjU3IC01Ljk5LCA4LjMgLTIuMDksIDAuMTUgLTAuOTIgTTIzLjcyIC05LjI1IEMxOC43IC02LjUsIDEyLjg0IC00LjU1LCAwLjE1IC0wLjkyIi8+PC9nPjxnIHRyYW5zZm9ybT0idHJhbnNsYXRlKDIxNTcuNzk5NTY5NTU0MTQyNiA2OTguMjg2NjgxNTEzMDQ2OCkgcm90YXRlKDAgNDIuMjczODc5NjE0MjI0MjU2IC0zNS44ODk0NDMxMTM2MzIxMjYpIj48cGF0aCBmaWxsPSJub25lIiBzdHJva2Utd2lkdGg9IjIiIHN0cm9rZT0iIzFlMWUxZSIgZD0iTTcyLjU2IC01MS4yNCBDNzUuNCAtNTkuMSwgODMuMzUgLTY2LjI4LCA4NC44OSAtNzIuOTkgTTcyLjU2IC01MS4yNCBDNzYuNTUgLTU2LjE2LCA3OS43MyAtNjEuNzcsIDg0Ljg5IC03Mi45OSIvPjwvZz48ZyB0cmFuc2Zvcm09InRyYW5zbGF0ZSgyMTU3Ljc5OTU2OTU1NDE0MjYgNjk4LjI4NjY4MTUxMzA0NjgpIHJvdGF0ZSgwIDQyLjI3Mzg3OTYxNDIyNDI1NiAtMzUuODg5NDQzMTEzNjMyMTI2KSI+PHBhdGggZmlsbD0ibm9uZSIgc3Ryb2tlLXdpZHRoPSIyIiBzdHJva2U9IiMxZTFlMWUiIGQ9Ik02MS40NyAtNjQuMjYgQzY4LjQ5IC02Ny4zMywgODAuNTMgLTY5LjcyLCA4NC44OSAtNzIuOTkgTTYxLjQ3IC02NC4yNiBDNjguMjYgLTY1LjkzLCA3NC4yMyAtNjguMjcsIDg0Ljg5IC03Mi45OSIvPjwvZz48L2c+PG1hc2svPjwvc3ZnPg==;" vertex="1" parent="1">
          <mxGeometry x="-900" y="-818.5" width="1470" height="808.5" as="geometry" />
        </mxCell>
      </root>
    </mxGraphModel>
  </diagram>
</mxfile>
